<svg width="1212" height="444" viewBox="0 0 1212 444" fill="none" xmlns="http://www.w3.org/2000/svg">
<g clip-path="url(#clip0_687_295)">
<g filter="url(#filter0_f_687_295)">
<ellipse cx="1038.5" cy="-18.5" rx="427.5" ry="184.5" fill="#FA4C15" fill-opacity="0.8"/>
</g>
<g filter="url(#filter1_f_687_295)">
<ellipse cx="300.5" cy="-86.5" rx="515.5" ry="172.5" fill="#FA4C15" fill-opacity="0.1"/>
</g>
<g filter="url(#filter2_i_687_295)">
<path d="M808.905 138.976L908.712 82.3849C913.584 79.6227 919.535 79.5666 924.458 82.2365L1029.18 139.034C1034.42 141.873 1037.68 147.349 1037.68 153.303V281.138C1037.68 287.092 1034.42 292.568 1029.18 295.407L924.458 352.204C919.535 354.874 913.584 354.818 908.712 352.056L808.905 295.465C803.821 292.582 800.679 287.188 800.679 281.344V153.097C800.679 147.252 803.821 141.859 808.905 138.976Z" fill="url(#paint0_linear_687_295)" fill-opacity="0.01"/>
</g>
<path d="M808.905 138.976L908.712 82.3849C913.584 79.6227 919.535 79.5666 924.458 82.2365L1029.18 139.034C1034.42 141.873 1037.68 147.349 1037.68 153.303V281.138C1037.68 287.092 1034.42 292.568 1029.18 295.407L924.458 352.204C919.535 354.874 913.584 354.818 908.712 352.056L808.905 295.465C803.821 292.582 800.679 287.188 800.679 281.344V153.097C800.679 147.252 803.821 141.859 808.905 138.976Z" stroke="white" stroke-opacity="0.1" stroke-width="0.870239"/>
<path d="M919.178 96.7742V125.528C919.178 126.605 918.644 127.611 917.753 128.215L888.065 148.343C885.392 150.155 883.791 153.175 883.791 156.404V282.177C883.791 285.443 885.428 288.492 888.15 290.296L918.049 310.111C918.957 310.712 919.502 311.728 919.502 312.817V331.823" stroke="url(#paint1_linear_687_295)" stroke-opacity="0.4" stroke-width="1.29861" stroke-linecap="round"/>
<path d="M919.178 96.7742V125.572C919.178 126.647 919.711 127.653 920.601 128.258L950.296 148.418C952.966 150.23 954.565 153.248 954.565 156.476V282.444C954.565 285.708 952.93 288.755 950.211 290.56L920.304 310.407C919.398 311.008 918.853 312.024 918.853 313.112V332.148" stroke="url(#paint2_linear_687_295)" stroke-opacity="0.3" stroke-width="1.29861" stroke-linecap="round"/>
<path d="M919.178 341.562L919.178 312.808C919.178 311.732 918.644 310.725 917.753 310.121L888.065 289.994C885.392 288.181 883.791 285.162 883.791 281.932L883.791 156.16C883.791 152.894 885.427 149.845 888.15 148.041L918.049 128.226C918.957 127.625 919.502 126.608 919.502 125.52L919.502 106.514" stroke="url(#paint3_linear_687_295)" stroke-opacity="0.3" stroke-width="1.29861" stroke-linecap="round"/>
<rect x="792.238" y="178.587" width="254.528" height="77.2674" rx="12.9861" fill="#533B34"/>
<rect x="788.675" y="175.023" width="261.655" height="84.3947" rx="16.5497" stroke="white" stroke-opacity="0.3" stroke-width="7.12726"/>
<path d="M988.328 155.861V279.229" stroke="white" stroke-opacity="0.4" stroke-width="1.29861" stroke-linecap="round"/>
<path d="M816.263 184.43L816.263 250.66" stroke="white" stroke-opacity="0.4" stroke-width="1.29861" stroke-linecap="round"/>
<path d="M850.676 196.118L850.676 238.323" stroke="white" stroke-opacity="0.4" stroke-width="1.29861" stroke-linecap="round"/>
<path d="M885.354 182.134L885.354 253.493" stroke="white" stroke-opacity="0.4" stroke-width="1.29861" stroke-linecap="round"/>
<path d="M954.103 194.317L954.103 241.31" stroke="white" stroke-opacity="0.4" stroke-width="1.29861" stroke-linecap="round"/>
<g filter="url(#filter3_i_687_295)">
<rect x="801.328" y="194.17" width="29.8681" height="46.75" rx="4.54514" fill="#7C5D53"/>
</g>
<g filter="url(#filter4_i_687_295)">
<rect x="835.742" y="205.208" width="29.8681" height="24.6736" rx="4.54514" fill="#7C5D53"/>
</g>
<g filter="url(#filter5_i_687_295)">
<rect x="870.155" y="187.677" width="29.8681" height="59.7361" rx="4.54514" fill="#7C5D53"/>
</g>
<path d="M1022.74 185.729L1022.74 253.257" stroke="white" stroke-opacity="0.4" stroke-width="1.29861" stroke-linecap="round"/>
<g filter="url(#filter6_i_687_295)">
<rect x="938.981" y="202.286" width="29.8681" height="30.5174" rx="4.54514" fill="#7C5D53"/>
</g>
<g filter="url(#filter7_i_687_295)">
<rect x="1007.81" y="193.521" width="29.8681" height="48.0486" rx="4.54514" fill="#7C5D53"/>
</g>
<g filter="url(#filter8_i_687_295)">
<circle cx="919.177" cy="77.6198" r="37.3351" fill="black" fill-opacity="0.1"/>
</g>
<g filter="url(#filter9_i_687_295)">
<circle cx="919.177" cy="362.665" r="37.3351" fill="black" fill-opacity="0.1"/>
</g>
<path d="M918.853 107.163L918.853 166.25" stroke="url(#paint4_linear_687_295)" stroke-width="1.75313" stroke-linecap="round"/>
<path d="M918.86 335.07L918.86 275.983" stroke="url(#paint5_linear_687_295)" stroke-width="1.75313" stroke-linecap="round"/>
<g filter="url(#filter10_i_687_295)">
<rect x="973.395" y="168.198" width="29.8681" height="98.6945" rx="4.54514" fill="#7C5D53"/>
</g>
<g filter="url(#filter11_i_687_295)">
<circle cx="919.178" cy="77.6193" r="32.1406" fill="#A13917"/>
</g>
<circle cx="919.178" cy="77.6193" r="31.816" stroke="white" stroke-opacity="0.1" stroke-width="0.649306"/>
<g filter="url(#filter12_i_687_295)">
<circle cx="919.178" cy="362.665" r="32.1406" fill="#2E2E2E"/>
</g>
<circle cx="919.178" cy="362.665" r="31.816" stroke="white" stroke-opacity="0.1" stroke-width="0.649306"/>
<g filter="url(#filter13_i_687_295)">
<rect x="904.569" y="145.472" width="29.8681" height="144.146" rx="4.54514" fill="#7C5D53"/>
</g>
<g filter="url(#filter14_i_687_295)">
<path d="M661.226 -97.968L761.033 -154.559C765.905 -157.322 771.856 -157.378 776.779 -154.708L881.503 -97.9103C886.737 -95.0717 889.997 -89.5954 889.997 -83.6412V44.1934C889.997 50.1476 886.737 55.6239 881.503 58.4625L776.779 115.26C771.856 117.93 765.905 117.874 761.033 115.112L661.226 58.5202C656.142 55.6374 653 50.2441 653 44.3995V-83.8473C653 -89.6919 656.142 -95.0852 661.226 -97.968Z" fill="url(#paint6_linear_687_295)" fill-opacity="0.05"/>
</g>
<g filter="url(#filter15_i_687_295)">
<path d="M957.107 -97.968L1056.91 -154.559C1061.79 -157.322 1067.74 -157.378 1072.66 -154.708L1177.38 -97.9103C1182.62 -95.0717 1185.88 -89.5954 1185.88 -83.6412V44.1934C1185.88 50.1476 1182.62 55.6239 1177.38 58.4625L1072.66 115.26C1067.74 117.93 1061.79 117.874 1056.91 115.112L957.107 58.5202C952.023 55.6374 948.881 50.2441 948.881 44.3995V-83.8473C948.881 -89.6919 952.023 -95.0852 957.107 -97.968Z" fill="url(#paint7_linear_687_295)" fill-opacity="0.05"/>
</g>
<rect x="1067.23" y="205.63" width="8.70239" height="24.3667" rx="4.35119" fill="white" fill-opacity="0.1"/>
<rect x="1082.9" y="205.63" width="8.70239" height="24.3667" rx="4.35119" fill="white" fill-opacity="0.1"/>
<rect x="1098.56" y="209.546" width="8.70239" height="16.5345" rx="4.35119" fill="white" fill-opacity="0.1"/>
<rect x="1114.23" y="210.417" width="8.70239" height="14.7941" rx="4.35119" fill="white" fill-opacity="0.1"/>
<rect x="724.36" y="225.21" width="8.70239" height="14.7941" rx="4.35119" transform="rotate(180 724.36 225.21)" fill="white" fill-opacity="0.1"/>
<rect x="740.024" y="226.081" width="8.70239" height="16.5345" rx="4.35119" transform="rotate(180 740.024 226.081)" fill="white" fill-opacity="0.1"/>
<rect x="755.688" y="229.997" width="8.70239" height="24.3667" rx="4.35119" transform="rotate(180 755.688 229.997)" fill="white" fill-opacity="0.1"/>
<rect x="771.353" y="229.997" width="8.70239" height="24.3667" rx="4.35119" transform="rotate(180 771.353 229.997)" fill="white" fill-opacity="0.1"/>
<path d="M918.339 98.2496H918.338L908.243 84.3658L918.339 90.1871L928.441 84.3658L918.339 98.2496ZM928.436 82.4977L918.339 88.3209L908.243 82.4977L918.339 66.15L928.436 82.4977Z" fill="white" fill-opacity="0.4"/>
<g style="mix-blend-mode:luminosity">
<path d="M910.483 367.067C910.642 366.915 910.859 366.829 911.085 366.829H931.92C932.3 366.829 932.49 367.268 932.221 367.525L928.104 371.462C927.944 371.615 927.728 371.7 927.502 371.7H906.667C906.287 371.7 906.097 371.261 906.365 371.004L910.483 367.067Z" fill="url(#paint8_linear_687_295)"/>
<path d="M910.483 352.359C910.642 352.206 910.859 352.12 911.085 352.12H931.92C932.3 352.12 932.49 352.559 932.221 352.816L928.104 356.753C927.944 356.906 927.728 356.992 927.502 356.992H906.667C906.287 356.992 906.097 356.553 906.365 356.296L910.483 352.359Z" fill="url(#paint9_linear_687_295)"/>
<path d="M928.104 359.666C927.944 359.513 927.728 359.428 927.502 359.428H906.667C906.287 359.428 906.097 359.867 906.365 360.124L910.483 364.061C910.642 364.213 910.859 364.299 911.085 364.299H931.92C932.3 364.299 932.49 363.86 932.221 363.603L928.104 359.666Z" fill="url(#paint10_linear_687_295)"/>
</g>
<path d="M787.636 78.6673C788.194 78.6673 788.646 78.2263 788.646 77.6823C788.646 77.1384 788.194 76.6974 787.636 76.6974C787.079 76.6974 786.627 77.1384 786.627 77.6823C786.627 78.2263 787.079 78.6673 787.636 78.6673Z" fill="#FFFDFF" fill-opacity="0.3"/>
<path d="M935.412 84.0996C935.969 84.0996 936.421 83.6587 936.421 83.1147C936.421 82.5707 935.969 82.1298 935.412 82.1298C934.854 82.1298 934.402 82.5707 934.402 83.1147C934.402 83.6587 934.854 84.0996 935.412 84.0996Z" fill="#FFFDFF" fill-opacity="0.3"/>
<path d="M853.923 140.836C854.481 140.836 854.933 140.395 854.933 139.851C854.933 139.307 854.481 138.866 853.923 138.866C853.366 138.866 852.914 139.307 852.914 139.851C852.914 140.395 853.366 140.836 853.923 140.836Z" fill="#FFFDFF" fill-opacity="0.3"/>
<path d="M908.43 140.836C908.988 140.836 909.44 140.395 909.44 139.851C909.44 139.307 908.988 138.866 908.43 138.866C907.873 138.866 907.421 139.307 907.421 139.851C907.421 140.395 907.873 140.836 908.43 140.836Z" fill="#FFFDFF" fill-opacity="0.3"/>
<path d="M1036.34 74.2516C1036.9 74.2516 1037.35 74.6925 1037.35 75.2365C1037.35 75.7805 1036.9 76.2214 1036.34 76.2214C1035.78 76.2214 1035.33 75.7805 1035.33 75.2365C1035.33 74.6925 1035.78 74.2516 1036.34 74.2516Z" fill="#FFFDFF" fill-opacity="0.3"/>
<path d="M851.905 77.8011C852.462 77.8011 852.914 77.3601 852.914 76.8161C852.914 76.2721 852.462 75.8312 851.905 75.8312C851.347 75.8312 850.896 76.2721 850.896 76.8161C850.896 77.3601 851.347 77.8011 851.905 77.8011Z" fill="#FFFDFF" fill-opacity="0.3"/>
<path d="M888.242 107.348C888.799 107.348 889.251 106.907 889.251 106.363C889.251 105.819 888.799 105.378 888.242 105.378C887.684 105.378 887.232 105.819 887.232 106.363C887.232 106.907 887.684 107.348 888.242 107.348Z" fill="#FFFDFF" fill-opacity="0.3"/>
<path d="M893.016 74.2509C893.574 74.2509 894.026 73.8099 894.026 73.266C894.026 72.722 893.574 72.281 893.016 72.281C892.459 72.281 892.007 72.722 892.007 73.266C892.007 73.8099 892.459 74.2509 893.016 74.2509Z" fill="#FFFDFF" fill-opacity="0.3"/>
<path d="M785.617 165.342C786.174 165.342 786.626 164.901 786.626 164.357C786.626 163.813 786.174 163.372 785.617 163.372C785.059 163.372 784.607 163.813 784.607 164.357C784.607 164.901 785.059 165.342 785.617 165.342Z" fill="#FFFDFF" fill-opacity="0.3"/>
<path d="M838.512 90.0107C839.07 90.0107 839.522 89.5697 839.522 89.0257C839.522 88.4817 839.07 88.0408 838.512 88.0408C837.955 88.0408 837.503 88.4817 837.503 89.0257C837.503 89.5697 837.955 90.0107 838.512 90.0107Z" fill="#FFFDFF" fill-opacity="0.3"/>
<path d="M840.535 54.5523C841.092 54.5523 841.544 54.1113 841.544 53.5673C841.544 53.0234 841.092 52.5824 840.535 52.5824C839.977 52.5824 839.525 53.0234 839.525 53.5673C839.525 54.1113 839.977 54.5523 840.535 54.5523Z" fill="#FFFDFF" fill-opacity="0.3"/>
<path d="M923.568 125.075C924.683 125.075 925.587 124.193 925.587 123.105C925.587 122.017 924.683 121.135 923.568 121.135C922.454 121.135 921.55 122.017 921.55 123.105C921.55 124.193 922.454 125.075 923.568 125.075Z" fill="#FFFDFF" fill-opacity="0.3"/>
<path d="M869.061 67.9515C870.176 67.9515 871.079 67.0695 871.079 65.9816C871.079 64.8937 870.176 64.0117 869.061 64.0117C867.946 64.0117 867.042 64.8937 867.042 65.9816C867.042 67.0695 867.946 67.9515 869.061 67.9515Z" fill="#FFFDFF" fill-opacity="0.3"/>
<path d="M875.122 105.378C876.237 105.378 877.141 104.937 877.141 104.393C877.141 103.849 876.237 103.408 875.122 103.408C874.007 103.408 873.104 103.849 873.104 104.393C873.104 104.937 874.007 105.378 875.122 105.378Z" fill="#FFFDFF" fill-opacity="0.3"/>
<path d="M982.848 95.9191C983.963 95.9191 984.866 95.4781 984.866 94.9341C984.866 94.3902 983.963 93.9492 982.848 93.9492C981.733 93.9492 980.829 94.3902 980.829 94.9341C980.829 95.4781 981.733 95.9191 982.848 95.9191Z" fill="#FFFDFF" fill-opacity="0.3"/>
<path d="M965.691 119.409C966.248 119.409 966.7 118.968 966.7 118.424C966.7 117.88 966.248 117.439 965.691 117.439C965.134 117.439 964.682 117.88 964.682 118.424C964.682 118.968 965.134 119.409 965.691 119.409Z" fill="#FFFDFF" fill-opacity="0.3"/>
<path d="M920.955 157.939C921.512 157.939 921.964 157.498 921.964 156.954C921.964 156.41 921.512 155.969 920.955 155.969C920.397 155.969 919.945 156.41 919.945 156.954C919.945 157.498 920.397 157.939 920.955 157.939Z" fill="#FFFDFF" fill-opacity="0.3"/>
<path d="M937.102 112.634C937.66 112.634 938.111 112.193 938.111 111.649C938.111 111.105 937.66 110.664 937.102 110.664C936.545 110.664 936.093 111.105 936.093 111.649C936.093 112.193 936.545 112.634 937.102 112.634Z" fill="#FFFDFF" fill-opacity="0.3"/>
<path d="M1010.1 180.475C1010.66 180.475 1011.11 180.916 1011.11 181.46C1011.11 182.004 1010.66 182.445 1010.1 182.445C1009.54 182.445 1009.09 182.004 1009.09 181.46C1009.09 180.916 1009.54 180.475 1010.1 180.475Z" fill="#FFFDFF" fill-opacity="0.3"/>
<path d="M1004.05 152.898C1004.6 152.898 1005.06 152.457 1005.06 151.913C1005.06 151.369 1004.6 150.928 1004.05 150.928C1003.49 150.928 1003.04 151.369 1003.04 151.913C1003.04 152.457 1003.49 152.898 1004.05 152.898Z" fill="#FFFDFF" fill-opacity="0.3"/>
<path d="M784.009 156.839C784.567 156.839 785.019 156.398 785.019 155.854C785.019 155.31 784.567 154.869 784.009 154.869C783.452 154.869 783 155.31 783 155.854C783 156.398 783.452 156.839 784.009 156.839Z" fill="#FFFDFF" fill-opacity="0.3"/>
<path d="M1040.38 182.445C1040.94 182.445 1041.39 182.004 1041.39 181.46C1041.39 180.916 1040.94 180.475 1040.38 180.475C1039.82 180.475 1039.37 180.916 1039.37 181.46C1039.37 182.004 1039.82 182.445 1040.38 182.445Z" fill="#FFFDFF" fill-opacity="0.3"/>
<path d="M846.261 152.031C846.819 152.031 847.271 151.59 847.271 151.046C847.271 150.502 846.819 150.061 846.261 150.061C845.704 150.061 845.252 150.502 845.252 151.046C845.252 151.59 845.704 152.031 846.261 152.031Z" fill="#FFFDFF" fill-opacity="0.3"/>
<path d="M1062.59 121.381C1063.14 121.381 1063.6 121.822 1063.6 122.366C1063.6 122.91 1063.14 123.351 1062.59 123.351C1062.03 123.351 1061.58 122.91 1061.58 122.366C1061.58 121.822 1062.03 121.381 1062.59 121.381Z" fill="#FFFDFF" fill-opacity="0.3"/>
<path d="M1008.08 105.621C1008.64 105.621 1009.09 106.062 1009.09 106.606C1009.09 107.15 1008.64 107.591 1008.08 107.591C1007.52 107.591 1007.07 107.15 1007.07 106.606C1007.07 106.062 1007.52 105.621 1008.08 105.621Z" fill="#FFFDFF" fill-opacity="0.3"/>
<path d="M937.102 152.031C937.66 152.031 938.111 151.59 938.111 151.046C938.111 150.502 937.66 150.061 937.102 150.061C936.545 150.061 936.093 150.502 936.093 151.046C936.093 151.59 936.545 152.031 937.102 152.031Z" fill="#FFFDFF" fill-opacity="0.3"/>
<path d="M1010.1 141.079C1010.66 141.079 1011.11 141.52 1011.11 142.064C1011.11 142.608 1010.66 143.049 1010.1 143.049C1009.54 143.049 1009.09 142.608 1009.09 142.064C1009.09 141.52 1009.54 141.079 1010.1 141.079Z" fill="#FFFDFF" fill-opacity="0.3"/>
<path d="M1031.3 139.106C1032.41 139.106 1033.32 138.225 1033.32 137.137C1033.32 136.049 1032.41 135.167 1031.3 135.167C1030.18 135.167 1029.28 136.049 1029.28 137.137C1029.28 138.225 1030.18 139.106 1031.3 139.106Z" fill="#FFFDFF" fill-opacity="0.3"/>
<path d="M801.165 146.989C802.28 146.989 803.184 146.107 803.184 145.019C803.184 143.931 802.28 143.049 801.165 143.049C800.05 143.049 799.146 143.931 799.146 145.019C799.146 146.107 800.05 146.989 801.165 146.989Z" fill="#FFFDFF" fill-opacity="0.3"/>
<path d="M833.142 150.06C834.257 150.06 835.16 149.619 835.16 149.075C835.16 148.531 834.257 148.09 833.142 148.09C832.027 148.09 831.123 148.531 831.123 149.075C831.123 149.619 832.027 150.06 833.142 150.06Z" fill="#FFFDFF" fill-opacity="0.3"/>
<path d="M934.072 128.391C935.187 128.391 936.091 127.951 936.091 127.407C936.091 126.863 935.187 126.422 934.072 126.422C932.958 126.422 932.054 126.863 932.054 127.407C932.054 127.951 932.958 128.391 934.072 128.391Z" fill="#FFFDFF" fill-opacity="0.3"/>
<path d="M1020.48 97.8898C1019.92 97.8898 1019.47 97.4488 1019.47 96.9049C1019.47 96.3609 1019.92 95.9199 1020.48 95.9199C1021.03 95.9199 1021.49 96.3609 1021.49 96.9049C1021.49 97.4488 1021.03 97.8898 1020.48 97.8898Z" fill="#FFFDFF" fill-opacity="0.3"/>
<path d="M986.158 64.4011C985.6 64.4011 985.148 63.9602 985.148 63.4162C985.148 62.8722 985.6 62.4313 986.158 62.4313C986.715 62.4313 987.167 62.8722 987.167 63.4162C987.167 63.9602 986.715 64.4011 986.158 64.4011Z" fill="#FFFDFF" fill-opacity="0.3"/>
<path d="M1062.87 88.0368C1062.31 88.0368 1061.86 87.5958 1061.86 87.0518C1061.86 86.5079 1062.31 86.0669 1062.87 86.0669C1063.43 86.0669 1063.88 86.5079 1063.88 87.0518C1063.88 87.5958 1063.43 88.0368 1062.87 88.0368Z" fill="#FFFDFF" fill-opacity="0.3"/>
<path d="M1034.61 107.589C1034.05 107.589 1033.6 107.149 1033.6 106.605C1033.6 106.061 1034.05 105.62 1034.61 105.62C1035.16 105.62 1035.62 106.061 1035.62 106.605C1035.62 107.149 1035.16 107.589 1034.61 107.589Z" fill="#FFFDFF" fill-opacity="0.3"/>
<path d="M996.251 141.075C995.694 141.075 995.242 140.634 995.242 140.09C995.242 139.546 995.694 139.105 996.251 139.105C996.809 139.105 997.261 139.546 997.261 140.09C997.261 140.634 996.809 141.075 996.251 141.075Z" fill="#FFFDFF" fill-opacity="0.3"/>
<path d="M959.917 170.625C959.36 170.625 958.908 170.184 958.908 169.64C958.908 169.096 959.36 168.656 959.917 168.656C960.475 168.656 960.927 169.096 960.927 169.64C960.927 170.184 960.475 170.625 959.917 170.625Z" fill="#FFFDFF" fill-opacity="0.3"/>
</g>
<rect x="3" y="3" width="1206" height="438" rx="27" stroke="white" stroke-opacity="0.05" stroke-width="6"/>
<defs>
<filter id="filter0_f_687_295" x="307" y="-507" width="1463" height="977" filterUnits="userSpaceOnUse" color-interpolation-filters="sRGB">
<feFlood flood-opacity="0" result="BackgroundImageFix"/>
<feBlend mode="normal" in="SourceGraphic" in2="BackgroundImageFix" result="shape"/>
<feGaussianBlur stdDeviation="152" result="effect1_foregroundBlur_687_295"/>
</filter>
<filter id="filter1_f_687_295" x="-519" y="-563" width="1639" height="953" filterUnits="userSpaceOnUse" color-interpolation-filters="sRGB">
<feFlood flood-opacity="0" result="BackgroundImageFix"/>
<feBlend mode="normal" in="SourceGraphic" in2="BackgroundImageFix" result="shape"/>
<feGaussianBlur stdDeviation="152" result="effect1_foregroundBlur_687_295"/>
</filter>
<filter id="filter2_i_687_295" x="800.244" y="79.8378" width="237.867" height="274.765" filterUnits="userSpaceOnUse" color-interpolation-filters="sRGB">
<feFlood flood-opacity="0" result="BackgroundImageFix"/>
<feBlend mode="normal" in="SourceGraphic" in2="BackgroundImageFix" result="shape"/>
<feColorMatrix in="SourceAlpha" type="matrix" values="0 0 0 0 0 0 0 0 0 0 0 0 0 0 0 0 0 0 127 0" result="hardAlpha"/>
<feOffset/>
<feGaussianBlur stdDeviation="23.4965"/>
<feComposite in2="hardAlpha" operator="arithmetic" k2="-1" k3="1"/>
<feColorMatrix type="matrix" values="0 0 0 0 1 0 0 0 0 1 0 0 0 0 1 0 0 0 0.1 0"/>
<feBlend mode="normal" in2="shape" result="effect1_innerShadow_687_295"/>
</filter>
<filter id="filter3_i_687_295" x="801.328" y="194.17" width="29.8682" height="46.75" filterUnits="userSpaceOnUse" color-interpolation-filters="sRGB">
<feFlood flood-opacity="0" result="BackgroundImageFix"/>
<feBlend mode="normal" in="SourceGraphic" in2="BackgroundImageFix" result="shape"/>
<feColorMatrix in="SourceAlpha" type="matrix" values="0 0 0 0 0 0 0 0 0 0 0 0 0 0 0 0 0 0 127 0" result="hardAlpha"/>
<feOffset/>
<feGaussianBlur stdDeviation="4.54514"/>
<feComposite in2="hardAlpha" operator="arithmetic" k2="-1" k3="1"/>
<feColorMatrix type="matrix" values="0 0 0 0 1 0 0 0 0 1 0 0 0 0 1 0 0 0 0.25 0"/>
<feBlend mode="normal" in2="shape" result="effect1_innerShadow_687_295"/>
</filter>
<filter id="filter4_i_687_295" x="835.742" y="205.208" width="29.8682" height="24.6736" filterUnits="userSpaceOnUse" color-interpolation-filters="sRGB">
<feFlood flood-opacity="0" result="BackgroundImageFix"/>
<feBlend mode="normal" in="SourceGraphic" in2="BackgroundImageFix" result="shape"/>
<feColorMatrix in="SourceAlpha" type="matrix" values="0 0 0 0 0 0 0 0 0 0 0 0 0 0 0 0 0 0 127 0" result="hardAlpha"/>
<feOffset/>
<feGaussianBlur stdDeviation="4.54514"/>
<feComposite in2="hardAlpha" operator="arithmetic" k2="-1" k3="1"/>
<feColorMatrix type="matrix" values="0 0 0 0 1 0 0 0 0 1 0 0 0 0 1 0 0 0 0.25 0"/>
<feBlend mode="normal" in2="shape" result="effect1_innerShadow_687_295"/>
</filter>
<filter id="filter5_i_687_295" x="870.155" y="187.677" width="29.8682" height="59.7361" filterUnits="userSpaceOnUse" color-interpolation-filters="sRGB">
<feFlood flood-opacity="0" result="BackgroundImageFix"/>
<feBlend mode="normal" in="SourceGraphic" in2="BackgroundImageFix" result="shape"/>
<feColorMatrix in="SourceAlpha" type="matrix" values="0 0 0 0 0 0 0 0 0 0 0 0 0 0 0 0 0 0 127 0" result="hardAlpha"/>
<feOffset/>
<feGaussianBlur stdDeviation="4.54514"/>
<feComposite in2="hardAlpha" operator="arithmetic" k2="-1" k3="1"/>
<feColorMatrix type="matrix" values="0 0 0 0 1 0 0 0 0 1 0 0 0 0 1 0 0 0 0.25 0"/>
<feBlend mode="normal" in2="shape" result="effect1_innerShadow_687_295"/>
</filter>
<filter id="filter6_i_687_295" x="938.981" y="202.286" width="29.8682" height="30.5173" filterUnits="userSpaceOnUse" color-interpolation-filters="sRGB">
<feFlood flood-opacity="0" result="BackgroundImageFix"/>
<feBlend mode="normal" in="SourceGraphic" in2="BackgroundImageFix" result="shape"/>
<feColorMatrix in="SourceAlpha" type="matrix" values="0 0 0 0 0 0 0 0 0 0 0 0 0 0 0 0 0 0 127 0" result="hardAlpha"/>
<feOffset/>
<feGaussianBlur stdDeviation="4.54514"/>
<feComposite in2="hardAlpha" operator="arithmetic" k2="-1" k3="1"/>
<feColorMatrix type="matrix" values="0 0 0 0 1 0 0 0 0 1 0 0 0 0 1 0 0 0 0.25 0"/>
<feBlend mode="normal" in2="shape" result="effect1_innerShadow_687_295"/>
</filter>
<filter id="filter7_i_687_295" x="1007.81" y="193.521" width="29.8682" height="48.0486" filterUnits="userSpaceOnUse" color-interpolation-filters="sRGB">
<feFlood flood-opacity="0" result="BackgroundImageFix"/>
<feBlend mode="normal" in="SourceGraphic" in2="BackgroundImageFix" result="shape"/>
<feColorMatrix in="SourceAlpha" type="matrix" values="0 0 0 0 0 0 0 0 0 0 0 0 0 0 0 0 0 0 127 0" result="hardAlpha"/>
<feOffset/>
<feGaussianBlur stdDeviation="4.54514"/>
<feComposite in2="hardAlpha" operator="arithmetic" k2="-1" k3="1"/>
<feColorMatrix type="matrix" values="0 0 0 0 1 0 0 0 0 1 0 0 0 0 1 0 0 0 0.25 0"/>
<feBlend mode="normal" in2="shape" result="effect1_innerShadow_687_295"/>
</filter>
<filter id="filter8_i_687_295" x="881.842" y="40.2847" width="74.6704" height="74.6702" filterUnits="userSpaceOnUse" color-interpolation-filters="sRGB">
<feFlood flood-opacity="0" result="BackgroundImageFix"/>
<feBlend mode="normal" in="SourceGraphic" in2="BackgroundImageFix" result="shape"/>
<feColorMatrix in="SourceAlpha" type="matrix" values="0 0 0 0 0 0 0 0 0 0 0 0 0 0 0 0 0 0 127 0" result="hardAlpha"/>
<feOffset/>
<feGaussianBlur stdDeviation="7.79167"/>
<feComposite in2="hardAlpha" operator="arithmetic" k2="-1" k3="1"/>
<feColorMatrix type="matrix" values="0 0 0 0 1 0 0 0 0 1 0 0 0 0 1 0 0 0 0.25 0"/>
<feBlend mode="normal" in2="shape" result="effect1_innerShadow_687_295"/>
</filter>
<filter id="filter9_i_687_295" x="881.842" y="325.33" width="74.6704" height="74.6702" filterUnits="userSpaceOnUse" color-interpolation-filters="sRGB">
<feFlood flood-opacity="0" result="BackgroundImageFix"/>
<feBlend mode="normal" in="SourceGraphic" in2="BackgroundImageFix" result="shape"/>
<feColorMatrix in="SourceAlpha" type="matrix" values="0 0 0 0 0 0 0 0 0 0 0 0 0 0 0 0 0 0 127 0" result="hardAlpha"/>
<feOffset/>
<feGaussianBlur stdDeviation="7.79167"/>
<feComposite in2="hardAlpha" operator="arithmetic" k2="-1" k3="1"/>
<feColorMatrix type="matrix" values="0 0 0 0 1 0 0 0 0 1 0 0 0 0 1 0 0 0 0.25 0"/>
<feBlend mode="normal" in2="shape" result="effect1_innerShadow_687_295"/>
</filter>
<filter id="filter10_i_687_295" x="973.395" y="168.198" width="29.8682" height="98.6946" filterUnits="userSpaceOnUse" color-interpolation-filters="sRGB">
<feFlood flood-opacity="0" result="BackgroundImageFix"/>
<feBlend mode="normal" in="SourceGraphic" in2="BackgroundImageFix" result="shape"/>
<feColorMatrix in="SourceAlpha" type="matrix" values="0 0 0 0 0 0 0 0 0 0 0 0 0 0 0 0 0 0 127 0" result="hardAlpha"/>
<feOffset/>
<feGaussianBlur stdDeviation="4.54514"/>
<feComposite in2="hardAlpha" operator="arithmetic" k2="-1" k3="1"/>
<feColorMatrix type="matrix" values="0 0 0 0 1 0 0 0 0 1 0 0 0 0 1 0 0 0 0.25 0"/>
<feBlend mode="normal" in2="shape" result="effect1_innerShadow_687_295"/>
</filter>
<filter id="filter11_i_687_295" x="887.038" y="45.4786" width="64.2812" height="64.2814" filterUnits="userSpaceOnUse" color-interpolation-filters="sRGB">
<feFlood flood-opacity="0" result="BackgroundImageFix"/>
<feBlend mode="normal" in="SourceGraphic" in2="BackgroundImageFix" result="shape"/>
<feColorMatrix in="SourceAlpha" type="matrix" values="0 0 0 0 0 0 0 0 0 0 0 0 0 0 0 0 0 0 127 0" result="hardAlpha"/>
<feOffset/>
<feGaussianBlur stdDeviation="7.79167"/>
<feComposite in2="hardAlpha" operator="arithmetic" k2="-1" k3="1"/>
<feColorMatrix type="matrix" values="0 0 0 0 1 0 0 0 0 1 0 0 0 0 1 0 0 0 0.25 0"/>
<feBlend mode="normal" in2="shape" result="effect1_innerShadow_687_295"/>
</filter>
<filter id="filter12_i_687_295" x="887.038" y="330.524" width="64.2812" height="64.2812" filterUnits="userSpaceOnUse" color-interpolation-filters="sRGB">
<feFlood flood-opacity="0" result="BackgroundImageFix"/>
<feBlend mode="normal" in="SourceGraphic" in2="BackgroundImageFix" result="shape"/>
<feColorMatrix in="SourceAlpha" type="matrix" values="0 0 0 0 0 0 0 0 0 0 0 0 0 0 0 0 0 0 127 0" result="hardAlpha"/>
<feOffset/>
<feGaussianBlur stdDeviation="12.1442"/>
<feComposite in2="hardAlpha" operator="arithmetic" k2="-1" k3="1"/>
<feColorMatrix type="matrix" values="0 0 0 0 1 0 0 0 0 1 0 0 0 0 1 0 0 0 0.25 0"/>
<feBlend mode="normal" in2="shape" result="effect1_innerShadow_687_295"/>
</filter>
<filter id="filter13_i_687_295" x="904.569" y="145.472" width="29.8682" height="144.146" filterUnits="userSpaceOnUse" color-interpolation-filters="sRGB">
<feFlood flood-opacity="0" result="BackgroundImageFix"/>
<feBlend mode="normal" in="SourceGraphic" in2="BackgroundImageFix" result="shape"/>
<feColorMatrix in="SourceAlpha" type="matrix" values="0 0 0 0 0 0 0 0 0 0 0 0 0 0 0 0 0 0 127 0" result="hardAlpha"/>
<feOffset/>
<feGaussianBlur stdDeviation="4.54514"/>
<feComposite in2="hardAlpha" operator="arithmetic" k2="-1" k3="1"/>
<feColorMatrix type="matrix" values="0 0 0 0 1 0 0 0 0 1 0 0 0 0 1 0 0 0 0.25 0"/>
<feBlend mode="normal" in2="shape" result="effect1_innerShadow_687_295"/>
</filter>
<filter id="filter14_i_687_295" x="653" y="-156.671" width="236.997" height="274.765" filterUnits="userSpaceOnUse" color-interpolation-filters="sRGB">
<feFlood flood-opacity="0" result="BackgroundImageFix"/>
<feBlend mode="normal" in="SourceGraphic" in2="BackgroundImageFix" result="shape"/>
<feColorMatrix in="SourceAlpha" type="matrix" values="0 0 0 0 0 0 0 0 0 0 0 0 0 0 0 0 0 0 127 0" result="hardAlpha"/>
<feOffset dy="0.870239"/>
<feGaussianBlur stdDeviation="19.1453"/>
<feComposite in2="hardAlpha" operator="arithmetic" k2="-1" k3="1"/>
<feColorMatrix type="matrix" values="0 0 0 0 1 0 0 0 0 1 0 0 0 0 1 0 0 0 0.18 0"/>
<feBlend mode="normal" in2="shape" result="effect1_innerShadow_687_295"/>
</filter>
<filter id="filter15_i_687_295" x="948.881" y="-156.671" width="236.997" height="274.765" filterUnits="userSpaceOnUse" color-interpolation-filters="sRGB">
<feFlood flood-opacity="0" result="BackgroundImageFix"/>
<feBlend mode="normal" in="SourceGraphic" in2="BackgroundImageFix" result="shape"/>
<feColorMatrix in="SourceAlpha" type="matrix" values="0 0 0 0 0 0 0 0 0 0 0 0 0 0 0 0 0 0 127 0" result="hardAlpha"/>
<feOffset dy="0.870239"/>
<feGaussianBlur stdDeviation="19.1453"/>
<feComposite in2="hardAlpha" operator="arithmetic" k2="-1" k3="1"/>
<feColorMatrix type="matrix" values="0 0 0 0 1 0 0 0 0 1 0 0 0 0 1 0 0 0 0.18 0"/>
<feBlend mode="normal" in2="shape" result="effect1_innerShadow_687_295"/>
</filter>
<linearGradient id="paint0_linear_687_295" x1="919.177" y1="77.9443" x2="919.177" y2="356.497" gradientUnits="userSpaceOnUse">
<stop stop-color="#C7C7C7"/>
<stop offset="1" stop-color="#616161"/>
</linearGradient>
<linearGradient id="paint1_linear_687_295" x1="901.647" y1="96.7742" x2="901.647" y2="331.823" gradientUnits="userSpaceOnUse">
<stop stop-color="white"/>
<stop offset="1" stop-color="#C0C0C0" stop-opacity="0"/>
</linearGradient>
<linearGradient id="paint2_linear_687_295" x1="936.709" y1="96.7742" x2="936.709" y2="332.148" gradientUnits="userSpaceOnUse">
<stop stop-color="white"/>
<stop offset="1" stop-color="#C0C0C0" stop-opacity="0"/>
</linearGradient>
<linearGradient id="paint3_linear_687_295" x1="901.647" y1="341.562" x2="901.322" y2="238.972" gradientUnits="userSpaceOnUse">
<stop stop-color="white"/>
<stop offset="1" stop-color="#C0C0C0" stop-opacity="0"/>
</linearGradient>
<linearGradient id="paint4_linear_687_295" x1="918.853" y1="107.163" x2="918.853" y2="166.25" gradientUnits="userSpaceOnUse">
<stop stop-color="white"/>
<stop offset="1" stop-color="#C0C0C0" stop-opacity="0"/>
</linearGradient>
<linearGradient id="paint5_linear_687_295" x1="918.86" y1="335.07" x2="918.86" y2="275.983" gradientUnits="userSpaceOnUse">
<stop stop-color="white"/>
<stop offset="1" stop-color="#C0C0C0" stop-opacity="0"/>
</linearGradient>
<linearGradient id="paint6_linear_687_295" x1="771.498" y1="-159" x2="771.498" y2="119.552" gradientUnits="userSpaceOnUse">
<stop stop-color="#C7C7C7"/>
<stop offset="1" stop-color="#616161"/>
</linearGradient>
<linearGradient id="paint7_linear_687_295" x1="1067.38" y1="-159" x2="1067.38" y2="119.552" gradientUnits="userSpaceOnUse">
<stop stop-color="#C7C7C7"/>
<stop offset="1" stop-color="#616161"/>
</linearGradient>
<linearGradient id="paint8_linear_687_295" x1="923.89" y1="346.749" x2="910.44" y2="373.667" gradientUnits="userSpaceOnUse">
<stop stop-color="#00FFA3"/>
<stop offset="1" stop-color="#DC1FFF"/>
</linearGradient>
<linearGradient id="paint9_linear_687_295" x1="923.89" y1="346.749" x2="910.44" y2="373.667" gradientUnits="userSpaceOnUse">
<stop stop-color="#00FFA3"/>
<stop offset="1" stop-color="#DC1FFF"/>
</linearGradient>
<linearGradient id="paint10_linear_687_295" x1="923.89" y1="346.749" x2="910.44" y2="373.667" gradientUnits="userSpaceOnUse">
<stop stop-color="#00FFA3"/>
<stop offset="1" stop-color="#DC1FFF"/>
</linearGradient>
<clipPath id="clip0_687_295">
<rect width="1212" height="444" rx="30" fill="white"/>
</clipPath>
</defs>
</svg>
