<svg width="1440" height="313" viewBox="0 0 1440 313" fill="none" xmlns="http://www.w3.org/2000/svg">
<g clip-path="url(#clip0_687_438)">
<g filter="url(#filter0_f_687_438)">
<ellipse cx="894.5" cy="78" rx="894.5" ry="78" transform="matrix(0.993721 0.111884 0.111884 -0.993721 -788.975 328.737)" fill="#ADFEB9"/>
</g>
<g filter="url(#filter1_f_687_438)">
<ellipse cx="1331.36" cy="351.307" rx="894.5" ry="78" transform="rotate(173.576 1331.36 351.307)" fill="#ADFEB9"/>
</g>
<path d="M1435.3 302.335C1434.74 302.324 1434.28 302.767 1434.27 303.324C1434.26 303.881 1434.71 304.342 1435.26 304.353C1435.82 304.364 1436.28 303.921 1436.29 303.364C1436.3 302.807 1435.86 302.346 1435.3 302.335Z" fill="#FFFDFF" fill-opacity="0.4"/>
<path d="M1271.99 258.809C1272.55 258.818 1273.01 258.373 1273.02 257.816C1273.02 257.258 1272.58 256.799 1272.02 256.791C1271.47 256.782 1271.01 257.227 1271 257.785C1270.99 258.342 1271.43 258.801 1271.99 258.809Z" fill="#FFFDFF" fill-opacity="0.4"/>
<path d="M1248.24 275.052C1248.8 275.06 1249.26 274.615 1249.27 274.058C1249.28 273.5 1248.83 273.042 1248.28 273.033C1247.72 273.025 1247.26 273.469 1247.25 274.027C1247.24 274.584 1247.69 275.043 1248.24 275.052Z" fill="#FFFDFF" fill-opacity="0.4"/>
<path d="M1392.14 238.887C1391.58 238.876 1391.14 238.415 1391.15 237.858C1391.16 237.301 1391.62 236.858 1392.18 236.869C1392.74 236.88 1393.18 237.34 1393.17 237.898C1393.16 238.455 1392.7 238.898 1392.14 238.887Z" fill="#FFFDFF" fill-opacity="0.4"/>
<path d="M1358.01 294.288C1357.45 294.277 1357.01 293.817 1357.02 293.259C1357.03 292.702 1357.49 292.259 1358.05 292.27C1358.61 292.281 1359.05 292.742 1359.04 293.299C1359.03 293.857 1358.57 294.299 1358.01 294.288Z" fill="#FFFDFF" fill-opacity="0.4"/>
<path d="M1349.32 266.514C1349.88 266.522 1350.32 266.981 1350.31 267.538C1350.3 268.096 1349.85 268.541 1349.29 268.532C1348.73 268.524 1348.29 268.065 1348.29 267.507C1348.3 266.95 1348.76 266.505 1349.32 266.514Z" fill="#FFFDFF" fill-opacity="0.4"/>
<path d="M1397.63 267.263C1397.08 267.252 1396.62 267.695 1396.6 268.253C1396.59 268.81 1397.04 269.271 1397.59 269.282C1398.15 269.293 1398.61 268.85 1398.62 268.293C1398.63 267.735 1398.19 267.275 1397.63 267.263Z" fill="#FFFDFF" fill-opacity="0.4"/>
<path d="M1309.81 293.714C1310.37 293.722 1310.83 293.277 1310.84 292.72C1310.85 292.163 1310.4 291.704 1309.85 291.695C1309.29 291.687 1308.83 292.132 1308.82 292.689C1308.81 293.246 1309.26 293.705 1309.81 293.714Z" fill="#FFFDFF" fill-opacity="0.4"/>
<path d="M1361.91 236.27C1361.35 236.259 1360.89 236.702 1360.88 237.259C1360.87 237.817 1361.31 238.278 1361.87 238.289C1362.42 238.3 1362.88 237.857 1362.9 237.299C1362.91 236.742 1362.46 236.281 1361.91 236.27Z" fill="#FFFDFF" fill-opacity="0.4"/>
<path d="M1283.09 241.264C1283.64 241.273 1284.1 240.828 1284.11 240.271C1284.12 239.713 1283.67 239.255 1283.12 239.246C1282.56 239.237 1282.1 239.682 1282.09 240.24C1282.08 240.797 1282.53 241.256 1283.09 241.264Z" fill="#FFFDFF" fill-opacity="0.4"/>
<path d="M1206.01 264.308C1206.57 264.317 1207.03 263.872 1207.03 263.315C1207.04 262.757 1206.6 262.299 1206.04 262.29C1205.48 262.281 1205.02 262.726 1205.02 263.284C1205.01 263.841 1205.45 264.3 1206.01 264.308Z" fill="#FFFDFF" fill-opacity="0.4"/>
<path d="M1314.59 245.334C1315.15 245.343 1315.6 245.801 1315.59 246.359C1315.58 246.916 1315.12 247.361 1314.56 247.352C1314.01 247.344 1313.56 246.885 1313.57 246.328C1313.58 245.77 1314.04 245.325 1314.59 245.334Z" fill="#FFFDFF" fill-opacity="0.4"/>
<path d="M1391.34 279.252C1390.78 279.241 1390.34 278.78 1390.35 278.223C1390.36 277.666 1390.82 277.223 1391.38 277.234C1391.94 277.245 1392.38 277.706 1392.37 278.263C1392.36 278.82 1391.9 279.263 1391.34 279.252Z" fill="#FFFDFF" fill-opacity="0.4"/>
<path d="M1316.05 281.696C1316.61 281.705 1317.06 282.164 1317.05 282.721C1317.04 283.278 1316.58 283.723 1316.02 283.715C1315.47 283.706 1315.02 283.247 1315.03 282.69C1315.04 282.133 1315.5 281.688 1316.05 281.696Z" fill="#FFFDFF" fill-opacity="0.4"/>
<path d="M1370.11 280.852C1368.99 280.83 1368.07 281.716 1368.05 282.83C1368.03 283.945 1368.91 284.867 1370.03 284.889C1371.14 284.911 1372.06 284.025 1372.09 282.91C1372.11 281.796 1371.22 280.874 1370.11 280.852Z" fill="#FFFDFF" fill-opacity="0.4"/>
<path d="M1337.28 280.002C1338.39 280.02 1339.31 279.13 1339.33 278.015C1339.35 276.9 1338.46 275.983 1337.34 275.966C1336.23 275.948 1335.31 276.838 1335.29 277.953C1335.28 279.068 1336.16 279.985 1337.28 280.002Z" fill="#FFFDFF" fill-opacity="0.4"/>
<path d="M1411.93 273.148C1410.82 273.126 1409.91 273.56 1409.9 274.117C1409.88 274.674 1410.78 275.144 1411.89 275.166C1413.01 275.188 1413.92 274.754 1413.93 274.197C1413.94 273.64 1413.05 273.17 1411.93 273.148Z" fill="#FFFDFF" fill-opacity="0.4"/>
<path d="M1295.49 287.892C1296.6 287.909 1297.51 287.471 1297.52 286.914C1297.53 286.357 1296.63 285.891 1295.52 285.874C1294.41 285.857 1293.49 286.295 1293.49 286.852C1293.48 287.409 1294.37 287.875 1295.49 287.892Z" fill="#FFFDFF" fill-opacity="0.4"/>
<path d="M1429.56 249.421C1429.01 249.41 1428.55 249.853 1428.53 250.41C1428.52 250.967 1428.97 251.428 1429.52 251.439C1430.08 251.45 1430.54 251.007 1430.55 250.45C1430.56 249.893 1430.12 249.432 1429.56 249.421Z" fill="#FFFDFF" fill-opacity="0.4"/>
<path d="M1277.96 311.697C1278.52 311.706 1278.98 311.261 1278.99 310.703C1279 310.146 1278.55 309.687 1277.99 309.679C1277.44 309.67 1276.98 310.115 1276.97 310.672C1276.96 311.23 1277.41 311.688 1277.96 311.697Z" fill="#FFFDFF" fill-opacity="0.4"/>
<path d="M1386.9 262.708C1386.34 262.697 1385.9 262.236 1385.91 261.679C1385.92 261.122 1386.38 260.679 1386.94 260.69C1387.5 260.701 1387.94 261.162 1387.93 261.719C1387.92 262.276 1387.46 262.719 1386.9 262.708Z" fill="#FFFDFF" fill-opacity="0.4"/>
<path d="M1320.57 298.221C1321.12 298.229 1321.57 298.688 1321.56 299.245C1321.55 299.803 1321.09 300.248 1320.54 300.239C1319.98 300.231 1319.53 299.772 1319.54 299.214C1319.55 298.657 1320.01 298.212 1320.57 298.221Z" fill="#FFFDFF" fill-opacity="0.4"/>
<path d="M1341.09 247.759C1340.53 247.75 1340.08 247.291 1340.09 246.734C1340.1 246.177 1340.56 245.732 1341.12 245.74C1341.67 245.749 1342.12 246.208 1342.11 246.765C1342.1 247.322 1341.64 247.767 1341.09 247.759Z" fill="#FFFDFF" fill-opacity="0.4"/>
<path d="M1374.35 270.384C1374.91 270.395 1375.35 270.855 1375.34 271.413C1375.33 271.97 1374.87 272.413 1374.31 272.402C1373.76 272.391 1373.31 271.93 1373.32 271.373C1373.33 270.815 1373.8 270.373 1374.35 270.384Z" fill="#FFFDFF" fill-opacity="0.4"/>
<path d="M1333.08 290.49C1332.52 290.482 1332.08 290.023 1332.09 289.465C1332.1 288.908 1332.56 288.463 1333.11 288.472C1333.67 288.48 1334.12 288.939 1334.11 289.497C1334.1 290.054 1333.64 290.499 1333.08 290.49Z" fill="#FFFDFF" fill-opacity="0.4"/>
<path d="M1405.19 279.53C1405.75 279.541 1406.19 280.002 1406.18 280.559C1406.17 281.116 1405.71 281.559 1405.15 281.548C1404.59 281.537 1404.15 281.077 1404.16 280.519C1404.17 279.962 1404.63 279.519 1405.19 279.53Z" fill="#FFFDFF" fill-opacity="0.4"/>
<path d="M1302.21 281.48C1301.65 281.472 1301.2 281.013 1301.21 280.456C1301.22 279.898 1301.68 279.453 1302.24 279.462C1302.79 279.471 1303.24 279.929 1303.23 280.487C1303.22 281.044 1302.76 281.489 1302.21 281.48Z" fill="#FFFDFF" fill-opacity="0.4"/>
<path d="M1407.98 305.375C1408.54 305.386 1408.98 305.847 1408.97 306.404C1408.96 306.961 1408.5 307.404 1407.94 307.393C1407.39 307.382 1406.94 306.921 1406.96 306.364C1406.97 305.807 1407.43 305.364 1407.98 305.375Z" fill="#FFFDFF" fill-opacity="0.4"/>
<path d="M1299.3 255.648C1298.74 255.64 1298.29 255.181 1298.3 254.624C1298.31 254.066 1298.77 253.621 1299.33 253.63C1299.88 253.639 1300.33 254.097 1300.32 254.655C1300.31 255.212 1299.85 255.657 1299.3 255.648Z" fill="#FFFDFF" fill-opacity="0.4"/>
<path d="M1265.41 311.2C1264.85 311.192 1264.41 310.733 1264.42 310.175C1264.43 309.618 1264.88 309.173 1265.44 309.182C1266 309.19 1266.44 309.649 1266.44 310.206C1266.43 310.764 1265.97 311.209 1265.41 311.2Z" fill="#FFFDFF" fill-opacity="0.4"/>
<path d="M1360.42 260.166C1360.98 260.177 1361.42 260.638 1361.41 261.195C1361.4 261.752 1360.94 262.195 1360.38 262.184C1359.82 262.173 1359.38 261.712 1359.39 261.155C1359.4 260.598 1359.86 260.155 1360.42 260.166Z" fill="#FFFDFF" fill-opacity="0.4"/>
<path d="M1347.06 300.646C1346.5 300.638 1346.06 300.179 1346.06 299.622C1346.07 299.064 1346.53 298.619 1347.09 298.628C1347.65 298.637 1348.09 299.095 1348.08 299.653C1348.07 300.21 1347.62 300.655 1347.06 300.646Z" fill="#FFFDFF" fill-opacity="0.4"/>
<path d="M9.01408 309.336C9.57141 309.325 10.0322 309.768 10.0432 310.325C10.0542 310.882 9.61138 311.343 9.05405 311.354C8.49672 311.365 8.03597 310.922 8.02493 310.365C8.01389 309.808 8.45674 309.347 9.01408 309.336Z" fill="#FFFDFF" fill-opacity="0.4"/>
<path d="M172.326 265.81C171.769 265.819 171.31 265.374 171.302 264.817C171.293 264.259 171.738 263.8 172.295 263.792C172.853 263.783 173.311 264.228 173.32 264.786C173.329 265.343 172.884 265.802 172.326 265.81Z" fill="#FFFDFF" fill-opacity="0.4"/>
<path d="M196.072 282.053C195.515 282.061 195.056 281.616 195.048 281.059C195.039 280.501 195.484 280.043 196.041 280.034C196.599 280.026 197.057 280.47 197.066 281.028C197.075 281.585 196.63 282.044 196.072 282.053Z" fill="#FFFDFF" fill-opacity="0.4"/>
<path d="M52.1761 245.888C52.7334 245.877 53.1763 245.416 53.1652 244.859C53.1542 244.301 52.6934 243.859 52.1361 243.87C51.5788 243.881 51.1359 244.341 51.1469 244.899C51.158 245.456 51.6187 245.899 52.1761 245.888Z" fill="#FFFDFF" fill-opacity="0.4"/>
<path d="M86.3069 301.289C86.8643 301.278 87.3071 300.818 87.2961 300.26C87.285 299.703 86.8243 299.26 86.267 299.271C85.7096 299.282 85.2668 299.743 85.2778 300.3C85.2888 300.857 85.7496 301.3 86.3069 301.289Z" fill="#FFFDFF" fill-opacity="0.4"/>
<path d="M94.9968 273.515C94.4395 273.523 93.9946 273.982 94.0032 274.539C94.0117 275.097 94.4705 275.542 95.0279 275.533C95.5853 275.525 96.0302 275.066 96.0216 274.508C96.013 273.951 95.5542 273.506 94.9968 273.515Z" fill="#FFFDFF" fill-opacity="0.4"/>
<path d="M46.683 274.264C47.2404 274.253 47.7011 274.696 47.7122 275.254C47.7232 275.811 47.2803 276.272 46.723 276.283C46.1657 276.294 45.7049 275.851 45.6939 275.294C45.6828 274.736 46.1257 274.276 46.683 274.264Z" fill="#FFFDFF" fill-opacity="0.4"/>
<path d="M134.503 300.715C133.946 300.723 133.487 300.278 133.478 299.721C133.47 299.164 133.915 298.705 134.472 298.696C135.029 298.688 135.488 299.133 135.497 299.69C135.505 300.247 135.06 300.706 134.503 300.715Z" fill="#FFFDFF" fill-opacity="0.4"/>
<path d="M82.4096 243.271C82.9669 243.26 83.4277 243.703 83.4387 244.26C83.4497 244.818 83.0069 245.279 82.4496 245.29C81.8922 245.301 81.4315 244.858 81.4204 244.3C81.4094 243.743 81.8523 243.282 82.4096 243.271Z" fill="#FFFDFF" fill-opacity="0.4"/>
<path d="M161.232 248.265C160.674 248.274 160.215 247.829 160.207 247.272C160.198 246.714 160.643 246.256 161.2 246.247C161.758 246.238 162.217 246.683 162.225 247.241C162.234 247.798 161.789 248.257 161.232 248.265Z" fill="#FFFDFF" fill-opacity="0.4"/>
<path d="M238.308 271.309C237.751 271.318 237.292 270.873 237.283 270.316C237.275 269.758 237.72 269.299 238.277 269.291C238.834 269.282 239.293 269.727 239.302 270.285C239.31 270.842 238.865 271.301 238.308 271.309Z" fill="#FFFDFF" fill-opacity="0.4"/>
<path d="M129.724 252.335C129.167 252.344 128.722 252.802 128.73 253.36C128.739 253.917 129.198 254.362 129.755 254.353C130.313 254.345 130.757 253.886 130.749 253.329C130.74 252.771 130.282 252.326 129.724 252.335Z" fill="#FFFDFF" fill-opacity="0.4"/>
<path d="M52.9759 286.253C53.5332 286.242 53.9761 285.781 53.965 285.224C53.954 284.667 53.4932 284.224 52.9359 284.235C52.3786 284.246 51.9357 284.707 51.9467 285.264C51.9578 285.821 52.4185 286.264 52.9759 286.253Z" fill="#FFFDFF" fill-opacity="0.4"/>
<path d="M128.263 288.697C127.706 288.706 127.261 289.165 127.27 289.722C127.278 290.279 127.737 290.724 128.294 290.716C128.852 290.707 129.297 290.248 129.288 289.691C129.279 289.134 128.821 288.689 128.263 288.697Z" fill="#FFFDFF" fill-opacity="0.4"/>
<path d="M74.2079 287.853C75.3225 287.831 76.244 288.717 76.2661 289.831C76.2882 290.946 75.4025 291.868 74.2878 291.89C73.1732 291.912 72.2516 291.026 72.2296 289.911C72.2075 288.797 73.0932 287.875 74.2079 287.853Z" fill="#FFFDFF" fill-opacity="0.4"/>
<path d="M107.037 287.003C105.922 287.021 105.004 286.131 104.987 285.016C104.97 283.901 105.86 282.984 106.975 282.967C108.089 282.949 109.007 283.839 109.024 284.954C109.041 286.069 108.152 286.986 107.037 287.003Z" fill="#FFFDFF" fill-opacity="0.4"/>
<path d="M32.3826 280.149C33.4973 280.127 34.4098 280.561 34.4209 281.118C34.4319 281.675 33.5372 282.145 32.4226 282.167C31.3079 282.189 30.3953 281.755 30.3843 281.198C30.3733 280.641 31.2679 280.171 32.3826 280.149Z" fill="#FFFDFF" fill-opacity="0.4"/>
<path d="M148.829 294.893C147.714 294.91 146.803 294.472 146.795 293.915C146.786 293.358 147.683 292.892 148.798 292.875C149.912 292.858 150.823 293.296 150.832 293.853C150.84 294.41 149.944 294.876 148.829 294.893Z" fill="#FFFDFF" fill-opacity="0.4"/>
<path d="M14.7524 256.422C15.3097 256.411 15.7704 256.854 15.7815 257.411C15.7925 257.968 15.3497 258.429 14.7923 258.44C14.235 258.451 13.7743 258.008 13.7632 257.451C13.7522 256.893 14.195 256.433 14.7524 256.422Z" fill="#FFFDFF" fill-opacity="0.4"/>
<path d="M57.4143 269.709C57.9717 269.698 58.4145 269.237 58.4035 268.68C58.3925 268.123 57.9317 267.68 57.3744 267.691C56.817 267.702 56.3742 268.163 56.3852 268.72C56.3963 269.277 56.857 269.72 57.4143 269.709Z" fill="#FFFDFF" fill-opacity="0.4"/>
<path d="M123.751 305.222C123.194 305.23 122.749 305.689 122.758 306.246C122.766 306.804 123.225 307.249 123.783 307.24C124.34 307.232 124.785 306.773 124.776 306.215C124.768 305.658 124.309 305.213 123.751 305.222Z" fill="#FFFDFF" fill-opacity="0.4"/>
<path d="M103.231 254.76C103.788 254.751 104.233 254.292 104.224 253.735C104.216 253.178 103.757 252.733 103.2 252.741C102.642 252.75 102.197 253.209 102.206 253.766C102.215 254.323 102.673 254.768 103.231 254.76Z" fill="#FFFDFF" fill-opacity="0.4"/>
<path d="M69.9636 277.385C69.4062 277.396 68.9634 277.856 68.9744 278.414C68.9855 278.971 69.4462 279.414 70.0036 279.403C70.5609 279.392 71.0037 278.931 70.9927 278.374C70.9817 277.816 70.5209 277.373 69.9636 277.385Z" fill="#FFFDFF" fill-opacity="0.4"/>
<path d="M111.235 297.491C111.792 297.483 112.237 297.024 112.228 296.466C112.22 295.909 111.761 295.464 111.204 295.473C110.646 295.481 110.201 295.94 110.21 296.497C110.218 297.055 110.677 297.5 111.235 297.491Z" fill="#FFFDFF" fill-opacity="0.4"/>
<path d="M39.1286 286.531C38.5713 286.542 38.1284 287.003 38.1395 287.56C38.1505 288.117 38.6113 288.56 39.1686 288.549C39.7259 288.538 40.1688 288.077 40.1577 287.52C40.1467 286.963 39.686 286.52 39.1286 286.531Z" fill="#FFFDFF" fill-opacity="0.4"/>
<path d="M142.111 288.481C142.669 288.473 143.114 288.014 143.105 287.457C143.096 286.899 142.638 286.454 142.08 286.463C141.523 286.472 141.078 286.93 141.087 287.488C141.095 288.045 141.554 288.49 142.111 288.481Z" fill="#FFFDFF" fill-opacity="0.4"/>
<path d="M36.3317 312.376C35.7744 312.387 35.3316 312.848 35.3426 313.405C35.3536 313.962 35.8144 314.405 36.3717 314.394C36.9291 314.383 37.3719 313.922 37.3609 313.365C37.3498 312.808 36.8891 312.365 36.3317 312.376Z" fill="#FFFDFF" fill-opacity="0.4"/>
<path d="M145.022 262.649C145.58 262.641 146.025 262.182 146.016 261.625C146.008 261.067 145.549 260.622 144.991 260.631C144.434 260.64 143.989 261.098 143.998 261.656C144.006 262.213 144.465 262.658 145.022 262.649Z" fill="#FFFDFF" fill-opacity="0.4"/>
<path d="M2.20186 256.974C1.64453 256.985 1.20167 257.446 1.21271 258.003C1.22375 258.561 1.68451 259.004 2.24184 258.993C2.79917 258.982 3.24203 258.521 3.23099 257.964C3.21995 257.406 2.75919 256.963 2.20186 256.974Z" fill="#FFFDFF" fill-opacity="0.4"/>
<path d="M83.8952 267.167C83.3379 267.178 82.895 267.639 82.9061 268.196C82.9171 268.753 83.3779 269.196 83.9352 269.185C84.4925 269.174 84.9354 268.713 84.9243 268.156C84.9133 267.599 84.4526 267.156 83.8952 267.167Z" fill="#FFFDFF" fill-opacity="0.4"/>
<path d="M97.258 307.647C97.8154 307.639 98.2603 307.18 98.2517 306.623C98.2432 306.065 97.7844 305.62 97.227 305.629C96.6696 305.638 96.2247 306.096 96.2333 306.654C96.2419 307.211 96.7007 307.656 97.258 307.647Z" fill="#FFFDFF" fill-opacity="0.4"/>
</g>
<defs>
<filter id="filter0_f_687_438" x="-835.292" y="169.716" width="1887.85" height="363.183" filterUnits="userSpaceOnUse" color-interpolation-filters="sRGB">
<feFlood flood-opacity="0" result="BackgroundImageFix"/>
<feBlend mode="normal" in="SourceGraphic" in2="BackgroundImageFix" result="shape"/>
<feGaussianBlur stdDeviation="27.5" result="effect1_foregroundBlur_687_438"/>
</filter>
<filter id="filter1_f_687_438" x="387.437" y="169.716" width="1887.85" height="363.183" filterUnits="userSpaceOnUse" color-interpolation-filters="sRGB">
<feFlood flood-opacity="0" result="BackgroundImageFix"/>
<feBlend mode="normal" in="SourceGraphic" in2="BackgroundImageFix" result="shape"/>
<feGaussianBlur stdDeviation="27.5" result="effect1_foregroundBlur_687_438"/>
</filter>
<clipPath id="clip0_687_438">
<rect width="1440" height="313" fill="white"/>
</clipPath>
</defs>
</svg>
