<svg width="159" height="36" viewBox="0 0 159 36" fill="none" xmlns="http://www.w3.org/2000/svg">
<g filter="url(#filter0_g_556_1669)">
<path d="M147 18L4 18" stroke="url(#paint0_linear_556_1669)" stroke-width="3.72" stroke-linecap="round"/>
</g>
<g filter="url(#filter1_g_556_1669)">
<path d="M146.413 28.155C146.211 26.9633 145.679 25.68 144.818 24.305C143.956 22.9117 142.728 21.6192 141.133 20.4275C139.556 19.2358 137.979 18.475 136.403 18.145V16.99C137.961 16.6233 139.455 15.945 140.885 14.955C142.333 13.9467 143.543 12.7367 144.515 11.325C145.505 9.87667 146.138 8.44667 146.413 7.035H147.568C147.733 7.95167 148.063 8.89583 148.558 9.8675C149.053 10.8208 149.685 11.7375 150.455 12.6175C151.243 13.4792 152.123 14.2583 153.095 14.955C154.543 15.9817 156.019 16.66 157.523 16.99V18.145C156.514 18.3467 155.469 18.7592 154.388 19.3825C153.324 20.0058 152.334 20.7483 151.418 21.61C150.501 22.4533 149.749 23.3425 149.163 24.2775C148.301 25.6525 147.769 26.945 147.568 28.155H146.413Z" fill="#ADFEB9"/>
</g>
<defs>
<filter id="filter0_g_556_1669" x="0.140137" y="14.14" width="150.72" height="7.71997" filterUnits="userSpaceOnUse" color-interpolation-filters="sRGB">
<feFlood flood-opacity="0" result="BackgroundImageFix"/>
<feBlend mode="normal" in="SourceGraphic" in2="BackgroundImageFix" result="shape"/>
<feTurbulence type="fractalNoise" baseFrequency="1 1" numOctaves="3" seed="6926" />
<feDisplacementMap in="shape" scale="4" xChannelSelector="R" yChannelSelector="G" result="displacedImage" width="100%" height="100%" />
<feMerge result="effect1_texture_556_1669">
<feMergeNode in="displacedImage"/>
</feMerge>
</filter>
<filter id="filter1_g_556_1669" x="135.152" y="5.78503" width="23.6201" height="23.62" filterUnits="userSpaceOnUse" color-interpolation-filters="sRGB">
<feFlood flood-opacity="0" result="BackgroundImageFix"/>
<feBlend mode="normal" in="SourceGraphic" in2="BackgroundImageFix" result="shape"/>
<feTurbulence type="fractalNoise" baseFrequency="1.6000000238418579 1.6000000238418579" numOctaves="3" seed="9558" />
<feDisplacementMap in="shape" scale="2.5" xChannelSelector="R" yChannelSelector="G" result="displacedImage" width="100%" height="100%" />
<feMerge result="effect1_texture_556_1669">
<feMergeNode in="displacedImage"/>
</feMerge>
</filter>
<linearGradient id="paint0_linear_556_1669" x1="147" y1="17.5" x2="4" y2="17.5" gradientUnits="userSpaceOnUse">
<stop stop-color="#ADFEB9"/>
<stop offset="1" stop-color="#ADFEB9" stop-opacity="0"/>
</linearGradient>
</defs>
</svg>
