<svg width="159" height="36" viewBox="0 0 159 36" fill="none" xmlns="http://www.w3.org/2000/svg">
<g filter="url(#filter0_g_556_1674)">
<path d="M12 18L155 18" stroke="url(#paint0_linear_556_1674)" stroke-width="3.72" stroke-linecap="round"/>
</g>
<g filter="url(#filter1_g_556_1674)">
<path d="M12.5875 28.155C12.7892 26.9633 13.3208 25.68 14.1825 24.305C15.0442 22.9117 16.2725 21.6192 17.8675 20.4275C19.4442 19.2358 21.0208 18.475 22.5975 18.145V16.99C21.0392 16.6233 19.545 15.945 18.115 14.955C16.6667 13.9467 15.4567 12.7367 14.485 11.325C13.495 9.87667 12.8625 8.44667 12.5875 7.035H11.4325C11.2675 7.95167 10.9375 8.89583 10.4425 9.8675C9.9475 10.8208 9.315 11.7375 8.545 12.6175C7.75667 13.4792 6.87667 14.2583 5.905 14.955C4.45667 15.9817 2.98083 16.66 1.4775 16.99V18.145C2.48583 18.3467 3.53083 18.7592 4.6125 19.3825C5.67583 20.0058 6.66583 20.7483 7.5825 21.61C8.49917 22.4533 9.25083 23.3425 9.8375 24.2775C10.6992 25.6525 11.2308 26.945 11.4325 28.155H12.5875Z" fill="#ADFEB9"/>
</g>
<defs>
<filter id="filter0_g_556_1674" x="8.14014" y="14.14" width="150.72" height="7.71997" filterUnits="userSpaceOnUse" color-interpolation-filters="sRGB">
<feFlood flood-opacity="0" result="BackgroundImageFix"/>
<feBlend mode="normal" in="SourceGraphic" in2="BackgroundImageFix" result="shape"/>
<feTurbulence type="fractalNoise" baseFrequency="1 1" numOctaves="3" seed="6926" />
<feDisplacementMap in="shape" scale="4" xChannelSelector="R" yChannelSelector="G" result="displacedImage" width="100%" height="100%" />
<feMerge result="effect1_texture_556_1674">
<feMergeNode in="displacedImage"/>
</feMerge>
</filter>
<filter id="filter1_g_556_1674" x="0.227539" y="5.78503" width="23.6201" height="23.62" filterUnits="userSpaceOnUse" color-interpolation-filters="sRGB">
<feFlood flood-opacity="0" result="BackgroundImageFix"/>
<feBlend mode="normal" in="SourceGraphic" in2="BackgroundImageFix" result="shape"/>
<feTurbulence type="fractalNoise" baseFrequency="1.6000000238418579 1.6000000238418579" numOctaves="3" seed="9558" />
<feDisplacementMap in="shape" scale="2.5" xChannelSelector="R" yChannelSelector="G" result="displacedImage" width="100%" height="100%" />
<feMerge result="effect1_texture_556_1674">
<feMergeNode in="displacedImage"/>
</feMerge>
</filter>
<linearGradient id="paint0_linear_556_1674" x1="12" y1="17.5" x2="155" y2="17.5" gradientUnits="userSpaceOnUse">
<stop stop-color="#ADFEB9"/>
<stop offset="1" stop-color="#ADFEB9" stop-opacity="0"/>
</linearGradient>
</defs>
</svg>
