<svg width="100" height="96" viewBox="0 0 100 96" fill="none" xmlns="http://www.w3.org/2000/svg">
<ellipse cx="50.1201" cy="47.937" rx="49.6201" ry="47.437" fill="white"/>
<path d="M55.5004 45.8592L59.3179 39.6663L69.608 54.988L69.6128 57.9284L69.5792 37.6945C69.5549 37.1998 69.2801 36.7472 68.8419 36.4803L50.316 26.2931C49.8829 26.0895 49.3331 26.0919 48.9006 26.2996C48.8421 26.3277 48.7874 26.358 48.7349 26.3913L48.6703 26.4301L30.6879 36.3922L30.6182 36.4228C30.5283 36.4619 30.4378 36.5124 30.3524 36.5705C30.0114 36.8041 29.7849 37.1499 29.7117 37.5374C29.7008 37.5961 29.6925 37.656 29.689 37.7166L29.7171 54.2051L39.3018 40.0033C40.5084 38.1202 43.1376 37.5132 45.5785 37.5465L48.4429 37.6187L31.5646 63.4957L33.5542 64.5907L50.6346 37.645L58.1843 37.6187L41.1481 65.2445L48.2475 69.1485L49.0957 69.6146C49.4546 69.754 49.8775 69.761 50.2392 69.636L69.0255 59.2281L65.4337 61.2178L55.5004 45.8592ZM56.9567 65.9145L49.7863 55.1552L54.1637 48.0541L63.5808 62.2444L56.9567 65.9145Z" fill="#2D374B"/>
<path d="M49.7847 55.1558L56.9554 65.9148L63.5791 62.245L54.162 48.0547L49.7847 55.1558Z" fill="#28A0F0"/>
<path d="M69.6114 57.9291L69.6066 54.9886L59.3166 39.667L55.499 45.8599L65.4327 61.2185L69.0244 59.2287C69.3766 58.9554 69.59 58.5538 69.6124 58.1208L69.6114 57.9291Z" fill="#28A0F0"/>
<path d="M26.4917 60.7022L31.5638 63.4963L48.442 37.6193L45.5776 37.5472C43.1371 37.5141 40.5078 38.1208 39.301 40.0039L29.7162 54.2057L26.4917 58.9421V60.7022V60.7022Z" fill="white"/>
<path d="M58.1838 37.6191L50.6341 37.6454L33.5537 64.5911L39.524 67.8771L41.1473 65.2449L58.1838 37.6191Z" fill="white"/>
<path d="M72.7932 37.5815C72.7302 36.0721 71.8752 34.6906 70.5363 33.886L51.7676 23.5674C50.4431 22.9299 48.7884 22.9289 47.4613 23.5671C47.3046 23.6427 29.2093 33.6757 29.2093 33.6757C28.9588 33.7903 28.7176 33.927 28.4908 34.0824C27.2955 34.9016 26.5669 36.1743 26.4917 37.5723V58.9419L29.7162 54.2055L29.6881 37.7167C29.6919 37.6564 29.6999 37.5968 29.7108 37.5384C29.7837 37.1504 30.0105 36.8045 30.3515 36.5706C30.4369 36.5125 48.8409 26.3278 48.8994 26.2997C49.3322 26.092 49.8817 26.0896 50.3148 26.2932L68.8407 36.4804C69.2789 36.7473 69.5536 37.1999 69.578 37.6947V58.12C69.5556 58.553 69.3764 58.9545 69.0243 59.2278L65.4325 61.2176L63.5792 62.2445L56.9555 65.9143L50.238 69.6357C49.8763 69.7608 49.4531 69.7538 49.0945 69.6143L41.1469 65.2443L39.5233 67.8765L46.6658 71.8078C46.9019 71.9362 47.1123 72.05 47.2851 72.1429C47.5525 72.2863 47.7348 72.382 47.7991 72.412C48.3067 72.6478 49.037 72.7848 49.6952 72.7848C50.2985 72.7848 50.887 72.679 51.4439 72.4704L70.9553 61.6684C72.0751 60.8387 72.734 59.5878 72.7932 58.2328V37.5815Z" fill="#96BEDC"/>
</svg>
