<svg width="100" height="96" viewBox="0 0 100 96" fill="none" xmlns="http://www.w3.org/2000/svg">
<g clip-path="url(#clip0_556_2015)">
<path d="M80.1708 16.4702H18.9375V69.7107H80.1708V16.4702Z" fill="white"/>
<path fill-rule="evenodd" clip-rule="evenodd" d="M99.1414 47.6322C99.1414 73.7964 76.9556 95.0061 49.5873 95.0061C22.2193 95.0061 0.0332031 73.7964 0.0332031 47.6322C0.0332031 21.4683 22.2193 0.258301 49.5873 0.258301C76.9556 0.258301 99.1414 21.4683 99.1414 47.6322ZM35.5451 66.4846H25.928C23.9072 66.4846 22.909 66.4846 22.3004 66.1124C21.643 65.7049 21.2412 65.03 21.1925 64.285C21.156 63.5987 21.6552 62.7605 22.6534 61.0846L46.3991 21.071C47.4095 19.3718 47.9208 18.5222 48.566 18.208C49.2598 17.8705 50.0877 17.8705 50.7816 18.208C51.4268 18.5222 51.9381 19.3718 52.9484 21.071L57.8301 29.2175L57.8549 29.2591C58.9463 31.0819 59.4997 32.0063 59.7413 32.9765C60.0091 34.0356 60.0091 35.1528 59.7413 36.2119C59.4978 37.1895 58.95 38.1205 57.8422 39.971L45.3692 61.0497L45.3369 61.1037C44.2384 62.9416 43.6817 63.8731 42.9101 64.5758C42.0701 65.3441 41.0597 65.9024 39.9519 66.2172C38.9415 66.4846 37.8094 66.4846 35.5451 66.4846ZM59.8314 66.4846H73.6115C75.6445 66.4846 76.6672 66.4846 77.2763 66.1011C77.9335 65.6936 78.3472 65.0066 78.3841 64.2623C78.4191 63.598 77.9308 62.7925 76.9741 61.214C76.9411 61.1603 76.9081 61.1056 76.8744 61.0499L69.9718 49.7612L69.8933 49.6341C68.9233 48.066 68.4337 47.2742 67.8049 46.9681C67.1114 46.6305 66.2952 46.6305 65.6016 46.9681C64.9686 47.2823 64.4573 48.1086 63.4469 49.7728L56.5688 61.0616L56.5453 61.1005C55.5384 62.762 55.0352 63.5924 55.0715 64.2736C55.1202 65.0186 55.5219 65.7049 56.1793 66.1124C56.7758 66.4846 57.7984 66.4846 59.8314 66.4846Z" fill="#E84142"/>
</g>
<defs>
<clipPath id="clip0_556_2015">
<rect width="99.1742" height="94.874" fill="white" transform="translate(0 0.195312)"/>
</clipPath>
</defs>
</svg>
