<svg width="100" height="96" viewBox="0 0 100 96" fill="none" xmlns="http://www.w3.org/2000/svg">
<g clip-path="url(#clip0_685_39)">
<path d="M49.6201 95.0693C77.0245 95.0693 99.2402 73.831 99.2402 47.6323C99.2402 21.4336 77.0245 0.195312 49.6201 0.195312C22.2157 0.195312 0 21.4336 0 47.6323C0 73.831 22.2157 95.0693 49.6201 95.0693Z" fill="#FF0420"/>
<path d="M35.9886 60.9148C32.9957 60.9148 30.5436 60.226 28.6321 58.8486C26.7459 57.4466 25.8027 55.4542 25.8027 52.8716C25.8027 52.3304 25.8657 51.6663 25.9913 50.8792C26.3184 49.1083 26.7836 46.9807 27.3872 44.4963C29.0973 37.7322 33.5113 34.3501 40.6288 34.3501C42.5654 34.3501 44.3007 34.6698 45.8348 35.3095C47.369 35.9242 48.5762 36.8589 49.4564 38.1134C50.3367 39.3433 50.7769 40.8192 50.7769 42.5409C50.7769 43.0574 50.714 43.7092 50.5882 44.4963C50.2111 46.6854 49.7583 48.8131 49.2302 50.8792C48.3499 54.249 46.8284 56.7702 44.6653 58.4428C42.5025 60.0907 39.6102 60.9148 35.9886 60.9148ZM36.5167 55.6019C37.9251 55.6019 39.1198 55.196 40.1007 54.3843C41.1066 53.5727 41.8235 52.3304 42.251 50.6578C42.8294 48.3457 43.2696 46.3289 43.5713 44.6071C43.6719 44.0904 43.7221 43.5616 43.7221 43.0204C43.7221 40.7822 42.5277 39.663 40.1384 39.663C38.73 39.663 37.5228 40.0689 36.5167 40.8807C35.5358 41.6922 34.8316 42.9345 34.4041 44.6071C33.9513 46.2551 33.4986 48.2719 33.0461 50.6578C32.9455 51.1498 32.895 51.6663 32.895 52.2075C32.895 54.4704 34.1022 55.6019 36.5167 55.6019Z" fill="white"/>
<path d="M52.5086 60.5457C52.2319 60.5457 52.0181 60.4596 51.8671 60.2873C51.7414 60.0905 51.7037 59.8693 51.7539 59.6232L56.9601 35.6413C57.0103 35.3707 57.1486 35.1493 57.3751 34.9772C57.6014 34.8049 57.8403 34.7188 58.0918 34.7188H68.1268C70.9184 34.7188 73.1567 35.2846 74.8418 36.416C76.5521 37.5475 77.4071 39.1831 77.4071 41.3231C77.4071 41.9381 77.3317 42.5775 77.1809 43.2417C76.5521 46.0704 75.282 48.1611 73.3704 49.514C71.4843 50.8667 68.8937 51.5431 65.5991 51.5431H60.5061L58.7708 59.6232C58.7206 59.8938 58.5823 60.1152 58.3558 60.2873C58.1295 60.4596 57.8905 60.5457 57.6391 60.5457H52.5086ZM65.8631 46.4516C66.9194 46.4516 67.8374 46.1687 68.6172 45.6031C69.4219 45.0372 69.95 44.2255 70.2017 43.1678C70.2771 42.7498 70.3148 42.3808 70.3148 42.061C70.3148 41.3478 70.1011 40.8066 69.6735 40.4376C69.2458 40.044 68.5166 39.8473 67.4853 39.8473H62.9584L61.5247 46.4516H65.8631Z" fill="white"/>
</g>
<defs>
<clipPath id="clip0_685_39">
<rect width="99.2402" height="94.874" fill="white" transform="translate(0 0.195312)"/>
</clipPath>
</defs>
</svg>
