<svg width="100" height="95" viewBox="0 0 100 95" fill="none" xmlns="http://www.w3.org/2000/svg">
<ellipse cx="50.3603" cy="47.437" rx="49.6201" ry="47.437" fill="white"/>
<g clip-path="url(#clip0_556_2024)">
<path d="M65.8244 37.721C64.7382 37.1277 63.3416 37.1277 62.1002 37.721L53.4106 42.6165L47.514 45.7317L38.9795 50.6271C37.8933 51.2205 36.4967 51.2205 35.2553 50.6271L28.5829 46.7701C27.4967 46.1768 26.7208 44.99 26.7208 43.6549V36.2376C26.7208 35.0508 27.3415 33.864 28.5829 33.1223L35.2553 29.4137C36.3415 28.8203 37.7381 28.8203 38.9795 29.4137L45.6519 33.2707C46.7381 33.864 47.514 35.0508 47.514 36.3859V41.2813L53.4106 38.0177V32.974C53.4106 31.7872 52.7899 30.6004 51.5485 29.8587L39.1346 22.8864C38.0484 22.2931 36.6519 22.2931 35.4105 22.8864L22.6863 30.0071C21.4449 30.6004 20.8242 31.7872 20.8242 32.974V46.9185C20.8242 48.1053 21.4449 49.292 22.6863 50.0338L35.2553 57.006C36.3415 57.5994 37.7381 57.5994 38.9795 57.006L47.514 52.2589L53.4106 48.9953L61.9451 44.2483C63.0313 43.6549 64.4278 43.6549 65.6692 44.2483L72.3417 47.9569C73.4279 48.5503 74.2037 49.7371 74.2037 51.0722V58.4895C74.2037 59.6762 73.583 60.863 72.3417 61.6047L65.8244 65.3134C64.7382 65.9068 63.3416 65.9068 62.1002 65.3134L55.4278 61.6047C54.3416 61.0114 53.5657 59.8246 53.5657 58.4895V53.7424L47.6692 57.006V61.9014C47.6692 63.0882 48.2898 64.275 49.5312 65.0167L62.1002 71.989C63.1865 72.5823 64.583 72.5823 65.8244 71.989L78.3934 65.0167C79.4796 64.4233 80.2555 63.2366 80.2555 61.9014V47.8086C80.2555 46.6218 79.6348 45.435 78.3934 44.6933L65.8244 37.721Z" fill="#8247E5"/>
</g>
<defs>
<clipPath id="clip0_556_2024">
<rect width="59.5864" height="49.6959" fill="white" transform="translate(20.8242 22.5889)"/>
</clipPath>
</defs>
</svg>
