<svg width="100" height="96" viewBox="0 0 100 96" fill="none" xmlns="http://www.w3.org/2000/svg">
<ellipse cx="49.6201" cy="48.311" rx="49.6201" ry="47.437" fill="black"/>
<g clip-path="url(#clip0_556_2027)">
<path d="M74.1747 60.9292L65.9834 69.2015C65.8053 69.3812 65.5898 69.5245 65.3504 69.6224C65.111 69.7204 64.8528 69.7708 64.5918 69.7707H25.761C25.5757 69.7707 25.3945 69.7197 25.2395 69.6241C25.0846 69.5284 24.9627 69.3922 24.8889 69.2321C24.815 69.0721 24.7924 68.8953 24.8238 68.7233C24.8553 68.5514 24.9393 68.3918 25.0657 68.2643L33.2632 59.9919C33.4408 59.8127 33.6556 59.6697 33.8942 59.5718C34.1328 59.4739 34.3903 59.4232 34.6506 59.4228H73.4792C73.6645 59.4228 73.8457 59.4738 74.0008 59.5694C74.1555 59.6651 74.2774 59.8013 74.3516 59.9613C74.4253 60.1213 74.4479 60.2981 74.4164 60.4701C74.385 60.6421 74.301 60.8016 74.1747 60.9292ZM65.9834 44.271C65.8053 44.0913 65.5898 43.948 65.3504 43.8501C65.111 43.7522 64.8528 43.7017 64.5918 43.7019H25.761C25.5757 43.7019 25.3945 43.7528 25.2395 43.8485C25.0846 43.9442 24.9627 44.0804 24.8889 44.2404C24.815 44.4004 24.7924 44.5773 24.8238 44.7492C24.8553 44.9211 24.9393 45.0807 25.0657 45.2083L33.2632 53.4807C33.4408 53.6599 33.6556 53.8028 33.8942 53.9008C34.1328 53.9986 34.3903 54.0494 34.6506 54.0498H73.4792C73.6645 54.0498 73.8457 53.9988 74.0008 53.9031C74.1555 53.8074 74.2774 53.6712 74.3516 53.5113C74.4253 53.3512 74.4479 53.1744 74.4164 53.0024C74.385 52.8305 74.301 52.671 74.1747 52.5434L65.9834 44.271ZM25.761 38.3289H64.5918C64.8528 38.329 65.111 38.2786 65.3504 38.1806C65.5898 38.0827 65.8053 37.9395 65.9834 37.7598L74.1747 29.4874C74.301 29.3598 74.385 29.2003 74.4164 29.0283C74.4479 28.8564 74.4253 28.6795 74.3516 28.5195C74.2774 28.3595 74.1555 28.2233 74.0008 28.1276C73.8457 28.0319 73.6645 27.981 73.4792 27.981H34.6506C34.3903 27.9814 34.1328 28.0321 33.8942 28.13C33.6556 28.2279 33.4408 28.3709 33.2632 28.5501L25.0678 36.8225C24.9416 36.9499 24.8575 37.1093 24.826 37.281C24.7945 37.4528 24.817 37.6295 24.8906 37.7894C24.9642 37.9494 25.0857 38.0856 25.2403 38.1814C25.395 38.2772 25.5759 38.3285 25.761 38.3289Z" fill="url(#paint0_linear_556_2027)"/>
</g>
<defs>
<linearGradient id="paint0_linear_556_2027" x1="28.9986" y1="70.7667" x2="67.0023" y2="25.2713" gradientUnits="userSpaceOnUse">
<stop offset="0.08" stop-color="#9945FF"/>
<stop offset="0.3" stop-color="#8752F3"/>
<stop offset="0.5" stop-color="#5497D5"/>
<stop offset="0.6" stop-color="#43B4CA"/>
<stop offset="0.72" stop-color="#28E0B9"/>
<stop offset="0.97" stop-color="#19FB9B"/>
</linearGradient>
<clipPath id="clip0_556_2027">
<rect width="49.6201" height="41.7897" fill="white" transform="translate(24.8101 27.981)"/>
</clipPath>
</defs>
</svg>
