<svg width="528" height="278" viewBox="0 0 528 278" fill="none" xmlns="http://www.w3.org/2000/svg">
<path d="M224 20C224 14.4772 228.477 10 234 10H508C513.523 10 518 14.4772 518 20V80H234C228.477 80 224 75.5228 224 70V20Z" fill="#131313" fill-opacity="0.3"/>
<path d="M234 10.25H508C513.385 10.25 517.75 14.6152 517.75 20V79.75H234C228.615 79.75 224.25 75.3848 224.25 70V20C224.25 14.7836 228.347 10.5239 233.498 10.2627L234 10.25Z" stroke="white" stroke-opacity="0.15" stroke-width="0.5"/>
<path d="M246.647 29.46L246.413 25.41H247.889L247.673 29.46H246.647ZM243.911 29.46L243.695 25.41H245.171L244.973 29.46H243.911ZM250.003 39V26.4H254.071C255.055 26.4 255.859 26.568 256.483 26.904C257.107 27.228 257.569 27.666 257.869 28.218C258.169 28.77 258.319 29.394 258.319 30.09C258.319 30.762 258.163 31.38 257.851 31.944C257.551 32.508 257.083 32.958 256.447 33.294C255.811 33.63 254.995 33.798 253.999 33.798H251.515V39H250.003ZM256.663 39L253.891 33.366H255.583L258.445 39H256.663ZM251.515 32.61H253.963C254.923 32.61 255.625 32.376 256.069 31.908C256.525 31.44 256.753 30.84 256.753 30.108C256.753 29.364 256.531 28.776 256.087 28.344C255.655 27.9 254.941 27.678 253.945 27.678H251.515V32.61ZM264.032 39.216C263.192 39.216 262.448 39.012 261.8 38.604C261.152 38.196 260.642 37.62 260.27 36.876C259.91 36.132 259.73 35.262 259.73 34.266C259.73 33.27 259.91 32.4 260.27 31.656C260.642 30.912 261.152 30.336 261.8 29.928C262.46 29.52 263.216 29.316 264.068 29.316C264.98 29.316 265.742 29.52 266.354 29.928C266.966 30.336 267.428 30.882 267.74 31.566C268.052 32.25 268.208 33 268.208 33.816C268.208 33.936 268.208 34.056 268.208 34.176C268.208 34.296 268.202 34.44 268.19 34.608H260.864V33.438H266.732C266.708 32.514 266.438 31.812 265.922 31.332C265.418 30.84 264.788 30.594 264.032 30.594C263.528 30.594 263.06 30.72 262.628 30.972C262.208 31.212 261.866 31.572 261.602 32.052C261.338 32.532 261.206 33.132 261.206 33.852V34.356C261.206 35.148 261.338 35.814 261.602 36.354C261.866 36.882 262.208 37.278 262.628 37.542C263.06 37.806 263.528 37.938 264.032 37.938C264.704 37.938 265.232 37.812 265.616 37.56C266 37.296 266.282 36.924 266.462 36.444H267.956C267.812 36.972 267.56 37.446 267.2 37.866C266.852 38.286 266.408 38.616 265.868 38.856C265.34 39.096 264.728 39.216 264.032 39.216ZM275.019 39.216C274.443 39.216 273.945 39.132 273.525 38.964C273.117 38.784 272.769 38.562 272.481 38.298C272.205 38.034 271.977 37.776 271.797 37.524L271.671 39H270.303V26.04H271.815V31.026C272.103 30.462 272.529 30.036 273.093 29.748C273.657 29.46 274.287 29.316 274.983 29.316C275.847 29.316 276.603 29.526 277.251 29.946C277.899 30.366 278.403 30.948 278.763 31.692C279.123 32.424 279.303 33.27 279.303 34.23C279.303 35.178 279.123 36.03 278.763 36.786C278.403 37.542 277.899 38.136 277.251 38.568C276.615 39 275.871 39.216 275.019 39.216ZM274.821 37.902C275.385 37.902 275.883 37.758 276.315 37.47C276.759 37.17 277.107 36.75 277.359 36.21C277.623 35.658 277.755 35.01 277.755 34.266C277.755 33.522 277.623 32.88 277.359 32.34C277.107 31.788 276.759 31.368 276.315 31.08C275.883 30.78 275.385 30.63 274.821 30.63C274.221 30.63 273.699 30.78 273.255 31.08C272.811 31.368 272.469 31.788 272.229 32.34C271.989 32.88 271.869 33.522 271.869 34.266C271.869 35.01 271.989 35.658 272.229 36.21C272.469 36.75 272.811 37.17 273.255 37.47C273.699 37.758 274.221 37.902 274.821 37.902ZM284.453 39.216C283.733 39.216 283.133 39.084 282.653 38.82C282.173 38.544 281.813 38.184 281.573 37.74C281.333 37.284 281.213 36.798 281.213 36.282C281.213 35.658 281.369 35.13 281.681 34.698C282.005 34.254 282.455 33.918 283.031 33.69C283.607 33.462 284.279 33.348 285.047 33.348H287.405C287.405 32.736 287.333 32.226 287.189 31.818C287.045 31.41 286.811 31.104 286.487 30.9C286.163 30.696 285.731 30.594 285.191 30.594C284.651 30.594 284.189 30.732 283.805 31.008C283.421 31.272 283.181 31.668 283.085 32.196H281.537C281.609 31.572 281.819 31.05 282.167 30.63C282.515 30.198 282.953 29.874 283.481 29.658C284.021 29.43 284.591 29.316 285.191 29.316C286.043 29.316 286.745 29.472 287.297 29.784C287.849 30.084 288.257 30.51 288.521 31.062C288.785 31.602 288.917 32.244 288.917 32.988V39H287.567L287.477 37.38C287.357 37.632 287.201 37.872 287.009 38.1C286.829 38.316 286.613 38.508 286.361 38.676C286.109 38.844 285.821 38.976 285.497 39.072C285.185 39.168 284.837 39.216 284.453 39.216ZM284.669 37.938C285.065 37.938 285.431 37.848 285.767 37.668C286.103 37.488 286.391 37.248 286.631 36.948C286.883 36.636 287.075 36.288 287.207 35.904C287.339 35.52 287.405 35.118 287.405 34.698V34.518H285.173C284.609 34.518 284.147 34.59 283.787 34.734C283.439 34.878 283.187 35.082 283.031 35.346C282.875 35.598 282.797 35.886 282.797 36.21C282.797 36.558 282.869 36.864 283.013 37.128C283.157 37.38 283.367 37.578 283.643 37.722C283.931 37.866 284.273 37.938 284.669 37.938ZM291.415 39V26.04H292.927V39H291.415ZM298.427 39.216C297.707 39.216 297.107 39.084 296.627 38.82C296.147 38.544 295.787 38.184 295.547 37.74C295.307 37.284 295.187 36.798 295.187 36.282C295.187 35.658 295.343 35.13 295.655 34.698C295.979 34.254 296.429 33.918 297.005 33.69C297.581 33.462 298.253 33.348 299.021 33.348H301.379C301.379 32.736 301.307 32.226 301.163 31.818C301.019 31.41 300.785 31.104 300.461 30.9C300.137 30.696 299.705 30.594 299.165 30.594C298.625 30.594 298.163 30.732 297.779 31.008C297.395 31.272 297.155 31.668 297.059 32.196H295.511C295.583 31.572 295.793 31.05 296.141 30.63C296.489 30.198 296.927 29.874 297.455 29.658C297.995 29.43 298.565 29.316 299.165 29.316C300.017 29.316 300.719 29.472 301.271 29.784C301.823 30.084 302.231 30.51 302.495 31.062C302.759 31.602 302.891 32.244 302.891 32.988V39H301.541L301.451 37.38C301.331 37.632 301.175 37.872 300.983 38.1C300.803 38.316 300.587 38.508 300.335 38.676C300.083 38.844 299.795 38.976 299.471 39.072C299.159 39.168 298.811 39.216 298.427 39.216ZM298.643 37.938C299.039 37.938 299.405 37.848 299.741 37.668C300.077 37.488 300.365 37.248 300.605 36.948C300.857 36.636 301.049 36.288 301.181 35.904C301.313 35.52 301.379 35.118 301.379 34.698V34.518H299.147C298.583 34.518 298.121 34.59 297.761 34.734C297.413 34.878 297.161 35.082 297.005 35.346C296.849 35.598 296.771 35.886 296.771 36.21C296.771 36.558 296.843 36.864 296.987 37.128C297.131 37.38 297.341 37.578 297.617 37.722C297.905 37.866 298.247 37.938 298.643 37.938ZM305.389 39V29.532H306.757L306.829 31.026C307.105 30.486 307.501 30.066 308.017 29.766C308.545 29.466 309.151 29.316 309.835 29.316C310.531 29.316 311.137 29.448 311.653 29.712C312.169 29.976 312.571 30.378 312.859 30.918C313.147 31.458 313.291 32.142 313.291 32.97V39H311.779V33.132C311.779 32.292 311.569 31.662 311.149 31.242C310.741 30.822 310.189 30.612 309.493 30.612C309.025 30.612 308.593 30.726 308.197 30.954C307.801 31.17 307.483 31.494 307.243 31.926C307.015 32.358 306.901 32.886 306.901 33.51V39H305.389ZM319.882 39.216C319.018 39.216 318.25 39.012 317.578 38.604C316.906 38.184 316.378 37.602 315.994 36.858C315.61 36.114 315.418 35.25 315.418 34.266C315.418 33.27 315.61 32.406 315.994 31.674C316.378 30.93 316.906 30.354 317.578 29.946C318.25 29.526 319.018 29.316 319.882 29.316C320.962 29.316 321.862 29.604 322.582 30.18C323.314 30.756 323.782 31.53 323.986 32.502H322.438C322.306 31.902 322 31.44 321.52 31.116C321.052 30.78 320.5 30.612 319.864 30.612C319.312 30.612 318.814 30.75 318.37 31.026C317.938 31.302 317.596 31.71 317.344 32.25C317.092 32.79 316.966 33.462 316.966 34.266C316.966 34.866 317.038 35.4 317.182 35.868C317.326 36.324 317.524 36.708 317.776 37.02C318.04 37.32 318.346 37.548 318.694 37.704C319.054 37.86 319.444 37.938 319.864 37.938C320.296 37.938 320.686 37.866 321.034 37.722C321.394 37.566 321.694 37.344 321.934 37.056C322.186 36.768 322.354 36.426 322.438 36.03H323.986C323.794 36.978 323.326 37.746 322.582 38.334C321.85 38.922 320.95 39.216 319.882 39.216ZM330.108 39.216C329.268 39.216 328.524 39.012 327.876 38.604C327.228 38.196 326.718 37.62 326.346 36.876C325.986 36.132 325.806 35.262 325.806 34.266C325.806 33.27 325.986 32.4 326.346 31.656C326.718 30.912 327.228 30.336 327.876 29.928C328.536 29.52 329.292 29.316 330.144 29.316C331.056 29.316 331.818 29.52 332.43 29.928C333.042 30.336 333.504 30.882 333.816 31.566C334.128 32.25 334.284 33 334.284 33.816C334.284 33.936 334.284 34.056 334.284 34.176C334.284 34.296 334.278 34.44 334.266 34.608H326.94V33.438H332.808C332.784 32.514 332.514 31.812 331.998 31.332C331.494 30.84 330.864 30.594 330.108 30.594C329.604 30.594 329.136 30.72 328.704 30.972C328.284 31.212 327.942 31.572 327.678 32.052C327.414 32.532 327.282 33.132 327.282 33.852V34.356C327.282 35.148 327.414 35.814 327.678 36.354C327.942 36.882 328.284 37.278 328.704 37.542C329.136 37.806 329.604 37.938 330.108 37.938C330.78 37.938 331.308 37.812 331.692 37.56C332.076 37.296 332.358 36.924 332.538 36.444H334.032C333.888 36.972 333.636 37.446 333.276 37.866C332.928 38.286 332.484 38.616 331.944 38.856C331.416 39.096 330.804 39.216 330.108 39.216ZM341.214 39V29.532H342.582L342.654 30.828C342.942 30.36 343.332 29.994 343.824 29.73C344.316 29.454 344.832 29.316 345.372 29.316C345.828 29.316 346.236 29.382 346.596 29.514C346.968 29.634 347.292 29.826 347.568 30.09C347.844 30.342 348.066 30.66 348.234 31.044C348.546 30.48 348.966 30.054 349.494 29.766C350.034 29.466 350.598 29.316 351.186 29.316C351.882 29.316 352.476 29.454 352.968 29.73C353.472 29.994 353.856 30.402 354.12 30.954C354.396 31.494 354.534 32.172 354.534 32.988V39H353.04V33.15C353.04 32.298 352.854 31.662 352.482 31.242C352.11 30.822 351.606 30.612 350.97 30.612C350.538 30.612 350.142 30.726 349.782 30.954C349.434 31.182 349.152 31.518 348.936 31.962C348.732 32.406 348.63 32.946 348.63 33.582V39H347.118V33.15C347.118 32.298 346.932 31.662 346.56 31.242C346.188 30.822 345.69 30.612 345.066 30.612C344.646 30.612 344.256 30.726 343.896 30.954C343.548 31.182 343.266 31.518 343.05 31.962C342.834 32.406 342.726 32.946 342.726 33.582V39H341.214ZM357.832 42.96L359.974 37.992H359.452L355.906 29.532H357.544L360.478 36.822L363.538 29.532H365.104L359.398 42.96H357.832ZM371.624 42.96V29.532H372.992L373.118 31.008C373.31 30.696 373.55 30.414 373.838 30.162C374.138 29.91 374.492 29.706 374.9 29.55C375.32 29.394 375.8 29.316 376.34 29.316C377.192 29.316 377.936 29.532 378.572 29.964C379.22 30.396 379.724 30.984 380.084 31.728C380.444 32.472 380.624 33.324 380.624 34.284C380.624 35.232 380.444 36.078 380.084 36.822C379.724 37.566 379.22 38.154 378.572 38.586C377.924 39.006 377.174 39.216 376.322 39.216C375.59 39.216 374.948 39.066 374.396 38.766C373.844 38.466 373.424 38.046 373.136 37.506V42.96H371.624ZM376.142 37.902C376.706 37.902 377.204 37.758 377.636 37.47C378.08 37.17 378.428 36.75 378.68 36.21C378.944 35.658 379.076 35.01 379.076 34.266C379.076 33.522 378.944 32.88 378.68 32.34C378.428 31.788 378.08 31.368 377.636 31.08C377.204 30.78 376.706 30.63 376.142 30.63C375.542 30.63 375.02 30.78 374.576 31.08C374.132 31.368 373.79 31.788 373.55 32.34C373.31 32.88 373.19 33.522 373.19 34.266C373.19 35.01 373.31 35.658 373.55 36.21C373.79 36.75 374.132 37.17 374.576 37.47C375.02 37.758 375.542 37.902 376.142 37.902ZM386.889 39.216C386.013 39.216 385.239 39.012 384.567 38.604C383.895 38.196 383.373 37.62 383.001 36.876C382.629 36.132 382.443 35.262 382.443 34.266C382.443 33.258 382.629 32.388 383.001 31.656C383.385 30.912 383.913 30.336 384.585 29.928C385.269 29.52 386.049 29.316 386.925 29.316C387.813 29.316 388.587 29.52 389.247 29.928C389.919 30.336 390.441 30.912 390.813 31.656C391.185 32.388 391.371 33.258 391.371 34.266C391.371 35.262 391.179 36.132 390.795 36.876C390.423 37.62 389.901 38.196 389.229 38.604C388.557 39.012 387.777 39.216 386.889 39.216ZM386.889 37.92C387.441 37.92 387.939 37.788 388.383 37.524C388.827 37.248 389.175 36.84 389.427 36.3C389.691 35.748 389.823 35.07 389.823 34.266C389.823 33.45 389.697 32.772 389.445 32.232C389.193 31.692 388.845 31.29 388.401 31.026C387.969 30.75 387.477 30.612 386.925 30.612C386.385 30.612 385.893 30.75 385.449 31.026C385.005 31.29 384.651 31.692 384.387 32.232C384.123 32.772 383.991 33.45 383.991 34.266C383.991 35.07 384.117 35.748 384.369 36.3C384.633 36.84 384.981 37.248 385.413 37.524C385.857 37.788 386.349 37.92 386.889 37.92ZM393.561 39V29.532H394.929L395.037 31.26C395.253 30.828 395.535 30.468 395.883 30.18C396.231 29.892 396.651 29.676 397.143 29.532C397.647 29.388 398.211 29.316 398.835 29.316V30.9H397.899C397.539 30.9 397.191 30.948 396.855 31.044C396.519 31.14 396.213 31.296 395.937 31.512C395.673 31.728 395.463 32.022 395.307 32.394C395.151 32.766 395.073 33.234 395.073 33.798V39H393.561ZM404.247 39C403.707 39 403.239 38.916 402.843 38.748C402.447 38.58 402.141 38.298 401.925 37.902C401.721 37.494 401.619 36.948 401.619 36.264V30.81H399.963V29.532H401.619L401.817 27.174H403.131V29.532H405.813V30.81H403.131V36.264C403.131 36.828 403.245 37.212 403.473 37.416C403.701 37.608 404.103 37.704 404.679 37.704H405.777V39H404.247ZM408.481 39V28.524C408.481 27.948 408.577 27.48 408.769 27.12C408.961 26.748 409.243 26.478 409.615 26.31C409.999 26.13 410.467 26.04 411.019 26.04H412.405V27.336H411.271C410.815 27.336 410.485 27.432 410.281 27.624C410.089 27.804 409.993 28.122 409.993 28.578V39H408.481ZM407.005 30.81V29.532H412.513V30.81H407.005ZM418.108 39.216C417.232 39.216 416.458 39.012 415.786 38.604C415.114 38.196 414.592 37.62 414.22 36.876C413.848 36.132 413.662 35.262 413.662 34.266C413.662 33.258 413.848 32.388 414.22 31.656C414.604 30.912 415.132 30.336 415.804 29.928C416.488 29.52 417.268 29.316 418.144 29.316C419.032 29.316 419.806 29.52 420.466 29.928C421.138 30.336 421.66 30.912 422.032 31.656C422.404 32.388 422.59 33.258 422.59 34.266C422.59 35.262 422.398 36.132 422.014 36.876C421.642 37.62 421.12 38.196 420.448 38.604C419.776 39.012 418.996 39.216 418.108 39.216ZM418.108 37.92C418.66 37.92 419.158 37.788 419.602 37.524C420.046 37.248 420.394 36.84 420.646 36.3C420.91 35.748 421.042 35.07 421.042 34.266C421.042 33.45 420.916 32.772 420.664 32.232C420.412 31.692 420.064 31.29 419.62 31.026C419.188 30.75 418.696 30.612 418.144 30.612C417.604 30.612 417.112 30.75 416.668 31.026C416.224 31.29 415.87 31.692 415.606 32.232C415.342 32.772 415.21 33.45 415.21 34.266C415.21 35.07 415.336 35.748 415.588 36.3C415.852 36.84 416.2 37.248 416.632 37.524C417.076 37.788 417.568 37.92 418.108 37.92ZM424.78 39V26.04H426.292V39H424.78ZM428.985 39V29.532H430.497V39H428.985ZM429.741 27.732C429.441 27.732 429.189 27.636 428.985 27.444C428.793 27.24 428.697 26.988 428.697 26.688C428.697 26.388 428.793 26.148 428.985 25.968C429.189 25.776 429.441 25.68 429.741 25.68C430.029 25.68 430.275 25.776 430.479 25.968C430.683 26.148 430.785 26.388 430.785 26.688C430.785 26.988 430.683 27.24 430.479 27.444C430.275 27.636 430.029 27.732 429.741 27.732ZM437.25 39.216C436.374 39.216 435.6 39.012 434.928 38.604C434.256 38.196 433.734 37.62 433.362 36.876C432.99 36.132 432.804 35.262 432.804 34.266C432.804 33.258 432.99 32.388 433.362 31.656C433.746 30.912 434.274 30.336 434.946 29.928C435.63 29.52 436.41 29.316 437.286 29.316C438.174 29.316 438.948 29.52 439.608 29.928C440.28 30.336 440.802 30.912 441.174 31.656C441.546 32.388 441.732 33.258 441.732 34.266C441.732 35.262 441.54 36.132 441.156 36.876C440.784 37.62 440.262 38.196 439.59 38.604C438.918 39.012 438.138 39.216 437.25 39.216ZM437.25 37.92C437.802 37.92 438.3 37.788 438.744 37.524C439.188 37.248 439.536 36.84 439.788 36.3C440.052 35.748 440.184 35.07 440.184 34.266C440.184 33.45 440.058 32.772 439.806 32.232C439.554 31.692 439.206 31.29 438.762 31.026C438.33 30.75 437.838 30.612 437.286 30.612C436.746 30.612 436.254 30.75 435.81 31.026C435.366 31.29 435.012 31.692 434.748 32.232C434.484 32.772 434.352 33.45 434.352 34.266C434.352 35.07 434.478 35.748 434.73 36.3C434.994 36.84 435.342 37.248 435.774 37.524C436.218 37.788 436.71 37.92 437.25 37.92ZM452.429 39C451.889 39 451.421 38.916 451.025 38.748C450.629 38.58 450.323 38.298 450.107 37.902C449.903 37.494 449.801 36.948 449.801 36.264V30.81H448.145V29.532H449.801L449.999 27.174H451.313V29.532H453.995V30.81H451.313V36.264C451.313 36.828 451.427 37.212 451.655 37.416C451.883 37.608 452.285 37.704 452.861 37.704H453.959V39H452.429ZM459.891 39.216C459.015 39.216 458.241 39.012 457.569 38.604C456.897 38.196 456.375 37.62 456.003 36.876C455.631 36.132 455.445 35.262 455.445 34.266C455.445 33.258 455.631 32.388 456.003 31.656C456.387 30.912 456.915 30.336 457.587 29.928C458.271 29.52 459.051 29.316 459.927 29.316C460.815 29.316 461.589 29.52 462.249 29.928C462.921 30.336 463.443 30.912 463.815 31.656C464.187 32.388 464.373 33.258 464.373 34.266C464.373 35.262 464.181 36.132 463.797 36.876C463.425 37.62 462.903 38.196 462.231 38.604C461.559 39.012 460.779 39.216 459.891 39.216ZM459.891 37.92C460.443 37.92 460.941 37.788 461.385 37.524C461.829 37.248 462.177 36.84 462.429 36.3C462.693 35.748 462.825 35.07 462.825 34.266C462.825 33.45 462.699 32.772 462.447 32.232C462.195 31.692 461.847 31.29 461.403 31.026C460.971 30.75 460.479 30.612 459.927 30.612C459.387 30.612 458.895 30.75 458.451 31.026C458.007 31.29 457.653 31.692 457.389 32.232C457.125 32.772 456.993 33.45 456.993 34.266C456.993 35.07 457.119 35.748 457.371 36.3C457.635 36.84 457.983 37.248 458.415 37.524C458.859 37.788 459.351 37.92 459.891 37.92ZM475.969 39.216C475.069 39.216 474.307 39.048 473.683 38.712C473.071 38.376 472.579 37.926 472.207 37.362C471.847 36.786 471.583 36.138 471.415 35.418C471.247 34.698 471.163 33.96 471.163 33.204C471.163 31.812 471.349 30.594 471.721 29.55C472.105 28.494 472.657 27.672 473.377 27.084C474.097 26.484 474.967 26.184 475.987 26.184C476.779 26.184 477.457 26.334 478.021 26.634C478.597 26.934 479.053 27.336 479.389 27.84C479.725 28.332 479.929 28.884 480.001 29.496H478.597C478.477 28.86 478.183 28.368 477.715 28.02C477.259 27.672 476.677 27.498 475.969 27.498C475.333 27.498 474.763 27.696 474.259 28.092C473.767 28.488 473.377 29.088 473.089 29.892C472.801 30.684 472.639 31.698 472.603 32.934C472.603 32.958 472.603 32.982 472.603 33.006C472.603 33.03 472.603 33.054 472.603 33.078C472.771 32.694 473.023 32.34 473.359 32.016C473.695 31.692 474.103 31.434 474.583 31.242C475.063 31.038 475.591 30.936 476.167 30.936C476.875 30.936 477.529 31.104 478.129 31.44C478.741 31.776 479.233 32.25 479.605 32.862C479.977 33.462 480.163 34.17 480.163 34.986C480.163 35.694 479.989 36.372 479.641 37.02C479.305 37.668 478.825 38.196 478.201 38.604C477.577 39.012 476.833 39.216 475.969 39.216ZM475.861 37.884C476.389 37.884 476.857 37.764 477.265 37.524C477.685 37.284 478.015 36.954 478.255 36.534C478.507 36.102 478.633 35.61 478.633 35.058C478.633 34.494 478.507 34.002 478.255 33.582C478.015 33.162 477.685 32.838 477.265 32.61C476.857 32.37 476.389 32.25 475.861 32.25C475.321 32.25 474.835 32.376 474.403 32.628C473.971 32.868 473.629 33.204 473.377 33.636C473.125 34.056 472.999 34.536 472.999 35.076C472.999 35.628 473.125 36.12 473.377 36.552C473.629 36.972 473.971 37.302 474.403 37.542C474.835 37.77 475.321 37.884 475.861 37.884ZM487.274 39.216C486.23 39.216 485.33 38.946 484.574 38.406C483.83 37.854 483.254 37.092 482.846 36.12C482.438 35.136 482.234 33.996 482.234 32.7C482.234 31.404 482.438 30.27 482.846 29.298C483.254 28.314 483.83 27.552 484.574 27.012C485.33 26.46 486.23 26.184 487.274 26.184C488.318 26.184 489.212 26.46 489.956 27.012C490.7 27.552 491.27 28.314 491.666 29.298C492.074 30.27 492.278 31.404 492.278 32.7C492.278 33.996 492.074 35.136 491.666 36.12C491.27 37.092 490.7 37.854 489.956 38.406C489.212 38.946 488.318 39.216 487.274 39.216ZM487.274 37.884C487.934 37.884 488.522 37.68 489.038 37.272C489.554 36.852 489.962 36.258 490.262 35.49C490.574 34.71 490.73 33.78 490.73 32.7C490.73 31.608 490.574 30.678 490.262 29.91C489.962 29.142 489.554 28.554 489.038 28.146C488.522 27.738 487.934 27.534 487.274 27.534C486.602 27.534 486.002 27.738 485.474 28.146C484.946 28.554 484.532 29.142 484.232 29.91C483.932 30.678 483.782 31.608 483.782 32.7C483.782 33.78 483.932 34.71 484.232 35.49C484.532 36.258 484.946 36.852 485.474 37.272C486.002 37.68 486.602 37.884 487.274 37.884ZM496.116 39L503.442 26.4H504.954L497.628 39H496.116ZM504.342 39.216C503.802 39.216 503.316 39.096 502.884 38.856C502.452 38.604 502.104 38.25 501.84 37.794C501.588 37.338 501.462 36.804 501.462 36.192C501.462 35.568 501.588 35.034 501.84 34.59C502.104 34.134 502.452 33.786 502.884 33.546C503.316 33.294 503.802 33.168 504.342 33.168C504.894 33.168 505.38 33.294 505.8 33.546C506.232 33.786 506.574 34.134 506.826 34.59C507.078 35.034 507.204 35.568 507.204 36.192C507.204 36.804 507.078 37.338 506.826 37.794C506.574 38.25 506.232 38.604 505.8 38.856C505.368 39.096 504.882 39.216 504.342 39.216ZM504.324 38.046C504.612 38.046 504.876 37.98 505.116 37.848C505.356 37.704 505.548 37.494 505.692 37.218C505.848 36.942 505.926 36.6 505.926 36.192C505.926 35.772 505.854 35.424 505.71 35.148C505.566 34.872 505.374 34.668 505.134 34.536C504.894 34.392 504.63 34.32 504.342 34.32C504.066 34.32 503.802 34.392 503.55 34.536C503.31 34.668 503.112 34.872 502.956 35.148C502.812 35.424 502.74 35.772 502.74 36.192C502.74 36.6 502.812 36.942 502.956 37.218C503.112 37.494 503.31 37.704 503.55 37.848C503.79 37.98 504.048 38.046 504.324 38.046ZM496.854 32.25C496.314 32.25 495.828 32.13 495.396 31.89C494.964 31.638 494.616 31.284 494.352 30.828C494.1 30.372 493.974 29.838 493.974 29.226C493.974 28.602 494.1 28.068 494.352 27.624C494.616 27.168 494.964 26.82 495.396 26.58C495.84 26.328 496.332 26.202 496.872 26.202C497.412 26.202 497.898 26.328 498.33 26.58C498.762 26.82 499.104 27.168 499.356 27.624C499.608 28.068 499.734 28.602 499.734 29.226C499.734 29.838 499.608 30.372 499.356 30.828C499.104 31.284 498.756 31.638 498.312 31.89C497.88 32.13 497.394 32.25 496.854 32.25ZM496.854 31.08C497.142 31.08 497.406 31.014 497.646 30.882C497.886 30.738 498.078 30.528 498.222 30.252C498.366 29.976 498.438 29.634 498.438 29.226C498.438 28.806 498.366 28.458 498.222 28.182C498.078 27.894 497.886 27.684 497.646 27.552C497.406 27.408 497.148 27.336 496.872 27.336C496.596 27.336 496.332 27.408 496.08 27.552C495.828 27.684 495.624 27.894 495.468 28.182C495.324 28.458 495.252 28.806 495.252 29.226C495.252 29.634 495.324 29.976 495.468 30.252C495.624 30.528 495.822 30.738 496.062 30.882C496.314 31.014 496.578 31.08 496.854 31.08ZM406.843 64.216C405.991 64.216 405.283 64.09 404.719 63.838C404.167 63.574 403.747 63.214 403.459 62.758C403.171 62.29 402.997 61.75 402.937 61.138H404.485C404.533 61.462 404.641 61.762 404.809 62.038C404.989 62.302 405.247 62.518 405.583 62.686C405.919 62.854 406.345 62.938 406.861 62.938C407.269 62.938 407.617 62.878 407.905 62.758C408.193 62.626 408.409 62.446 408.553 62.218C408.709 61.99 408.787 61.726 408.787 61.426C408.787 61.03 408.697 60.724 408.517 60.508C408.349 60.28 408.097 60.112 407.761 60.004C407.437 59.884 407.029 59.794 406.537 59.734C406.009 59.662 405.541 59.56 405.133 59.428C404.725 59.296 404.377 59.122 404.089 58.906C403.813 58.69 403.603 58.42 403.459 58.096C403.315 57.772 403.243 57.388 403.243 56.944C403.243 56.428 403.381 55.972 403.657 55.576C403.933 55.18 404.323 54.874 404.827 54.658C405.343 54.43 405.949 54.316 406.645 54.316C407.665 54.316 408.469 54.55 409.057 55.018C409.657 55.486 410.011 56.152 410.119 57.016H408.625C408.565 56.572 408.361 56.224 408.013 55.972C407.665 55.72 407.203 55.594 406.627 55.594C406.015 55.594 405.553 55.708 405.241 55.936C404.929 56.164 404.773 56.464 404.773 56.836C404.773 57.112 404.839 57.364 404.971 57.592C405.115 57.808 405.355 57.994 405.691 58.15C406.027 58.294 406.477 58.402 407.041 58.474C407.749 58.558 408.349 58.696 408.841 58.888C409.333 59.068 409.705 59.35 409.957 59.734C410.221 60.118 410.347 60.64 410.335 61.3C410.335 61.924 410.185 62.452 409.885 62.884C409.597 63.316 409.189 63.646 408.661 63.874C408.145 64.102 407.539 64.216 406.843 64.216ZM415.848 64C415.308 64 414.84 63.916 414.444 63.748C414.048 63.58 413.742 63.298 413.526 62.902C413.322 62.494 413.22 61.948 413.22 61.264V55.81H411.564V54.532H413.22L413.418 52.174H414.732V54.532H417.414V55.81H414.732V61.264C414.732 61.828 414.846 62.212 415.074 62.416C415.302 62.608 415.704 62.704 416.28 62.704H417.378V64H415.848ZM422.441 64.216C421.721 64.216 421.121 64.084 420.641 63.82C420.161 63.544 419.801 63.184 419.561 62.74C419.321 62.284 419.201 61.798 419.201 61.282C419.201 60.658 419.357 60.13 419.669 59.698C419.993 59.254 420.443 58.918 421.019 58.69C421.595 58.462 422.267 58.348 423.035 58.348H425.393C425.393 57.736 425.321 57.226 425.177 56.818C425.033 56.41 424.799 56.104 424.475 55.9C424.151 55.696 423.719 55.594 423.179 55.594C422.639 55.594 422.177 55.732 421.793 56.008C421.409 56.272 421.169 56.668 421.073 57.196H419.525C419.597 56.572 419.807 56.05 420.155 55.63C420.503 55.198 420.941 54.874 421.469 54.658C422.009 54.43 422.579 54.316 423.179 54.316C424.031 54.316 424.733 54.472 425.285 54.784C425.837 55.084 426.245 55.51 426.509 56.062C426.773 56.602 426.905 57.244 426.905 57.988V64H425.555L425.465 62.38C425.345 62.632 425.189 62.872 424.997 63.1C424.817 63.316 424.601 63.508 424.349 63.676C424.097 63.844 423.809 63.976 423.485 64.072C423.173 64.168 422.825 64.216 422.441 64.216ZM422.657 62.938C423.053 62.938 423.419 62.848 423.755 62.668C424.091 62.488 424.379 62.248 424.619 61.948C424.871 61.636 425.063 61.288 425.195 60.904C425.327 60.52 425.393 60.118 425.393 59.698V59.518H423.161C422.597 59.518 422.135 59.59 421.775 59.734C421.427 59.878 421.175 60.082 421.019 60.346C420.863 60.598 420.785 60.886 420.785 61.21C420.785 61.558 420.857 61.864 421.001 62.128C421.145 62.38 421.355 62.578 421.631 62.722C421.919 62.866 422.261 62.938 422.657 62.938ZM434.119 64.216C433.543 64.216 433.045 64.132 432.625 63.964C432.217 63.784 431.869 63.562 431.581 63.298C431.305 63.034 431.077 62.776 430.897 62.524L430.771 64H429.403V51.04H430.915V56.026C431.203 55.462 431.629 55.036 432.193 54.748C432.757 54.46 433.387 54.316 434.083 54.316C434.947 54.316 435.703 54.526 436.351 54.946C436.999 55.366 437.503 55.948 437.863 56.692C438.223 57.424 438.403 58.27 438.403 59.23C438.403 60.178 438.223 61.03 437.863 61.786C437.503 62.542 436.999 63.136 436.351 63.568C435.715 64 434.971 64.216 434.119 64.216ZM433.921 62.902C434.485 62.902 434.983 62.758 435.415 62.47C435.859 62.17 436.207 61.75 436.459 61.21C436.723 60.658 436.855 60.01 436.855 59.266C436.855 58.522 436.723 57.88 436.459 57.34C436.207 56.788 435.859 56.368 435.415 56.08C434.983 55.78 434.485 55.63 433.921 55.63C433.321 55.63 432.799 55.78 432.355 56.08C431.911 56.368 431.569 56.788 431.329 57.34C431.089 57.88 430.969 58.522 430.969 59.266C430.969 60.01 431.089 60.658 431.329 61.21C431.569 61.75 431.911 62.17 432.355 62.47C432.799 62.758 433.321 62.902 433.921 62.902ZM440.6 64V51.04H442.112V64H440.6ZM448.585 64.216C447.745 64.216 447.001 64.012 446.353 63.604C445.705 63.196 445.195 62.62 444.823 61.876C444.463 61.132 444.283 60.262 444.283 59.266C444.283 58.27 444.463 57.4 444.823 56.656C445.195 55.912 445.705 55.336 446.353 54.928C447.013 54.52 447.769 54.316 448.621 54.316C449.533 54.316 450.295 54.52 450.907 54.928C451.519 55.336 451.981 55.882 452.293 56.566C452.605 57.25 452.761 58 452.761 58.816C452.761 58.936 452.761 59.056 452.761 59.176C452.761 59.296 452.755 59.44 452.743 59.608H445.417V58.438H451.285C451.261 57.514 450.991 56.812 450.475 56.332C449.971 55.84 449.341 55.594 448.585 55.594C448.081 55.594 447.613 55.72 447.181 55.972C446.761 56.212 446.419 56.572 446.155 57.052C445.891 57.532 445.759 58.132 445.759 58.852V59.356C445.759 60.148 445.891 60.814 446.155 61.354C446.419 61.882 446.761 62.278 447.181 62.542C447.613 62.806 448.081 62.938 448.585 62.938C449.257 62.938 449.785 62.812 450.169 62.56C450.553 62.296 450.835 61.924 451.015 61.444H452.509C452.365 61.972 452.113 62.446 451.753 62.866C451.405 63.286 450.961 63.616 450.421 63.856C449.893 64.096 449.281 64.216 448.585 64.216ZM458.942 64.216C458.078 64.216 457.31 64.012 456.638 63.604C455.966 63.184 455.438 62.602 455.054 61.858C454.67 61.114 454.478 60.25 454.478 59.266C454.478 58.27 454.67 57.406 455.054 56.674C455.438 55.93 455.966 55.354 456.638 54.946C457.31 54.526 458.078 54.316 458.942 54.316C460.022 54.316 460.922 54.604 461.642 55.18C462.374 55.756 462.842 56.53 463.046 57.502H461.498C461.366 56.902 461.06 56.44 460.58 56.116C460.112 55.78 459.56 55.612 458.924 55.612C458.372 55.612 457.874 55.75 457.43 56.026C456.998 56.302 456.656 56.71 456.404 57.25C456.152 57.79 456.026 58.462 456.026 59.266C456.026 59.866 456.098 60.4 456.242 60.868C456.386 61.324 456.584 61.708 456.836 62.02C457.1 62.32 457.406 62.548 457.754 62.704C458.114 62.86 458.504 62.938 458.924 62.938C459.356 62.938 459.746 62.866 460.094 62.722C460.454 62.566 460.754 62.344 460.994 62.056C461.246 61.768 461.414 61.426 461.498 61.03H463.046C462.854 61.978 462.386 62.746 461.642 63.334C460.91 63.922 460.01 64.216 458.942 64.216ZM469.313 64.216C468.437 64.216 467.663 64.012 466.991 63.604C466.319 63.196 465.797 62.62 465.425 61.876C465.053 61.132 464.867 60.262 464.867 59.266C464.867 58.258 465.053 57.388 465.425 56.656C465.809 55.912 466.337 55.336 467.009 54.928C467.693 54.52 468.473 54.316 469.349 54.316C470.237 54.316 471.011 54.52 471.671 54.928C472.343 55.336 472.865 55.912 473.237 56.656C473.609 57.388 473.795 58.258 473.795 59.266C473.795 60.262 473.603 61.132 473.219 61.876C472.847 62.62 472.325 63.196 471.653 63.604C470.981 64.012 470.201 64.216 469.313 64.216ZM469.313 62.92C469.865 62.92 470.363 62.788 470.807 62.524C471.251 62.248 471.599 61.84 471.851 61.3C472.115 60.748 472.247 60.07 472.247 59.266C472.247 58.45 472.121 57.772 471.869 57.232C471.617 56.692 471.269 56.29 470.825 56.026C470.393 55.75 469.901 55.612 469.349 55.612C468.809 55.612 468.317 55.75 467.873 56.026C467.429 56.29 467.075 56.692 466.811 57.232C466.547 57.772 466.415 58.45 466.415 59.266C466.415 60.07 466.541 60.748 466.793 61.3C467.057 61.84 467.405 62.248 467.837 62.524C468.281 62.788 468.773 62.92 469.313 62.92ZM476.129 64V54.532H477.641V64H476.129ZM476.885 52.732C476.585 52.732 476.333 52.636 476.129 52.444C475.937 52.24 475.841 51.988 475.841 51.688C475.841 51.388 475.937 51.148 476.129 50.968C476.333 50.776 476.585 50.68 476.885 50.68C477.173 50.68 477.419 50.776 477.623 50.968C477.827 51.148 477.929 51.388 477.929 51.688C477.929 51.988 477.827 52.24 477.623 52.444C477.419 52.636 477.173 52.732 476.885 52.732ZM480.327 64V54.532H481.695L481.767 56.026C482.043 55.486 482.439 55.066 482.955 54.766C483.483 54.466 484.089 54.316 484.773 54.316C485.469 54.316 486.075 54.448 486.591 54.712C487.107 54.976 487.509 55.378 487.797 55.918C488.085 56.458 488.229 57.142 488.229 57.97V64H486.717V58.132C486.717 57.292 486.507 56.662 486.087 56.242C485.679 55.822 485.127 55.612 484.431 55.612C483.963 55.612 483.531 55.726 483.135 55.954C482.739 56.17 482.421 56.494 482.181 56.926C481.953 57.358 481.839 57.886 481.839 58.51V64H480.327ZM494.153 64.216C493.301 64.216 492.593 64.09 492.029 63.838C491.477 63.574 491.057 63.214 490.769 62.758C490.481 62.29 490.307 61.75 490.247 61.138H491.795C491.843 61.462 491.951 61.762 492.119 62.038C492.299 62.302 492.557 62.518 492.893 62.686C493.229 62.854 493.655 62.938 494.171 62.938C494.579 62.938 494.927 62.878 495.215 62.758C495.503 62.626 495.719 62.446 495.863 62.218C496.019 61.99 496.097 61.726 496.097 61.426C496.097 61.03 496.007 60.724 495.827 60.508C495.659 60.28 495.407 60.112 495.071 60.004C494.747 59.884 494.339 59.794 493.847 59.734C493.319 59.662 492.851 59.56 492.443 59.428C492.035 59.296 491.687 59.122 491.399 58.906C491.123 58.69 490.913 58.42 490.769 58.096C490.625 57.772 490.553 57.388 490.553 56.944C490.553 56.428 490.691 55.972 490.967 55.576C491.243 55.18 491.633 54.874 492.137 54.658C492.653 54.43 493.259 54.316 493.955 54.316C494.975 54.316 495.779 54.55 496.367 55.018C496.967 55.486 497.321 56.152 497.429 57.016H495.935C495.875 56.572 495.671 56.224 495.323 55.972C494.975 55.72 494.513 55.594 493.937 55.594C493.325 55.594 492.863 55.708 492.551 55.936C492.239 56.164 492.083 56.464 492.083 56.836C492.083 57.112 492.149 57.364 492.281 57.592C492.425 57.808 492.665 57.994 493.001 58.15C493.337 58.294 493.787 58.402 494.351 58.474C495.059 58.558 495.659 58.696 496.151 58.888C496.643 59.068 497.015 59.35 497.267 59.734C497.531 60.118 497.657 60.64 497.645 61.3C497.645 61.924 497.495 62.452 497.195 62.884C496.907 63.316 496.499 63.646 495.971 63.874C495.455 64.102 494.849 64.216 494.153 64.216ZM500.485 64.09C500.197 64.09 499.951 63.994 499.747 63.802C499.555 63.598 499.459 63.352 499.459 63.064C499.459 62.776 499.555 62.536 499.747 62.344C499.951 62.14 500.197 62.038 500.485 62.038C500.797 62.038 501.043 62.14 501.223 62.344C501.415 62.536 501.511 62.776 501.511 63.064C501.511 63.352 501.415 63.598 501.223 63.802C501.043 63.994 500.797 64.09 500.485 64.09ZM506.029 54.46L505.795 50.41H507.271L507.055 54.46H506.029ZM503.293 54.46L503.077 50.41H504.553L504.355 54.46H503.293Z" fill="white"/>
<path d="M18.8604 167.82L21.2917 173.642L24.7158 169.97C25.4134 169.222 25.1581 168.008 24.2182 167.604L19.1062 165.409C18.3344 165.077 17.4419 165.455 17.1425 166.24L16.0581 169.083L18.8604 167.82Z" fill="#ADFEB9" fill-opacity="0.3" stroke="#ADFEB9" stroke-opacity="0.3" stroke-width="0.211086"/>
<path d="M27.6244 171.572L22.8391 175.683L27.3897 177.805C28.3168 178.237 29.3921 177.62 29.4854 176.601L29.9937 171.061C30.0706 170.224 29.4356 169.492 28.5967 169.45L25.558 169.297L27.6244 171.572Z" fill="#ADFEB9" fill-opacity="0.3" stroke="#ADFEB9" stroke-opacity="0.3" stroke-width="0.211086"/>
<path d="M26.7648 181.066L21.376 177.786L20.7643 182.769C20.6397 183.785 21.5595 184.616 22.5572 184.39L27.9834 183.162C28.8026 182.976 29.3026 182.146 29.0835 181.335L28.29 178.398L26.7648 181.066Z" fill="#ADFEB9" fill-opacity="0.3" stroke="#ADFEB9" stroke-opacity="0.3" stroke-width="0.211086"/>
<path d="M17.4694 183.183L18.9242 177.044L13.9956 178.002C12.9915 178.197 12.4847 179.329 13.0078 180.208L15.8531 184.989C16.2827 185.711 17.2267 185.93 17.9302 185.471L20.4784 183.809L17.4694 183.183Z" fill="#ADFEB9" fill-opacity="0.3" stroke="#ADFEB9" stroke-opacity="0.3" stroke-width="0.211086"/>
<path d="M12.5841 174.996L18.872 174.483L16.4377 170.091C15.9417 169.197 14.7087 169.065 14.0343 169.834L10.3666 174.017C9.81286 174.649 9.89629 175.614 10.5501 176.142L12.9186 178.051L12.5841 174.996Z" fill="#ADFEB9" fill-opacity="0.3" stroke="#ADFEB9" stroke-opacity="0.3" stroke-width="0.211086"/>
<path d="M55.8678 182.216C55.0038 182.216 54.2178 182.042 53.5098 181.694C52.8138 181.346 52.2558 180.818 51.8358 180.11C51.4158 179.39 51.2058 178.472 51.2058 177.356V169.4H52.7178V177.374C52.7178 178.19 52.8498 178.856 53.1138 179.372C53.3898 179.888 53.7678 180.266 54.2478 180.506C54.7278 180.746 55.2798 180.866 55.9038 180.866C56.5398 180.866 57.0918 180.746 57.5598 180.506C58.0278 180.266 58.3938 179.888 58.6578 179.372C58.9218 178.856 59.0538 178.19 59.0538 177.374V169.4H60.5658V177.356C60.5658 178.472 60.3558 179.39 59.9358 180.11C59.5158 180.818 58.9518 181.346 58.2438 181.694C57.5358 182.042 56.7438 182.216 55.8678 182.216ZM63.0551 182V172.532H64.4231L64.4951 174.026C64.7711 173.486 65.1671 173.066 65.6831 172.766C66.2111 172.466 66.8171 172.316 67.5011 172.316C68.1971 172.316 68.8031 172.448 69.3191 172.712C69.8351 172.976 70.2371 173.378 70.5251 173.918C70.8131 174.458 70.9571 175.142 70.9571 175.97V182H69.4451V176.132C69.4451 175.292 69.2351 174.662 68.8151 174.242C68.4071 173.822 67.8551 173.612 67.1591 173.612C66.6911 173.612 66.2591 173.726 65.8631 173.954C65.4671 174.17 65.1491 174.494 64.9091 174.926C64.6811 175.358 64.5671 175.886 64.5671 176.51V182H63.0551ZM77.3673 182.216C76.5273 182.216 75.7833 182 75.1353 181.568C74.4873 181.136 73.9833 180.548 73.6233 179.804C73.2633 179.048 73.0833 178.196 73.0833 177.248C73.0833 176.288 73.2633 175.442 73.6233 174.71C73.9833 173.966 74.4873 173.384 75.1353 172.964C75.7833 172.532 76.5333 172.316 77.3853 172.316C78.1293 172.316 78.7653 172.466 79.2933 172.766C79.8334 173.066 80.2594 173.486 80.5713 174.026V169.04H82.0833V182H80.7154L80.5893 180.488C80.4093 180.788 80.1693 181.07 79.8693 181.334C79.5814 181.598 79.2274 181.814 78.8074 181.982C78.3994 182.138 77.9193 182.216 77.3673 182.216ZM77.5654 180.902C78.1653 180.902 78.6873 180.758 79.1313 180.47C79.5753 180.17 79.9173 179.75 80.1573 179.21C80.3974 178.658 80.5174 178.01 80.5174 177.266C80.5174 176.522 80.3974 175.88 80.1573 175.34C79.9173 174.788 79.5753 174.368 79.1313 174.08C78.6873 173.78 78.1653 173.63 77.5654 173.63C77.0013 173.63 76.4973 173.78 76.0533 174.08C75.6093 174.368 75.2613 174.788 75.0093 175.34C74.7573 175.88 74.6313 176.522 74.6313 177.266C74.6313 178.01 74.7573 178.658 75.0093 179.21C75.2613 179.75 75.6093 180.17 76.0533 180.47C76.4973 180.758 77.0013 180.902 77.5654 180.902ZM88.565 182.216C87.725 182.216 86.981 182.012 86.333 181.604C85.685 181.196 85.175 180.62 84.803 179.876C84.443 179.132 84.263 178.262 84.263 177.266C84.263 176.27 84.443 175.4 84.803 174.656C85.175 173.912 85.685 173.336 86.333 172.928C86.993 172.52 87.749 172.316 88.601 172.316C89.513 172.316 90.275 172.52 90.887 172.928C91.499 173.336 91.961 173.882 92.273 174.566C92.585 175.25 92.741 176 92.741 176.816C92.741 176.936 92.741 177.056 92.741 177.176C92.741 177.296 92.735 177.44 92.723 177.608H85.397V176.438H91.265C91.241 175.514 90.971 174.812 90.455 174.332C89.951 173.84 89.321 173.594 88.565 173.594C88.061 173.594 87.593 173.72 87.161 173.972C86.741 174.212 86.399 174.572 86.135 175.052C85.871 175.532 85.739 176.132 85.739 176.852V177.356C85.739 178.148 85.871 178.814 86.135 179.354C86.399 179.882 86.741 180.278 87.161 180.542C87.593 180.806 88.061 180.938 88.565 180.938C89.237 180.938 89.765 180.812 90.149 180.56C90.533 180.296 90.815 179.924 90.995 179.444H92.489C92.345 179.972 92.093 180.446 91.733 180.866C91.385 181.286 90.941 181.616 90.401 181.856C89.873 182.096 89.261 182.216 88.565 182.216ZM94.8363 182V172.532H96.2043L96.3123 174.26C96.5283 173.828 96.8103 173.468 97.1583 173.18C97.5063 172.892 97.9263 172.676 98.4183 172.532C98.9223 172.388 99.4863 172.316 100.11 172.316V173.9H99.1743C98.8143 173.9 98.4663 173.948 98.1303 174.044C97.7943 174.14 97.4883 174.296 97.2123 174.512C96.9483 174.728 96.7383 175.022 96.5823 175.394C96.4263 175.766 96.3483 176.234 96.3483 176.798V182H94.8363ZM105.27 182.216C104.418 182.216 103.71 182.09 103.146 181.838C102.594 181.574 102.174 181.214 101.886 180.758C101.598 180.29 101.424 179.75 101.364 179.138H102.912C102.96 179.462 103.068 179.762 103.236 180.038C103.416 180.302 103.674 180.518 104.01 180.686C104.346 180.854 104.772 180.938 105.288 180.938C105.696 180.938 106.044 180.878 106.332 180.758C106.62 180.626 106.836 180.446 106.98 180.218C107.136 179.99 107.214 179.726 107.214 179.426C107.214 179.03 107.124 178.724 106.944 178.508C106.776 178.28 106.524 178.112 106.188 178.004C105.864 177.884 105.456 177.794 104.964 177.734C104.436 177.662 103.968 177.56 103.56 177.428C103.152 177.296 102.804 177.122 102.516 176.906C102.24 176.69 102.03 176.42 101.886 176.096C101.742 175.772 101.67 175.388 101.67 174.944C101.67 174.428 101.808 173.972 102.084 173.576C102.36 173.18 102.75 172.874 103.254 172.658C103.77 172.43 104.376 172.316 105.072 172.316C106.092 172.316 106.896 172.55 107.484 173.018C108.084 173.486 108.438 174.152 108.546 175.016H107.052C106.992 174.572 106.788 174.224 106.44 173.972C106.092 173.72 105.63 173.594 105.054 173.594C104.442 173.594 103.98 173.708 103.668 173.936C103.356 174.164 103.2 174.464 103.2 174.836C103.2 175.112 103.266 175.364 103.398 175.592C103.542 175.808 103.782 175.994 104.118 176.15C104.454 176.294 104.904 176.402 105.468 176.474C106.176 176.558 106.776 176.696 107.268 176.888C107.76 177.068 108.132 177.35 108.384 177.734C108.648 178.118 108.774 178.64 108.762 179.3C108.762 179.924 108.612 180.452 108.312 180.884C108.024 181.316 107.616 181.646 107.088 181.874C106.572 182.102 105.966 182.216 105.27 182.216ZM114.276 182C113.736 182 113.268 181.916 112.872 181.748C112.476 181.58 112.17 181.298 111.954 180.902C111.75 180.494 111.648 179.948 111.648 179.264V173.81H109.992V172.532H111.648L111.846 170.174H113.16V172.532H115.842V173.81H113.16V179.264C113.16 179.828 113.274 180.212 113.502 180.416C113.73 180.608 114.132 180.704 114.708 180.704H115.806V182H114.276ZM120.868 182.216C120.148 182.216 119.548 182.084 119.068 181.82C118.588 181.544 118.228 181.184 117.988 180.74C117.748 180.284 117.628 179.798 117.628 179.282C117.628 178.658 117.784 178.13 118.096 177.698C118.42 177.254 118.87 176.918 119.446 176.69C120.022 176.462 120.694 176.348 121.462 176.348H123.82C123.82 175.736 123.748 175.226 123.604 174.818C123.46 174.41 123.226 174.104 122.902 173.9C122.578 173.696 122.146 173.594 121.606 173.594C121.066 173.594 120.604 173.732 120.22 174.008C119.836 174.272 119.596 174.668 119.5 175.196H117.952C118.024 174.572 118.234 174.05 118.582 173.63C118.93 173.198 119.368 172.874 119.896 172.658C120.436 172.43 121.006 172.316 121.606 172.316C122.458 172.316 123.16 172.472 123.712 172.784C124.264 173.084 124.672 173.51 124.936 174.062C125.2 174.602 125.332 175.244 125.332 175.988V182H123.982L123.892 180.38C123.772 180.632 123.616 180.872 123.424 181.1C123.244 181.316 123.028 181.508 122.776 181.676C122.524 181.844 122.236 181.976 121.912 182.072C121.6 182.168 121.252 182.216 120.868 182.216ZM121.084 180.938C121.48 180.938 121.846 180.848 122.182 180.668C122.518 180.488 122.806 180.248 123.046 179.948C123.298 179.636 123.49 179.288 123.622 178.904C123.754 178.52 123.82 178.118 123.82 177.698V177.518H121.588C121.024 177.518 120.562 177.59 120.202 177.734C119.854 177.878 119.602 178.082 119.446 178.346C119.29 178.598 119.212 178.886 119.212 179.21C119.212 179.558 119.284 179.864 119.428 180.128C119.572 180.38 119.782 180.578 120.058 180.722C120.346 180.866 120.688 180.938 121.084 180.938ZM127.83 182V172.532H129.198L129.27 174.026C129.546 173.486 129.942 173.066 130.458 172.766C130.986 172.466 131.592 172.316 132.276 172.316C132.972 172.316 133.578 172.448 134.094 172.712C134.61 172.976 135.012 173.378 135.3 173.918C135.588 174.458 135.732 175.142 135.732 175.97V182H134.22V176.132C134.22 175.292 134.01 174.662 133.59 174.242C133.182 173.822 132.63 173.612 131.934 173.612C131.466 173.612 131.034 173.726 130.638 173.954C130.242 174.17 129.924 174.494 129.684 174.926C129.456 175.358 129.342 175.886 129.342 176.51V182H127.83ZM142.143 182.216C141.303 182.216 140.559 182 139.911 181.568C139.263 181.136 138.759 180.548 138.399 179.804C138.039 179.048 137.859 178.196 137.859 177.248C137.859 176.288 138.039 175.442 138.399 174.71C138.759 173.966 139.263 173.384 139.911 172.964C140.559 172.532 141.309 172.316 142.161 172.316C142.905 172.316 143.541 172.466 144.069 172.766C144.609 173.066 145.035 173.486 145.347 174.026V169.04H146.859V182H145.491L145.365 180.488C145.185 180.788 144.945 181.07 144.645 181.334C144.357 181.598 144.003 181.814 143.583 181.982C143.175 182.138 142.695 182.216 142.143 182.216ZM142.341 180.902C142.941 180.902 143.463 180.758 143.907 180.47C144.351 180.17 144.693 179.75 144.933 179.21C145.173 178.658 145.293 178.01 145.293 177.266C145.293 176.522 145.173 175.88 144.933 175.34C144.693 174.788 144.351 174.368 143.907 174.08C143.463 173.78 142.941 173.63 142.341 173.63C141.777 173.63 141.273 173.78 140.829 174.08C140.385 174.368 140.037 174.788 139.785 175.34C139.533 175.88 139.407 176.522 139.407 177.266C139.407 178.01 139.533 178.658 139.785 179.21C140.037 179.75 140.385 180.17 140.829 180.47C141.273 180.758 141.777 180.902 142.341 180.902ZM149.56 182V172.532H151.072V182H149.56ZM150.316 170.732C150.016 170.732 149.764 170.636 149.56 170.444C149.368 170.24 149.272 169.988 149.272 169.688C149.272 169.388 149.368 169.148 149.56 168.968C149.764 168.776 150.016 168.68 150.316 168.68C150.604 168.68 150.85 168.776 151.054 168.968C151.258 169.148 151.36 169.388 151.36 169.688C151.36 169.988 151.258 170.24 151.054 170.444C150.85 170.636 150.604 170.732 150.316 170.732ZM153.758 182V172.532H155.126L155.198 174.026C155.474 173.486 155.87 173.066 156.386 172.766C156.914 172.466 157.52 172.316 158.204 172.316C158.9 172.316 159.506 172.448 160.022 172.712C160.538 172.976 160.94 173.378 161.228 173.918C161.516 174.458 161.66 175.142 161.66 175.97V182H160.148V176.132C160.148 175.292 159.938 174.662 159.518 174.242C159.11 173.822 158.558 173.612 157.862 173.612C157.394 173.612 156.962 173.726 156.566 173.954C156.17 174.17 155.852 174.494 155.612 174.926C155.384 175.358 155.27 175.886 155.27 176.51V182H153.758ZM167.872 186.176C167.02 186.176 166.27 186.068 165.622 185.852C164.986 185.648 164.488 185.33 164.128 184.898C163.78 184.466 163.606 183.932 163.606 183.296C163.606 182.996 163.66 182.684 163.768 182.36C163.888 182.036 164.086 181.724 164.362 181.424C164.65 181.124 165.052 180.854 165.568 180.614L166.72 181.226C166.036 181.49 165.592 181.796 165.388 182.144C165.184 182.492 165.082 182.828 165.082 183.152C165.082 183.548 165.196 183.878 165.424 184.142C165.664 184.406 165.994 184.604 166.414 184.736C166.834 184.868 167.32 184.934 167.872 184.934C168.412 184.934 168.874 184.862 169.258 184.718C169.654 184.586 169.954 184.388 170.158 184.124C170.374 183.872 170.482 183.572 170.482 183.224C170.482 182.72 170.32 182.324 169.996 182.036C169.672 181.76 169.042 181.598 168.106 181.55C167.374 181.502 166.762 181.436 166.27 181.352C165.778 181.268 165.37 181.172 165.046 181.064C164.734 180.944 164.47 180.812 164.254 180.668C164.05 180.524 163.864 180.374 163.696 180.218V179.804L165.478 178.094L166.9 178.562L164.956 180.164L165.19 179.48C165.322 179.576 165.448 179.666 165.568 179.75C165.688 179.834 165.85 179.912 166.054 179.984C166.27 180.044 166.564 180.104 166.936 180.164C167.32 180.224 167.824 180.278 168.448 180.326C169.312 180.386 170.002 180.53 170.518 180.758C171.034 180.986 171.406 181.304 171.634 181.712C171.862 182.108 171.976 182.594 171.976 183.17C171.976 183.674 171.832 184.154 171.544 184.61C171.268 185.066 170.824 185.438 170.212 185.726C169.612 186.026 168.832 186.176 167.872 186.176ZM167.854 179.048C167.086 179.048 166.432 178.904 165.892 178.616C165.364 178.316 164.962 177.914 164.686 177.41C164.41 176.894 164.272 176.318 164.272 175.682C164.272 175.046 164.41 174.476 164.686 173.972C164.974 173.468 165.382 173.066 165.91 172.766C166.45 172.466 167.098 172.316 167.854 172.316C168.634 172.316 169.288 172.466 169.816 172.766C170.344 173.066 170.746 173.468 171.022 173.972C171.298 174.476 171.436 175.046 171.436 175.682C171.436 176.318 171.298 176.894 171.022 177.41C170.746 177.914 170.344 178.316 169.816 178.616C169.288 178.904 168.634 179.048 167.854 179.048ZM167.854 177.806C168.526 177.806 169.048 177.632 169.42 177.284C169.792 176.924 169.978 176.39 169.978 175.682C169.978 174.974 169.792 174.446 169.42 174.098C169.048 173.75 168.526 173.576 167.854 173.576C167.218 173.576 166.696 173.75 166.288 174.098C165.892 174.446 165.694 174.974 165.694 175.682C165.694 176.39 165.886 176.924 166.27 177.284C166.666 177.632 167.194 177.806 167.854 177.806ZM169.438 173.81L168.988 172.532H172.696V173.666L169.438 173.81ZM178.424 182.09C178.136 182.09 177.89 181.994 177.686 181.802C177.494 181.598 177.398 181.352 177.398 181.064C177.398 180.776 177.494 180.536 177.686 180.344C177.89 180.14 178.136 180.038 178.424 180.038C178.736 180.038 178.982 180.14 179.162 180.344C179.354 180.536 179.45 180.776 179.45 181.064C179.45 181.352 179.354 181.598 179.162 181.802C178.982 181.994 178.736 182.09 178.424 182.09ZM181.736 182.09C181.448 182.09 181.202 181.994 180.998 181.802C180.806 181.598 180.71 181.352 180.71 181.064C180.71 180.776 180.806 180.536 180.998 180.344C181.202 180.14 181.448 180.038 181.736 180.038C182.048 180.038 182.294 180.14 182.474 180.344C182.666 180.536 182.762 180.776 182.762 181.064C182.762 181.352 182.666 181.598 182.474 181.802C182.294 181.994 182.048 182.09 181.736 182.09ZM175.112 182.09C174.824 182.09 174.578 181.994 174.374 181.802C174.182 181.598 174.086 181.352 174.086 181.064C174.086 180.776 174.182 180.536 174.374 180.344C174.578 180.14 174.824 180.038 175.112 180.038C175.424 180.038 175.67 180.14 175.85 180.344C176.042 180.536 176.138 180.776 176.138 181.064C176.138 181.352 176.042 181.598 175.85 181.802C175.67 181.994 175.424 182.09 175.112 182.09Z" fill="white" fill-opacity="0.2"/>
<path d="M18.8604 207.821L21.2917 213.642L24.7158 209.97C25.4134 209.222 25.1581 208.008 24.2182 207.604L19.1062 205.409C18.3344 205.078 17.4419 205.455 17.1425 206.24L16.0581 209.083L18.8604 207.821Z" fill="#ADFEB9" fill-opacity="0.3" stroke="#ADFEB9" stroke-opacity="0.3" stroke-width="0.211086"/>
<path d="M27.6244 211.572L22.8391 215.683L27.3897 217.805C28.3168 218.237 29.3921 217.62 29.4854 216.601L29.9937 211.061C30.0706 210.224 29.4356 209.492 28.5967 209.45L25.558 209.297L27.6244 211.572Z" fill="#ADFEB9" fill-opacity="0.3" stroke="#ADFEB9" stroke-opacity="0.3" stroke-width="0.211086"/>
<path d="M26.7648 221.067L21.376 217.786L20.7643 222.769C20.6397 223.785 21.5595 224.616 22.5572 224.391L27.9834 223.162C28.8026 222.976 29.3026 222.146 29.0835 221.335L28.29 218.398L26.7648 221.067Z" fill="#ADFEB9" fill-opacity="0.3" stroke="#ADFEB9" stroke-opacity="0.3" stroke-width="0.211086"/>
<path d="M17.4694 223.183L18.9242 217.044L13.9956 218.002C12.9915 218.197 12.4847 219.329 13.0078 220.208L15.8531 224.989C16.2827 225.711 17.2267 225.93 17.9302 225.471L20.4784 223.809L17.4694 223.183Z" fill="#ADFEB9" fill-opacity="0.3" stroke="#ADFEB9" stroke-opacity="0.3" stroke-width="0.211086"/>
<path d="M12.5841 214.996L18.872 214.483L16.4377 210.092C15.9417 209.197 14.7087 209.065 14.0343 209.834L10.3666 214.017C9.81286 214.649 9.89629 215.614 10.5501 216.142L12.9186 218.051L12.5841 214.996Z" fill="#ADFEB9" fill-opacity="0.3" stroke="#ADFEB9" stroke-opacity="0.3" stroke-width="0.211086"/>
<path d="M55.4178 222.216C54.4938 222.216 53.6898 222.048 53.0058 221.712C52.3218 221.376 51.7938 220.908 51.4218 220.308C51.0498 219.708 50.8638 219.012 50.8638 218.22H52.4478C52.4478 218.712 52.5618 219.168 52.7898 219.588C53.0178 219.996 53.3478 220.326 53.7798 220.578C54.2238 220.818 54.7698 220.938 55.4178 220.938C55.9818 220.938 56.4618 220.848 56.8578 220.668C57.2658 220.476 57.5718 220.218 57.7758 219.894C57.9918 219.57 58.0998 219.204 58.0998 218.796C58.0998 218.34 57.9978 217.962 57.7938 217.662C57.6018 217.35 57.3318 217.098 56.9838 216.906C56.6358 216.702 56.2338 216.522 55.7778 216.366C55.3218 216.21 54.8298 216.048 54.3018 215.88C53.2458 215.544 52.4778 215.124 51.9978 214.62C51.5298 214.104 51.2958 213.444 51.2958 212.64C51.2958 211.956 51.4518 211.356 51.7638 210.84C52.0878 210.324 52.5438 209.922 53.1318 209.634C53.7318 209.334 54.4398 209.184 55.2558 209.184C56.0598 209.184 56.7558 209.334 57.3438 209.634C57.9438 209.934 58.4118 210.348 58.7478 210.876C59.0838 211.392 59.2518 211.992 59.2518 212.676H57.6678C57.6678 212.328 57.5778 211.986 57.3978 211.65C57.2178 211.314 56.9418 211.038 56.5698 210.822C56.2098 210.594 55.7538 210.48 55.2018 210.48C54.7458 210.468 54.3378 210.546 53.9778 210.714C53.6298 210.87 53.3538 211.098 53.1498 211.398C52.9578 211.698 52.8618 212.064 52.8618 212.496C52.8618 212.904 52.9458 213.234 53.1138 213.486C53.2938 213.738 53.5458 213.954 53.8698 214.134C54.2058 214.302 54.5958 214.458 55.0398 214.602C55.4838 214.746 55.9758 214.908 56.5158 215.088C57.1278 215.292 57.6678 215.544 58.1358 215.844C58.6158 216.132 58.9878 216.504 59.2518 216.96C59.5278 217.416 59.6658 217.998 59.6658 218.706C59.6658 219.306 59.5038 219.876 59.1798 220.416C58.8678 220.944 58.3998 221.376 57.7758 221.712C57.1518 222.048 56.3658 222.216 55.4178 222.216ZM65.9106 222.216C65.0466 222.216 64.2786 222.012 63.6066 221.604C62.9346 221.184 62.4066 220.602 62.0226 219.858C61.6386 219.114 61.4466 218.25 61.4466 217.266C61.4466 216.27 61.6386 215.406 62.0226 214.674C62.4066 213.93 62.9346 213.354 63.6066 212.946C64.2786 212.526 65.0466 212.316 65.9106 212.316C66.9906 212.316 67.8906 212.604 68.6106 213.18C69.3426 213.756 69.8106 214.53 70.0146 215.502H68.4666C68.3346 214.902 68.0286 214.44 67.5486 214.116C67.0806 213.78 66.5286 213.612 65.8926 213.612C65.3406 213.612 64.8426 213.75 64.3986 214.026C63.9666 214.302 63.6246 214.71 63.3726 215.25C63.1206 215.79 62.9946 216.462 62.9946 217.266C62.9946 217.866 63.0666 218.4 63.2106 218.868C63.3546 219.324 63.5526 219.708 63.8046 220.02C64.0686 220.32 64.3746 220.548 64.7226 220.704C65.0826 220.86 65.4726 220.938 65.8926 220.938C66.3246 220.938 66.7146 220.866 67.0626 220.722C67.4226 220.566 67.7226 220.344 67.9626 220.056C68.2146 219.768 68.3826 219.426 68.4666 219.03H70.0146C69.8226 219.978 69.3546 220.746 68.6106 221.334C67.8786 221.922 66.9786 222.216 65.9106 222.216ZM75.1653 222.216C74.4453 222.216 73.8453 222.084 73.3653 221.82C72.8853 221.544 72.5253 221.184 72.2853 220.74C72.0453 220.284 71.9253 219.798 71.9253 219.282C71.9253 218.658 72.0813 218.13 72.3933 217.698C72.7173 217.254 73.1673 216.918 73.7433 216.69C74.3193 216.462 74.9913 216.348 75.7593 216.348H78.1173C78.1173 215.736 78.0453 215.226 77.9013 214.818C77.7573 214.41 77.5233 214.104 77.1993 213.9C76.8753 213.696 76.4433 213.594 75.9033 213.594C75.3633 213.594 74.9013 213.732 74.5173 214.008C74.1333 214.272 73.8933 214.668 73.7973 215.196H72.2493C72.3213 214.572 72.5313 214.05 72.8793 213.63C73.2273 213.198 73.6653 212.874 74.1933 212.658C74.7333 212.43 75.3033 212.316 75.9033 212.316C76.7553 212.316 77.4573 212.472 78.0093 212.784C78.5613 213.084 78.9693 213.51 79.2333 214.062C79.4973 214.602 79.6293 215.244 79.6293 215.988V222H78.2793L78.1893 220.38C78.0693 220.632 77.9133 220.872 77.7213 221.1C77.5413 221.316 77.3253 221.508 77.0733 221.676C76.8213 221.844 76.5333 221.976 76.2093 222.072C75.8973 222.168 75.5493 222.216 75.1653 222.216ZM75.3813 220.938C75.7773 220.938 76.1433 220.848 76.4793 220.668C76.8153 220.488 77.1033 220.248 77.3433 219.948C77.5953 219.636 77.7873 219.288 77.9193 218.904C78.0513 218.52 78.1173 218.118 78.1173 217.698V217.518H75.8853C75.3213 217.518 74.8593 217.59 74.4993 217.734C74.1513 217.878 73.8993 218.082 73.7433 218.346C73.5873 218.598 73.5093 218.886 73.5093 219.21C73.5093 219.558 73.5813 219.864 73.7253 220.128C73.8693 220.38 74.0793 220.578 74.3553 220.722C74.6433 220.866 74.9853 220.938 75.3813 220.938ZM82.1274 222V212.532H83.4954L83.5674 214.026C83.8434 213.486 84.2394 213.066 84.7554 212.766C85.2834 212.466 85.8894 212.316 86.5734 212.316C87.2694 212.316 87.8754 212.448 88.3914 212.712C88.9074 212.976 89.3094 213.378 89.5974 213.918C89.8854 214.458 90.0294 215.142 90.0294 215.97V222H88.5174V216.132C88.5174 215.292 88.3074 214.662 87.8874 214.242C87.4794 213.822 86.9274 213.612 86.2314 213.612C85.7634 213.612 85.3314 213.726 84.9354 213.954C84.5394 214.17 84.2214 214.494 83.9814 214.926C83.7534 215.358 83.6394 215.886 83.6394 216.51V222H82.1274ZM92.5336 222V212.532H93.9016L93.9736 214.026C94.2496 213.486 94.6456 213.066 95.1616 212.766C95.6896 212.466 96.2956 212.316 96.9796 212.316C97.6756 212.316 98.2816 212.448 98.7976 212.712C99.3136 212.976 99.7156 213.378 100.004 213.918C100.292 214.458 100.436 215.142 100.436 215.97V222H98.9236V216.132C98.9236 215.292 98.7136 214.662 98.2936 214.242C97.8856 213.822 97.3336 213.612 96.6376 213.612C96.1696 213.612 95.7376 213.726 95.3416 213.954C94.9456 214.17 94.6276 214.494 94.3876 214.926C94.1596 215.358 94.0456 215.886 94.0456 216.51V222H92.5336ZM103.084 222V212.532H104.596V222H103.084ZM103.84 210.732C103.54 210.732 103.288 210.636 103.084 210.444C102.892 210.24 102.796 209.988 102.796 209.688C102.796 209.388 102.892 209.148 103.084 208.968C103.288 208.776 103.54 208.68 103.84 208.68C104.128 208.68 104.374 208.776 104.578 208.968C104.782 209.148 104.884 209.388 104.884 209.688C104.884 209.988 104.782 210.24 104.578 210.444C104.374 210.636 104.128 210.732 103.84 210.732ZM107.282 222V212.532H108.65L108.722 214.026C108.998 213.486 109.394 213.066 109.91 212.766C110.438 212.466 111.044 212.316 111.728 212.316C112.424 212.316 113.03 212.448 113.546 212.712C114.062 212.976 114.464 213.378 114.752 213.918C115.04 214.458 115.184 215.142 115.184 215.97V222H113.672V216.132C113.672 215.292 113.462 214.662 113.042 214.242C112.634 213.822 112.082 213.612 111.386 213.612C110.918 213.612 110.486 213.726 110.09 213.954C109.694 214.17 109.376 214.494 109.136 214.926C108.908 215.358 108.794 215.886 108.794 216.51V222H107.282ZM121.396 226.176C120.544 226.176 119.794 226.068 119.146 225.852C118.51 225.648 118.012 225.33 117.652 224.898C117.304 224.466 117.13 223.932 117.13 223.296C117.13 222.996 117.184 222.684 117.292 222.36C117.412 222.036 117.61 221.724 117.886 221.424C118.174 221.124 118.576 220.854 119.092 220.614L120.244 221.226C119.56 221.49 119.116 221.796 118.912 222.144C118.708 222.492 118.606 222.828 118.606 223.152C118.606 223.548 118.72 223.878 118.948 224.142C119.188 224.406 119.518 224.604 119.938 224.736C120.358 224.868 120.844 224.934 121.396 224.934C121.936 224.934 122.398 224.862 122.782 224.718C123.178 224.586 123.478 224.388 123.682 224.124C123.898 223.872 124.006 223.572 124.006 223.224C124.006 222.72 123.844 222.324 123.52 222.036C123.196 221.76 122.566 221.598 121.63 221.55C120.898 221.502 120.286 221.436 119.794 221.352C119.302 221.268 118.894 221.172 118.57 221.064C118.258 220.944 117.994 220.812 117.778 220.668C117.574 220.524 117.388 220.374 117.22 220.218V219.804L119.002 218.094L120.424 218.562L118.48 220.164L118.714 219.48C118.846 219.576 118.972 219.666 119.092 219.75C119.212 219.834 119.374 219.912 119.578 219.984C119.794 220.044 120.088 220.104 120.46 220.164C120.844 220.224 121.348 220.278 121.972 220.326C122.836 220.386 123.526 220.53 124.042 220.758C124.558 220.986 124.93 221.304 125.158 221.712C125.386 222.108 125.5 222.594 125.5 223.17C125.5 223.674 125.356 224.154 125.068 224.61C124.792 225.066 124.348 225.438 123.736 225.726C123.136 226.026 122.356 226.176 121.396 226.176ZM121.378 219.048C120.61 219.048 119.956 218.904 119.416 218.616C118.888 218.316 118.486 217.914 118.21 217.41C117.934 216.894 117.796 216.318 117.796 215.682C117.796 215.046 117.934 214.476 118.21 213.972C118.498 213.468 118.906 213.066 119.434 212.766C119.974 212.466 120.622 212.316 121.378 212.316C122.158 212.316 122.812 212.466 123.34 212.766C123.868 213.066 124.27 213.468 124.546 213.972C124.822 214.476 124.96 215.046 124.96 215.682C124.96 216.318 124.822 216.894 124.546 217.41C124.27 217.914 123.868 218.316 123.34 218.616C122.812 218.904 122.158 219.048 121.378 219.048ZM121.378 217.806C122.05 217.806 122.572 217.632 122.944 217.284C123.316 216.924 123.502 216.39 123.502 215.682C123.502 214.974 123.316 214.446 122.944 214.098C122.572 213.75 122.05 213.576 121.378 213.576C120.742 213.576 120.22 213.75 119.812 214.098C119.416 214.446 119.218 214.974 119.218 215.682C119.218 216.39 119.41 216.924 119.794 217.284C120.19 217.632 120.718 217.806 121.378 217.806ZM122.962 213.81L122.512 212.532H126.22V213.666L122.962 213.81ZM133.937 225.96L136.079 220.992H135.557L132.011 212.532H133.649L136.583 219.822L139.643 212.532H141.209L135.503 225.96H133.937ZM143.039 222V212.532H144.551V222H143.039ZM143.795 210.732C143.495 210.732 143.243 210.636 143.039 210.444C142.847 210.24 142.751 209.988 142.751 209.688C142.751 209.388 142.847 209.148 143.039 208.968C143.243 208.776 143.495 208.68 143.795 208.68C144.083 208.68 144.329 208.776 144.533 208.968C144.737 209.148 144.839 209.388 144.839 209.688C144.839 209.988 144.737 210.24 144.533 210.444C144.329 210.636 144.083 210.732 143.795 210.732ZM151.161 222.216C150.321 222.216 149.577 222.012 148.929 221.604C148.281 221.196 147.771 220.62 147.399 219.876C147.039 219.132 146.859 218.262 146.859 217.266C146.859 216.27 147.039 215.4 147.399 214.656C147.771 213.912 148.281 213.336 148.929 212.928C149.589 212.52 150.345 212.316 151.197 212.316C152.109 212.316 152.871 212.52 153.483 212.928C154.095 213.336 154.557 213.882 154.869 214.566C155.181 215.25 155.337 216 155.337 216.816C155.337 216.936 155.337 217.056 155.337 217.176C155.337 217.296 155.331 217.44 155.319 217.608H147.993V216.438H153.861C153.837 215.514 153.567 214.812 153.051 214.332C152.547 213.84 151.917 213.594 151.161 213.594C150.657 213.594 150.189 213.72 149.757 213.972C149.337 214.212 148.995 214.572 148.731 215.052C148.467 215.532 148.335 216.132 148.335 216.852V217.356C148.335 218.148 148.467 218.814 148.731 219.354C148.995 219.882 149.337 220.278 149.757 220.542C150.189 220.806 150.657 220.938 151.161 220.938C151.833 220.938 152.361 220.812 152.745 220.56C153.129 220.296 153.411 219.924 153.591 219.444H155.085C154.941 219.972 154.689 220.446 154.329 220.866C153.981 221.286 153.537 221.616 152.997 221.856C152.469 222.096 151.857 222.216 151.161 222.216ZM157.432 222V209.04H158.944V222H157.432ZM165.399 222.216C164.559 222.216 163.815 222 163.167 221.568C162.519 221.136 162.015 220.548 161.655 219.804C161.295 219.048 161.115 218.196 161.115 217.248C161.115 216.288 161.295 215.442 161.655 214.71C162.015 213.966 162.519 213.384 163.167 212.964C163.815 212.532 164.565 212.316 165.417 212.316C166.161 212.316 166.797 212.466 167.325 212.766C167.865 213.066 168.291 213.486 168.603 214.026V209.04H170.115V222H168.747L168.621 220.488C168.441 220.788 168.201 221.07 167.901 221.334C167.613 221.598 167.259 221.814 166.839 221.982C166.431 222.138 165.951 222.216 165.399 222.216ZM165.597 220.902C166.197 220.902 166.719 220.758 167.163 220.47C167.607 220.17 167.949 219.75 168.189 219.21C168.429 218.658 168.549 218.01 168.549 217.266C168.549 216.522 168.429 215.88 168.189 215.34C167.949 214.788 167.607 214.368 167.163 214.08C166.719 213.78 166.197 213.63 165.597 213.63C165.033 213.63 164.529 213.78 164.085 214.08C163.641 214.368 163.293 214.788 163.041 215.34C162.789 215.88 162.663 216.522 162.663 217.266C162.663 218.01 162.789 218.658 163.041 219.21C163.293 219.75 163.641 220.17 164.085 220.47C164.529 220.758 165.033 220.902 165.597 220.902ZM177.506 225.96V212.532H178.874L179 214.008C179.192 213.696 179.432 213.414 179.72 213.162C180.02 212.91 180.374 212.706 180.782 212.55C181.202 212.394 181.682 212.316 182.222 212.316C183.074 212.316 183.818 212.532 184.454 212.964C185.102 213.396 185.606 213.984 185.966 214.728C186.326 215.472 186.506 216.324 186.506 217.284C186.506 218.232 186.326 219.078 185.966 219.822C185.606 220.566 185.102 221.154 184.454 221.586C183.806 222.006 183.056 222.216 182.204 222.216C181.472 222.216 180.83 222.066 180.278 221.766C179.726 221.466 179.306 221.046 179.018 220.506V225.96H177.506ZM182.024 220.902C182.588 220.902 183.086 220.758 183.518 220.47C183.962 220.17 184.31 219.75 184.562 219.21C184.826 218.658 184.958 218.01 184.958 217.266C184.958 216.522 184.826 215.88 184.562 215.34C184.31 214.788 183.962 214.368 183.518 214.08C183.086 213.78 182.588 213.63 182.024 213.63C181.424 213.63 180.902 213.78 180.458 214.08C180.014 214.368 179.672 214.788 179.432 215.34C179.192 215.88 179.072 216.522 179.072 217.266C179.072 218.01 179.192 218.658 179.432 219.21C179.672 219.75 180.014 220.17 180.458 220.47C180.902 220.758 181.424 220.902 182.024 220.902ZM188.704 222V212.532H190.072L190.18 214.26C190.396 213.828 190.678 213.468 191.026 213.18C191.374 212.892 191.794 212.676 192.286 212.532C192.79 212.388 193.354 212.316 193.978 212.316V213.9H193.042C192.682 213.9 192.334 213.948 191.998 214.044C191.662 214.14 191.356 214.296 191.08 214.512C190.816 214.728 190.606 215.022 190.45 215.394C190.294 215.766 190.216 216.234 190.216 216.798V222H188.704ZM199.451 222.216C198.575 222.216 197.801 222.012 197.129 221.604C196.457 221.196 195.935 220.62 195.563 219.876C195.191 219.132 195.005 218.262 195.005 217.266C195.005 216.258 195.191 215.388 195.563 214.656C195.947 213.912 196.475 213.336 197.147 212.928C197.831 212.52 198.611 212.316 199.487 212.316C200.375 212.316 201.149 212.52 201.809 212.928C202.481 213.336 203.003 213.912 203.375 214.656C203.747 215.388 203.933 216.258 203.933 217.266C203.933 218.262 203.741 219.132 203.357 219.876C202.985 220.62 202.463 221.196 201.791 221.604C201.119 222.012 200.339 222.216 199.451 222.216ZM199.451 220.92C200.003 220.92 200.501 220.788 200.945 220.524C201.389 220.248 201.737 219.84 201.989 219.3C202.253 218.748 202.385 218.07 202.385 217.266C202.385 216.45 202.259 215.772 202.007 215.232C201.755 214.692 201.407 214.29 200.963 214.026C200.531 213.75 200.039 213.612 199.487 213.612C198.947 213.612 198.455 213.75 198.011 214.026C197.567 214.29 197.213 214.692 196.949 215.232C196.685 215.772 196.553 216.45 196.553 217.266C196.553 218.07 196.679 218.748 196.931 219.3C197.195 219.84 197.543 220.248 197.975 220.524C198.419 220.788 198.911 220.92 199.451 220.92ZM209.444 222C208.904 222 208.436 221.916 208.04 221.748C207.644 221.58 207.338 221.298 207.122 220.902C206.918 220.494 206.816 219.948 206.816 219.264V213.81H205.16V212.532H206.816L207.014 210.174H208.328V212.532H211.01V213.81H208.328V219.264C208.328 219.828 208.442 220.212 208.67 220.416C208.898 220.608 209.3 220.704 209.876 220.704H210.974V222H209.444ZM216.906 222.216C216.03 222.216 215.256 222.012 214.584 221.604C213.912 221.196 213.39 220.62 213.018 219.876C212.646 219.132 212.46 218.262 212.46 217.266C212.46 216.258 212.646 215.388 213.018 214.656C213.402 213.912 213.93 213.336 214.602 212.928C215.286 212.52 216.066 212.316 216.942 212.316C217.83 212.316 218.604 212.52 219.264 212.928C219.936 213.336 220.458 213.912 220.83 214.656C221.202 215.388 221.388 216.258 221.388 217.266C221.388 218.262 221.196 219.132 220.812 219.876C220.44 220.62 219.918 221.196 219.246 221.604C218.574 222.012 217.794 222.216 216.906 222.216ZM216.906 220.92C217.458 220.92 217.956 220.788 218.4 220.524C218.844 220.248 219.192 219.84 219.444 219.3C219.708 218.748 219.84 218.07 219.84 217.266C219.84 216.45 219.714 215.772 219.462 215.232C219.21 214.692 218.862 214.29 218.418 214.026C217.986 213.75 217.494 213.612 216.942 213.612C216.402 213.612 215.91 213.75 215.466 214.026C215.022 214.29 214.668 214.692 214.404 215.232C214.14 215.772 214.008 216.45 214.008 217.266C214.008 218.07 214.134 218.748 214.386 219.3C214.65 219.84 214.998 220.248 215.43 220.524C215.874 220.788 216.366 220.92 216.906 220.92ZM227.665 222.216C226.801 222.216 226.033 222.012 225.361 221.604C224.689 221.184 224.161 220.602 223.777 219.858C223.393 219.114 223.201 218.25 223.201 217.266C223.201 216.27 223.393 215.406 223.777 214.674C224.161 213.93 224.689 213.354 225.361 212.946C226.033 212.526 226.801 212.316 227.665 212.316C228.745 212.316 229.645 212.604 230.365 213.18C231.097 213.756 231.565 214.53 231.769 215.502H230.221C230.089 214.902 229.783 214.44 229.303 214.116C228.835 213.78 228.283 213.612 227.647 213.612C227.095 213.612 226.597 213.75 226.153 214.026C225.721 214.302 225.379 214.71 225.127 215.25C224.875 215.79 224.749 216.462 224.749 217.266C224.749 217.866 224.821 218.4 224.965 218.868C225.109 219.324 225.307 219.708 225.559 220.02C225.823 220.32 226.129 220.548 226.477 220.704C226.837 220.86 227.227 220.938 227.647 220.938C228.079 220.938 228.469 220.866 228.817 220.722C229.177 220.566 229.477 220.344 229.717 220.056C229.969 219.768 230.137 219.426 230.221 219.03H231.769C231.577 219.978 231.109 220.746 230.365 221.334C229.633 221.922 228.733 222.216 227.665 222.216ZM238.035 222.216C237.159 222.216 236.385 222.012 235.713 221.604C235.041 221.196 234.519 220.62 234.147 219.876C233.775 219.132 233.589 218.262 233.589 217.266C233.589 216.258 233.775 215.388 234.147 214.656C234.531 213.912 235.059 213.336 235.731 212.928C236.415 212.52 237.195 212.316 238.071 212.316C238.959 212.316 239.733 212.52 240.393 212.928C241.065 213.336 241.587 213.912 241.959 214.656C242.331 215.388 242.517 216.258 242.517 217.266C242.517 218.262 242.325 219.132 241.941 219.876C241.569 220.62 241.047 221.196 240.375 221.604C239.703 222.012 238.923 222.216 238.035 222.216ZM238.035 220.92C238.587 220.92 239.085 220.788 239.529 220.524C239.973 220.248 240.321 219.84 240.573 219.3C240.837 218.748 240.969 218.07 240.969 217.266C240.969 216.45 240.843 215.772 240.591 215.232C240.339 214.692 239.991 214.29 239.547 214.026C239.115 213.75 238.623 213.612 238.071 213.612C237.531 213.612 237.039 213.75 236.595 214.026C236.151 214.29 235.797 214.692 235.533 215.232C235.269 215.772 235.137 216.45 235.137 217.266C235.137 218.07 235.263 218.748 235.515 219.3C235.779 219.84 236.127 220.248 236.559 220.524C237.003 220.788 237.495 220.92 238.035 220.92ZM244.707 222V209.04H246.219V222H244.707ZM252.188 222.216C251.336 222.216 250.628 222.09 250.064 221.838C249.512 221.574 249.092 221.214 248.804 220.758C248.516 220.29 248.342 219.75 248.282 219.138H249.83C249.878 219.462 249.986 219.762 250.154 220.038C250.334 220.302 250.592 220.518 250.928 220.686C251.264 220.854 251.69 220.938 252.206 220.938C252.614 220.938 252.962 220.878 253.25 220.758C253.538 220.626 253.754 220.446 253.898 220.218C254.054 219.99 254.132 219.726 254.132 219.426C254.132 219.03 254.042 218.724 253.862 218.508C253.694 218.28 253.442 218.112 253.106 218.004C252.782 217.884 252.374 217.794 251.882 217.734C251.354 217.662 250.886 217.56 250.478 217.428C250.07 217.296 249.722 217.122 249.434 216.906C249.158 216.69 248.948 216.42 248.804 216.096C248.66 215.772 248.588 215.388 248.588 214.944C248.588 214.428 248.726 213.972 249.002 213.576C249.278 213.18 249.668 212.874 250.172 212.658C250.688 212.43 251.294 212.316 251.99 212.316C253.01 212.316 253.814 212.55 254.402 213.018C255.002 213.486 255.356 214.152 255.464 215.016H253.97C253.91 214.572 253.706 214.224 253.358 213.972C253.01 213.72 252.548 213.594 251.972 213.594C251.36 213.594 250.898 213.708 250.586 213.936C250.274 214.164 250.118 214.464 250.118 214.836C250.118 215.112 250.184 215.364 250.316 215.592C250.46 215.808 250.7 215.994 251.036 216.15C251.372 216.294 251.822 216.402 252.386 216.474C253.094 216.558 253.694 216.696 254.186 216.888C254.678 217.068 255.05 217.35 255.302 217.734C255.566 218.118 255.692 218.64 255.68 219.3C255.68 219.924 255.53 220.452 255.23 220.884C254.942 221.316 254.534 221.646 254.006 221.874C253.49 222.102 252.884 222.216 252.188 222.216ZM261.832 222.09C261.544 222.09 261.298 221.994 261.094 221.802C260.902 221.598 260.806 221.352 260.806 221.064C260.806 220.776 260.902 220.536 261.094 220.344C261.298 220.14 261.544 220.038 261.832 220.038C262.144 220.038 262.39 220.14 262.57 220.344C262.762 220.536 262.858 220.776 262.858 221.064C262.858 221.352 262.762 221.598 262.57 221.802C262.39 221.994 262.144 222.09 261.832 222.09ZM265.144 222.09C264.856 222.09 264.61 221.994 264.406 221.802C264.214 221.598 264.118 221.352 264.118 221.064C264.118 220.776 264.214 220.536 264.406 220.344C264.61 220.14 264.856 220.038 265.144 220.038C265.456 220.038 265.702 220.14 265.882 220.344C266.074 220.536 266.17 220.776 266.17 221.064C266.17 221.352 266.074 221.598 265.882 221.802C265.702 221.994 265.456 222.09 265.144 222.09ZM258.52 222.09C258.232 222.09 257.986 221.994 257.782 221.802C257.59 221.598 257.494 221.352 257.494 221.064C257.494 220.776 257.59 220.536 257.782 220.344C257.986 220.14 258.232 220.038 258.52 220.038C258.832 220.038 259.078 220.14 259.258 220.344C259.45 220.536 259.546 220.776 259.546 221.064C259.546 221.352 259.45 221.598 259.258 221.802C259.078 221.994 258.832 222.09 258.52 222.09Z" fill="white" fill-opacity="0.2"/>
<path d="M18.8604 247.821L21.2917 253.642L24.7158 249.97C25.4134 249.222 25.1581 248.008 24.2182 247.604L19.1062 245.409C18.3344 245.078 17.4419 245.455 17.1425 246.24L16.0581 249.083L18.8604 247.821Z" fill="#ADFEB9" stroke="#ADFEB9" stroke-width="0.211086"/>
<path d="M27.6244 251.572L22.8391 255.683L27.3897 257.805C28.3168 258.237 29.3921 257.62 29.4854 256.601L29.9937 251.061C30.0706 250.224 29.4356 249.492 28.5967 249.45L25.558 249.297L27.6244 251.572Z" fill="#ADFEB9" stroke="#ADFEB9" stroke-width="0.211086"/>
<path d="M26.7648 261.067L21.376 257.786L20.7643 262.769C20.6397 263.785 21.5595 264.616 22.5572 264.391L27.9834 263.162C28.8026 262.976 29.3026 262.146 29.0835 261.335L28.29 258.398L26.7648 261.067Z" fill="#ADFEB9" stroke="#ADFEB9" stroke-width="0.211086"/>
<path d="M17.4694 263.183L18.9242 257.044L13.9956 258.002C12.9915 258.197 12.4847 259.329 13.0078 260.208L15.8531 264.989C16.2827 265.711 17.2267 265.93 17.9302 265.471L20.4784 263.809L17.4694 263.183Z" fill="#ADFEB9" stroke="#ADFEB9" stroke-width="0.211086"/>
<path d="M12.5841 254.996L18.872 254.483L16.4377 250.092C15.9417 249.197 14.7087 249.065 14.0343 249.834L10.3666 254.017C9.81286 254.649 9.89629 255.614 10.5501 256.142L12.9186 258.051L12.5841 254.996Z" fill="#ADFEB9" stroke="#ADFEB9" stroke-width="0.211086"/>
<path d="M56.7858 262.216C55.6098 262.216 54.5778 261.946 53.6898 261.406C52.8018 260.854 52.1118 260.092 51.6198 259.12C51.1278 258.148 50.8818 257.014 50.8818 255.718C50.8818 254.434 51.1278 253.3 51.6198 252.316C52.1238 251.332 52.8318 250.564 53.7438 250.012C54.6678 249.46 55.7538 249.184 57.0018 249.184C58.4178 249.184 59.5998 249.526 60.5478 250.21C61.4958 250.882 62.1018 251.824 62.3658 253.036H60.6198C60.4518 252.28 60.0558 251.68 59.4318 251.236C58.8078 250.792 57.9978 250.57 57.0018 250.57C56.0778 250.57 55.2678 250.78 54.5718 251.2C53.8878 251.608 53.3598 252.196 52.9878 252.964C52.6158 253.732 52.4298 254.65 52.4298 255.718C52.4298 256.786 52.6158 257.71 52.9878 258.49C53.3598 259.258 53.8758 259.846 54.5358 260.254C55.2078 260.662 55.9758 260.866 56.8398 260.866C58.1838 260.866 59.1978 260.47 59.8818 259.678C60.5658 258.886 60.9558 257.812 61.0518 256.456H57.4158V255.268H62.5998V262H61.2138L61.0878 259.93C60.7878 260.422 60.4398 260.842 60.0438 261.19C59.6598 261.526 59.2038 261.784 58.6758 261.964C58.1478 262.132 57.5178 262.216 56.7858 262.216ZM68.9127 262.216C68.0727 262.216 67.3287 262.012 66.6807 261.604C66.0327 261.196 65.5227 260.62 65.1507 259.876C64.7907 259.132 64.6107 258.262 64.6107 257.266C64.6107 256.27 64.7907 255.4 65.1507 254.656C65.5227 253.912 66.0327 253.336 66.6807 252.928C67.3407 252.52 68.0967 252.316 68.9487 252.316C69.8607 252.316 70.6227 252.52 71.2347 252.928C71.8467 253.336 72.3087 253.882 72.6207 254.566C72.9327 255.25 73.0887 256 73.0887 256.816C73.0887 256.936 73.0887 257.056 73.0887 257.176C73.0887 257.296 73.0827 257.44 73.0707 257.608H65.7447V256.438H71.6127C71.5887 255.514 71.3187 254.812 70.8027 254.332C70.2987 253.84 69.6687 253.594 68.9127 253.594C68.4087 253.594 67.9407 253.72 67.5087 253.972C67.0887 254.212 66.7467 254.572 66.4827 255.052C66.2187 255.532 66.0867 256.132 66.0867 256.852V257.356C66.0867 258.148 66.2187 258.814 66.4827 259.354C66.7467 259.882 67.0887 260.278 67.5087 260.542C67.9407 260.806 68.4087 260.938 68.9127 260.938C69.5847 260.938 70.1127 260.812 70.4967 260.56C70.8807 260.296 71.1627 259.924 71.3427 259.444H72.8367C72.6927 259.972 72.4407 260.446 72.0807 260.866C71.7327 261.286 71.2887 261.616 70.7487 261.856C70.2207 262.096 69.6087 262.216 68.9127 262.216ZM75.184 262V252.532H76.552L76.624 254.026C76.9 253.486 77.296 253.066 77.812 252.766C78.34 252.466 78.946 252.316 79.63 252.316C80.326 252.316 80.932 252.448 81.448 252.712C81.964 252.976 82.366 253.378 82.654 253.918C82.942 254.458 83.086 255.142 83.086 255.97V262H81.574V256.132C81.574 255.292 81.364 254.662 80.944 254.242C80.536 253.822 79.984 253.612 79.288 253.612C78.82 253.612 78.388 253.726 77.992 253.954C77.596 254.17 77.278 254.494 77.038 254.926C76.81 255.358 76.696 255.886 76.696 256.51V262H75.184ZM89.5143 262.216C88.6743 262.216 87.9303 262.012 87.2823 261.604C86.6343 261.196 86.1243 260.62 85.7523 259.876C85.3923 259.132 85.2123 258.262 85.2123 257.266C85.2123 256.27 85.3923 255.4 85.7523 254.656C86.1243 253.912 86.6343 253.336 87.2823 252.928C87.9423 252.52 88.6983 252.316 89.5503 252.316C90.4623 252.316 91.2243 252.52 91.8363 252.928C92.4483 253.336 92.9103 253.882 93.2223 254.566C93.5343 255.25 93.6903 256 93.6903 256.816C93.6903 256.936 93.6903 257.056 93.6903 257.176C93.6903 257.296 93.6843 257.44 93.6723 257.608H86.3463V256.438H92.2143C92.1903 255.514 91.9203 254.812 91.4043 254.332C90.9003 253.84 90.2703 253.594 89.5143 253.594C89.0103 253.594 88.5423 253.72 88.1103 253.972C87.6903 254.212 87.3483 254.572 87.0843 255.052C86.8203 255.532 86.6883 256.132 86.6883 256.852V257.356C86.6883 258.148 86.8203 258.814 87.0843 259.354C87.3483 259.882 87.6903 260.278 88.1103 260.542C88.5423 260.806 89.0103 260.938 89.5143 260.938C90.1863 260.938 90.7143 260.812 91.0983 260.56C91.4823 260.296 91.7643 259.924 91.9443 259.444H93.4383C93.2943 259.972 93.0423 260.446 92.6823 260.866C92.3343 261.286 91.8903 261.616 91.3503 261.856C90.8223 262.096 90.2103 262.216 89.5143 262.216ZM95.7856 262V252.532H97.1536L97.2616 254.26C97.4776 253.828 97.7596 253.468 98.1076 253.18C98.4556 252.892 98.8756 252.676 99.3676 252.532C99.8716 252.388 100.436 252.316 101.06 252.316V253.9H100.124C99.7636 253.9 99.4156 253.948 99.0796 254.044C98.7436 254.14 98.4376 254.296 98.1616 254.512C97.8976 254.728 97.6876 255.022 97.5316 255.394C97.3756 255.766 97.2976 256.234 97.2976 256.798V262H95.7856ZM105.751 262.216C105.031 262.216 104.431 262.084 103.951 261.82C103.471 261.544 103.111 261.184 102.871 260.74C102.631 260.284 102.511 259.798 102.511 259.282C102.511 258.658 102.667 258.13 102.979 257.698C103.303 257.254 103.753 256.918 104.329 256.69C104.905 256.462 105.577 256.348 106.345 256.348H108.703C108.703 255.736 108.631 255.226 108.487 254.818C108.343 254.41 108.109 254.104 107.785 253.9C107.461 253.696 107.029 253.594 106.489 253.594C105.949 253.594 105.487 253.732 105.103 254.008C104.719 254.272 104.479 254.668 104.383 255.196H102.835C102.907 254.572 103.117 254.05 103.465 253.63C103.813 253.198 104.251 252.874 104.779 252.658C105.319 252.43 105.889 252.316 106.489 252.316C107.341 252.316 108.043 252.472 108.595 252.784C109.147 253.084 109.555 253.51 109.819 254.062C110.083 254.602 110.215 255.244 110.215 255.988V262H108.865L108.775 260.38C108.655 260.632 108.499 260.872 108.307 261.1C108.127 261.316 107.911 261.508 107.659 261.676C107.407 261.844 107.119 261.976 106.795 262.072C106.483 262.168 106.135 262.216 105.751 262.216ZM105.967 260.938C106.363 260.938 106.729 260.848 107.065 260.668C107.401 260.488 107.689 260.248 107.929 259.948C108.181 259.636 108.373 259.288 108.505 258.904C108.637 258.52 108.703 258.118 108.703 257.698V257.518H106.471C105.907 257.518 105.445 257.59 105.085 257.734C104.737 257.878 104.485 258.082 104.329 258.346C104.173 258.598 104.095 258.886 104.095 259.21C104.095 259.558 104.167 259.864 104.311 260.128C104.455 260.38 104.665 260.578 104.941 260.722C105.229 260.866 105.571 260.938 105.967 260.938ZM116.139 262C115.599 262 115.131 261.916 114.735 261.748C114.339 261.58 114.033 261.298 113.817 260.902C113.613 260.494 113.511 259.948 113.511 259.264V253.81H111.855V252.532H113.511L113.709 250.174H115.023V252.532H117.705V253.81H115.023V259.264C115.023 259.828 115.137 260.212 115.365 260.416C115.593 260.608 115.995 260.704 116.571 260.704H117.669V262H116.139ZM119.924 262V252.532H121.436V262H119.924ZM120.68 250.732C120.38 250.732 120.128 250.636 119.924 250.444C119.732 250.24 119.636 249.988 119.636 249.688C119.636 249.388 119.732 249.148 119.924 248.968C120.128 248.776 120.38 248.68 120.68 248.68C120.968 248.68 121.214 248.776 121.418 248.968C121.622 249.148 121.724 249.388 121.724 249.688C121.724 249.988 121.622 250.24 121.418 250.444C121.214 250.636 120.968 250.732 120.68 250.732ZM124.122 262V252.532H125.49L125.562 254.026C125.838 253.486 126.234 253.066 126.75 252.766C127.278 252.466 127.884 252.316 128.568 252.316C129.264 252.316 129.87 252.448 130.386 252.712C130.902 252.976 131.304 253.378 131.592 253.918C131.88 254.458 132.024 255.142 132.024 255.97V262H130.512V256.132C130.512 255.292 130.302 254.662 129.882 254.242C129.474 253.822 128.922 253.612 128.226 253.612C127.758 253.612 127.326 253.726 126.93 253.954C126.534 254.17 126.216 254.494 125.976 254.926C125.748 255.358 125.634 255.886 125.634 256.51V262H124.122ZM138.236 266.176C137.384 266.176 136.634 266.068 135.986 265.852C135.35 265.648 134.852 265.33 134.492 264.898C134.144 264.466 133.97 263.932 133.97 263.296C133.97 262.996 134.024 262.684 134.132 262.36C134.252 262.036 134.45 261.724 134.726 261.424C135.014 261.124 135.416 260.854 135.932 260.614L137.084 261.226C136.4 261.49 135.956 261.796 135.752 262.144C135.548 262.492 135.446 262.828 135.446 263.152C135.446 263.548 135.56 263.878 135.788 264.142C136.028 264.406 136.358 264.604 136.778 264.736C137.198 264.868 137.684 264.934 138.236 264.934C138.776 264.934 139.238 264.862 139.622 264.718C140.018 264.586 140.318 264.388 140.522 264.124C140.738 263.872 140.846 263.572 140.846 263.224C140.846 262.72 140.684 262.324 140.36 262.036C140.036 261.76 139.406 261.598 138.47 261.55C137.738 261.502 137.126 261.436 136.634 261.352C136.142 261.268 135.734 261.172 135.41 261.064C135.098 260.944 134.834 260.812 134.618 260.668C134.414 260.524 134.228 260.374 134.06 260.218V259.804L135.842 258.094L137.264 258.562L135.32 260.164L135.554 259.48C135.686 259.576 135.812 259.666 135.932 259.75C136.052 259.834 136.214 259.912 136.418 259.984C136.634 260.044 136.928 260.104 137.3 260.164C137.684 260.224 138.188 260.278 138.812 260.326C139.676 260.386 140.366 260.53 140.882 260.758C141.398 260.986 141.77 261.304 141.998 261.712C142.226 262.108 142.34 262.594 142.34 263.17C142.34 263.674 142.196 264.154 141.908 264.61C141.632 265.066 141.188 265.438 140.576 265.726C139.976 266.026 139.196 266.176 138.236 266.176ZM138.218 259.048C137.45 259.048 136.796 258.904 136.256 258.616C135.728 258.316 135.326 257.914 135.05 257.41C134.774 256.894 134.636 256.318 134.636 255.682C134.636 255.046 134.774 254.476 135.05 253.972C135.338 253.468 135.746 253.066 136.274 252.766C136.814 252.466 137.462 252.316 138.218 252.316C138.998 252.316 139.652 252.466 140.18 252.766C140.708 253.066 141.11 253.468 141.386 253.972C141.662 254.476 141.8 255.046 141.8 255.682C141.8 256.318 141.662 256.894 141.386 257.41C141.11 257.914 140.708 258.316 140.18 258.616C139.652 258.904 138.998 259.048 138.218 259.048ZM138.218 257.806C138.89 257.806 139.412 257.632 139.784 257.284C140.156 256.924 140.342 256.39 140.342 255.682C140.342 254.974 140.156 254.446 139.784 254.098C139.412 253.75 138.89 253.576 138.218 253.576C137.582 253.576 137.06 253.75 136.652 254.098C136.256 254.446 136.058 254.974 136.058 255.682C136.058 256.39 136.25 256.924 136.634 257.284C137.03 257.632 137.558 257.806 138.218 257.806ZM139.802 253.81L139.352 252.532H143.06V253.666L139.802 253.81ZM153.135 262.216C152.283 262.216 151.575 262.09 151.011 261.838C150.459 261.574 150.039 261.214 149.751 260.758C149.463 260.29 149.289 259.75 149.229 259.138H150.777C150.825 259.462 150.933 259.762 151.101 260.038C151.281 260.302 151.539 260.518 151.875 260.686C152.211 260.854 152.637 260.938 153.153 260.938C153.561 260.938 153.909 260.878 154.197 260.758C154.485 260.626 154.701 260.446 154.845 260.218C155.001 259.99 155.079 259.726 155.079 259.426C155.079 259.03 154.989 258.724 154.809 258.508C154.641 258.28 154.389 258.112 154.053 258.004C153.729 257.884 153.321 257.794 152.829 257.734C152.301 257.662 151.833 257.56 151.425 257.428C151.017 257.296 150.669 257.122 150.381 256.906C150.105 256.69 149.895 256.42 149.751 256.096C149.607 255.772 149.535 255.388 149.535 254.944C149.535 254.428 149.673 253.972 149.949 253.576C150.225 253.18 150.615 252.874 151.119 252.658C151.635 252.43 152.241 252.316 152.937 252.316C153.957 252.316 154.761 252.55 155.349 253.018C155.949 253.486 156.303 254.152 156.411 255.016H154.917C154.857 254.572 154.653 254.224 154.305 253.972C153.957 253.72 153.495 253.594 152.919 253.594C152.307 253.594 151.845 253.708 151.533 253.936C151.221 254.164 151.065 254.464 151.065 254.836C151.065 255.112 151.131 255.364 151.263 255.592C151.407 255.808 151.647 255.994 151.983 256.15C152.319 256.294 152.769 256.402 153.333 256.474C154.041 256.558 154.641 256.696 155.133 256.888C155.625 257.068 155.997 257.35 156.249 257.734C156.513 258.118 156.639 258.64 156.627 259.3C156.627 259.924 156.477 260.452 156.177 260.884C155.889 261.316 155.481 261.646 154.953 261.874C154.437 262.102 153.831 262.216 153.135 262.216ZM162.141 262C161.601 262 161.133 261.916 160.737 261.748C160.341 261.58 160.035 261.298 159.819 260.902C159.615 260.494 159.513 259.948 159.513 259.264V253.81H157.857V252.532H159.513L159.711 250.174H161.025V252.532H163.707V253.81H161.025V259.264C161.025 259.828 161.139 260.212 161.367 260.416C161.595 260.608 161.997 260.704 162.573 260.704H163.671V262H162.141ZM165.782 262V252.532H167.15L167.258 254.26C167.474 253.828 167.756 253.468 168.104 253.18C168.452 252.892 168.872 252.676 169.364 252.532C169.868 252.388 170.432 252.316 171.056 252.316V253.9H170.12C169.76 253.9 169.412 253.948 169.076 254.044C168.74 254.14 168.434 254.296 168.158 254.512C167.894 254.728 167.684 255.022 167.528 255.394C167.372 255.766 167.294 256.234 167.294 256.798V262H165.782ZM175.747 262.216C175.027 262.216 174.427 262.084 173.947 261.82C173.467 261.544 173.107 261.184 172.867 260.74C172.627 260.284 172.507 259.798 172.507 259.282C172.507 258.658 172.663 258.13 172.975 257.698C173.299 257.254 173.749 256.918 174.325 256.69C174.901 256.462 175.573 256.348 176.341 256.348H178.699C178.699 255.736 178.627 255.226 178.483 254.818C178.339 254.41 178.105 254.104 177.781 253.9C177.457 253.696 177.025 253.594 176.485 253.594C175.945 253.594 175.483 253.732 175.099 254.008C174.715 254.272 174.475 254.668 174.379 255.196H172.831C172.903 254.572 173.113 254.05 173.461 253.63C173.809 253.198 174.247 252.874 174.775 252.658C175.315 252.43 175.885 252.316 176.485 252.316C177.337 252.316 178.039 252.472 178.591 252.784C179.143 253.084 179.551 253.51 179.815 254.062C180.079 254.602 180.211 255.244 180.211 255.988V262H178.861L178.771 260.38C178.651 260.632 178.495 260.872 178.303 261.1C178.123 261.316 177.907 261.508 177.655 261.676C177.403 261.844 177.115 261.976 176.791 262.072C176.479 262.168 176.131 262.216 175.747 262.216ZM175.963 260.938C176.359 260.938 176.725 260.848 177.061 260.668C177.397 260.488 177.685 260.248 177.925 259.948C178.177 259.636 178.369 259.288 178.501 258.904C178.633 258.52 178.699 258.118 178.699 257.698V257.518H176.467C175.903 257.518 175.441 257.59 175.081 257.734C174.733 257.878 174.481 258.082 174.325 258.346C174.169 258.598 174.091 258.886 174.091 259.21C174.091 259.558 174.163 259.864 174.307 260.128C174.451 260.38 174.661 260.578 174.937 260.722C175.225 260.866 175.567 260.938 175.963 260.938ZM186.135 262C185.595 262 185.127 261.916 184.731 261.748C184.335 261.58 184.029 261.298 183.813 260.902C183.609 260.494 183.507 259.948 183.507 259.264V253.81H181.851V252.532H183.507L183.705 250.174H185.019V252.532H187.701V253.81H185.019V259.264C185.019 259.828 185.133 260.212 185.361 260.416C185.589 260.608 185.991 260.704 186.567 260.704H187.665V262H186.135ZM193.454 262.216C192.614 262.216 191.87 262.012 191.222 261.604C190.574 261.196 190.064 260.62 189.692 259.876C189.332 259.132 189.152 258.262 189.152 257.266C189.152 256.27 189.332 255.4 189.692 254.656C190.064 253.912 190.574 253.336 191.222 252.928C191.882 252.52 192.638 252.316 193.49 252.316C194.402 252.316 195.164 252.52 195.776 252.928C196.388 253.336 196.85 253.882 197.162 254.566C197.474 255.25 197.63 256 197.63 256.816C197.63 256.936 197.63 257.056 197.63 257.176C197.63 257.296 197.624 257.44 197.612 257.608H190.286V256.438H196.154C196.13 255.514 195.86 254.812 195.344 254.332C194.84 253.84 194.21 253.594 193.454 253.594C192.95 253.594 192.482 253.72 192.05 253.972C191.63 254.212 191.288 254.572 191.024 255.052C190.76 255.532 190.628 256.132 190.628 256.852V257.356C190.628 258.148 190.76 258.814 191.024 259.354C191.288 259.882 191.63 260.278 192.05 260.542C192.482 260.806 192.95 260.938 193.454 260.938C194.126 260.938 194.654 260.812 195.038 260.56C195.422 260.296 195.704 259.924 195.884 259.444H197.378C197.234 259.972 196.982 260.446 196.622 260.866C196.274 261.286 195.83 261.616 195.29 261.856C194.762 262.096 194.15 262.216 193.454 262.216ZM203.38 266.176C202.528 266.176 201.778 266.068 201.13 265.852C200.494 265.648 199.996 265.33 199.636 264.898C199.288 264.466 199.114 263.932 199.114 263.296C199.114 262.996 199.168 262.684 199.276 262.36C199.396 262.036 199.594 261.724 199.87 261.424C200.158 261.124 200.56 260.854 201.076 260.614L202.228 261.226C201.544 261.49 201.1 261.796 200.896 262.144C200.692 262.492 200.59 262.828 200.59 263.152C200.59 263.548 200.704 263.878 200.932 264.142C201.172 264.406 201.502 264.604 201.922 264.736C202.342 264.868 202.828 264.934 203.38 264.934C203.92 264.934 204.382 264.862 204.766 264.718C205.162 264.586 205.462 264.388 205.666 264.124C205.882 263.872 205.99 263.572 205.99 263.224C205.99 262.72 205.828 262.324 205.504 262.036C205.18 261.76 204.55 261.598 203.614 261.55C202.882 261.502 202.27 261.436 201.778 261.352C201.286 261.268 200.878 261.172 200.554 261.064C200.242 260.944 199.978 260.812 199.762 260.668C199.558 260.524 199.372 260.374 199.204 260.218V259.804L200.986 258.094L202.408 258.562L200.464 260.164L200.698 259.48C200.83 259.576 200.956 259.666 201.076 259.75C201.196 259.834 201.358 259.912 201.562 259.984C201.778 260.044 202.072 260.104 202.444 260.164C202.828 260.224 203.332 260.278 203.956 260.326C204.82 260.386 205.51 260.53 206.026 260.758C206.542 260.986 206.914 261.304 207.142 261.712C207.37 262.108 207.484 262.594 207.484 263.17C207.484 263.674 207.34 264.154 207.052 264.61C206.776 265.066 206.332 265.438 205.72 265.726C205.12 266.026 204.34 266.176 203.38 266.176ZM203.362 259.048C202.594 259.048 201.94 258.904 201.4 258.616C200.872 258.316 200.47 257.914 200.194 257.41C199.918 256.894 199.78 256.318 199.78 255.682C199.78 255.046 199.918 254.476 200.194 253.972C200.482 253.468 200.89 253.066 201.418 252.766C201.958 252.466 202.606 252.316 203.362 252.316C204.142 252.316 204.796 252.466 205.324 252.766C205.852 253.066 206.254 253.468 206.53 253.972C206.806 254.476 206.944 255.046 206.944 255.682C206.944 256.318 206.806 256.894 206.53 257.41C206.254 257.914 205.852 258.316 205.324 258.616C204.796 258.904 204.142 259.048 203.362 259.048ZM203.362 257.806C204.034 257.806 204.556 257.632 204.928 257.284C205.3 256.924 205.486 256.39 205.486 255.682C205.486 254.974 205.3 254.446 204.928 254.098C204.556 253.75 204.034 253.576 203.362 253.576C202.726 253.576 202.204 253.75 201.796 254.098C201.4 254.446 201.202 254.974 201.202 255.682C201.202 256.39 201.394 256.924 201.778 257.284C202.174 257.632 202.702 257.806 203.362 257.806ZM204.946 253.81L204.496 252.532H208.204V253.666L204.946 253.81ZM211.088 265.96L213.23 260.992H212.708L209.162 252.532H210.8L213.734 259.822L216.794 252.532H218.36L212.654 265.96H211.088ZM222.668 262.09C222.38 262.09 222.134 261.994 221.93 261.802C221.738 261.598 221.642 261.352 221.642 261.064C221.642 260.776 221.738 260.536 221.93 260.344C222.134 260.14 222.38 260.038 222.668 260.038C222.98 260.038 223.226 260.14 223.406 260.344C223.598 260.536 223.694 260.776 223.694 261.064C223.694 261.352 223.598 261.598 223.406 261.802C223.226 261.994 222.98 262.09 222.668 262.09ZM225.98 262.09C225.692 262.09 225.446 261.994 225.242 261.802C225.05 261.598 224.954 261.352 224.954 261.064C224.954 260.776 225.05 260.536 225.242 260.344C225.446 260.14 225.692 260.038 225.98 260.038C226.292 260.038 226.538 260.14 226.718 260.344C226.91 260.536 227.006 260.776 227.006 261.064C227.006 261.352 226.91 261.598 226.718 261.802C226.538 261.994 226.292 262.09 225.98 262.09ZM219.356 262.09C219.068 262.09 218.822 261.994 218.618 261.802C218.426 261.598 218.33 261.352 218.33 261.064C218.33 260.776 218.426 260.536 218.618 260.344C218.822 260.14 219.068 260.038 219.356 260.038C219.668 260.038 219.914 260.14 220.094 260.344C220.286 260.536 220.382 260.776 220.382 261.064C220.382 261.352 220.286 261.598 220.094 261.802C219.914 261.994 219.668 262.09 219.356 262.09Z" fill="white"/>
</svg>
